NotoSerifTangut.glyphspackage
{
glyphname = u16FE0;
layers = (
{
hints = (
{
horizontal = 1;
place = (0, 21);
target = up;
type = BottomGhost;
},
{
horizontal = 1;
place = (733, 27);
type = Stem;
}
);
layerId = "CB7FBE56-FAF0-4485-826E-02FDEC4040B6";
shapes = (
{
closed = 1;
nodes = (
(315,0,l),
(381.77,34.86,o),
(445.49,81.75,o),
(506.17,140.67,cs),
(598.02,230.35,o),
(662.63,325.13,o),
(700,425,c),
(713.1,426.08,o),
(723.43,430.42,o),
(731,438,c),
(653,493,l),
(623,460,l),
(375,460,l),
(506.96,542.77,o),
(602.96,630.77,o),
(663,724,c),
(679.18,724.98,o),
(691.18,729.31,o),
(699,737,c),
(611,804,l),
(582,760,l),
(317,760,l),
(325,733,l),
(576,733,l),
(537.96,649.5,o),
(459.62,562.83,o),
(341,473,cs),
(337.89,470.83,o),
(332.89,469.5,o),
(326,469,cs),
(316,469,l),
(350,387,l),
(359.17,390.46,o),
(367.51,398.13,o),
(375,410,c),
(450.11,418.17,o),
(531.44,427.5,o),
(619,438,c),
(597.19,374.94,o),
(564.21,310.42,o),
(520.06,244.45,cs),
(451.47,142.45,o),
(378.11,67.3,o),
(300,19,c)
);
}
);
vertWidth = 976;
width = 1000;
}
);
note = u16FE0;
unicode = 94176;
}
{
glyphname = u17000;
layers = (
{
hints = (
{
horizontal = 1;
place = (-75, 58);
type = Stem;
},
{
horizontal = 1;
place = (299, 30);
type = Stem;
},
{
horizontal = 1;
place = (446, 30);
type = Stem;
},
{
horizontal = 1;
place = (593, 30);
type = Stem;
},
{
horizontal = 1;
place = (729, 30);
type = Stem;
},
{
place = (145, 65);
type = Stem;
},
{
place = (579, 67);
type = Stem;
},
{
place = (855, 16);
type = Stem;
},
{
place = (423, 68);
type = Stem;
},
{
place = (395, 65);
type = Stem;
}
);
layerId = "CB7FBE56-FAF0-4485-826E-02FDEC4040B6";
shapes = (
{
closed = 1;
nodes = (
(797,759,l),
(62,759,l),
(71,729,l),
(913,729,ls),
(927.17,729.38,o),
(936.17,734.72,o),
(940,745,c),
(847,824,l)
);
},
{
closed = 1;
nodes = (
(434,410,ls),
(441.34,410.15,o),
(450.04,411.95,o),
(460.09,415.4,cs),
(479.86,422.61,o),
(490.16,429.14,o),
(491,435,c),
(491,582,l),
(511.43,586.49,o),
(525.1,592.83,o),
(532,601,c),
(452,665,l),
(413,623,l),
(132,623,l),
(141,593,l),
(423,593,l),
(423,476,l),
(127,476,l),
(136,446,l),
(423,446,l),
(423,410,l)
);
},
{
closed = 1;
nodes = (
(780.38,-74.98,o),
(848.07,-71.45,o),
(876.1,-64.41,cs),
(898.04,-58.68,o),
(909,-47.54,o),
(909,-31,cs),
(908.03,-19.61,o),
(895.7,-9.94,o),
(872,-2,c),
(871,218,l),
(855,218,l),
(836.66,99.6,o),
(823,29.27,o),
(814,7,cs),
(809.12,-4.43,o),
(802.12,-11.76,o),
(793,-15,cs),
(788.25,-16.28,o),
(748.25,-16.95,o),
(673,-17,cs),
(669.08,-16.94,o),
(665.3,-16.56,o),
(661.67,-15.87,cs),
(651.22,-13.35,o),
(646,-3.39,o),
(646,14,cs),
(646,623,l),
(667.09,626.81,o),
(679.42,636.15,o),
(683,651,c),
(579,663,l),
(579,-3,ls),
(579.1,-20.81,o),
(581.61,-34.92,o),
(586.53,-45.33,cs),
(596.7,-65.11,o),
(625.52,-75,o),
(673,-75,cs)
);
},
{
closed = 1;
nodes = (
(155,-70,ls),
(160.93,-69.88,o),
(168.13,-68.69,o),
(176.61,-66.41,cs),
(197.96,-60.26,o),
(209.09,-54.45,o),
(210,-49,c),
(210,299,l),
(395,299,l),
(395,-75,l),
(405,-75,ls),
(410.93,-74.88,o),
(418.13,-73.69,o),
(426.61,-71.41,cs),
(447.96,-65.26,o),
(459.09,-59.45,o),
(460,-54,c),
(460,288,l),
(477.95,292,o),
(491.61,298.33,o),
(501,307,c),
(420,368,l),
(384,329,l),
(221,329,l),
(158,356,l),
(145,362,l),
(145,-70,l)
);
}
);
vertWidth = 976;
width = 1000;
}
);
note = u17000;
unicode = 94208;
}
{
glyphname = u17001;
layers = (
{
hints = (
{
horizontal = 1;
place = (-74,17);
type = Stem;
},
{
horizontal = 1;
place = (-11,12);
type = Stem;
},
{
horizontal = 1;
place = (350,29);
type = Stem;
},
{
horizontal = 1;
place = (470,30);
type = Stem;
},
{
horizontal = 1;
place = (603,30);
type = Stem;
},
{
horizontal = 1;
place = (729,30);
type = Stem;
},
{
place = (154,65);
type = Stem;
},
{
place = (302,65);
type = Stem;
},
{
place = (768,65);
type = Stem;
}
);
layerId = "CB7FBE56-FAF0-4485-826E-02FDEC4040B6";
shapes = (
{
closed = 1;
nodes = (
(847,824,l),
(797,759,l),
(62,759,l),
(71,729,l),
(913,729,ls),
(927.17,729.38,o),
(936.17,734.72,o),
(940,745,c)
);
},
{
closed = 1;
nodes = (
(778,104,ls),
(783.93,104.12,o),
(791.13,105.31,o),
(799.61,107.59,cs),
(820.96,113.74,o),
(832.09,119.55,o),
(833,125,c),
(833,592,l),
(850.95,596,o),
(864.61,602.33,o),
(874,611,c),
(793,672,l),
(757,633,l),
(230,633,l),
(166,661,l),
(154,666,l),
(154,44,l),
(164,44,ls),
(169.93,44.12,o),
(177.13,45.31,o),
(185.61,47.59,cs),
(206.96,53.74,o),
(218.09,59.55,o),
(219,65,c),
(219,603,l),
(768,603,l),
(768,104,l)
);
},
{
closed = 1;
nodes = (
(278,470,l),
(713,470,ls),
(727.17,470.38,o),
(736.17,475.72,o),
(740,486,c),
(647,565,l),
(597,500,l),
(269,500,l)
);
},
{
closed = 1;
nodes = (
(624.46,206.67,o),
(668.13,271.67,o),
(697,343,c),
(715.7,343.92,o),
(729.03,348.26,o),
(737,356,c),
(650,418,l),
(619,379,l),
(363,379,l),
(302,412,l),
(302,92,l),
(312,92,ls),
(317.93,92.12,o),
(325.13,93.31,o),
(333.61,95.59,cs),
(354.96,101.74,o),
(366.09,107.55,o),
(367,113,c),
(367,350,l),
(410,350,l),
(426.88,278,o),
(452.88,213.66,o),
(488,157,c),
(387.63,56.01,o),
(250.63,-15.32,o),
(77,-57,c),
(85,-74,l),
(94.48,-72.69,o),
(104.29,-71.19,o),
(114.43,-69.49,cs),
(275.17,-42.32,o),
(411.36,17.17,o),
(523,109,c),
(602.24,11.93,o),
(717.24,-49.73,o),
(868,-76,c),
(869.3,-72.35,o),
(870.92,-68.42,o),
(872.86,-64.22,cs),
(887.92,-33.11,o),
(910.3,-15.36,o),
(940,-11,c),
(942,1,l),
(784.84,15.31,o),
(659.51,64.31,o),
(566,148,c)
);
},
{
closed = 1;
nodes = (
(617,350,l),
(593.37,293.21,o),
(561.7,241.21,o),
(522,194,c),
(484.91,237.19,o),
(455.91,289.19,o),
(435,350,c)
);
}
);
vertWidth = 976;
width = 1000;
}
);
note = u17001;
unicode = 94209;
}
{
glyphname = u17002;
layers = (
{
hints = (
{
horizontal = 1;
place = (-77,18);
type = Stem;
},
{
horizontal = 1;
place = (126,30);
type = Stem;
},
{
horizontal = 1;
place = (370,30);
type = Stem;
},
{
horizontal = 1;
place = (586,30);
type = Stem;
},
{
horizontal = 1;
place = (729,30);
type = Stem;
},
{
place = (231,63);
type = Stem;
},
{
horizontal = 1;
place = (282,16);
type = Stem;
},
{
horizontal = 1;
place = (272,30);
type = Stem;
}
);
layerId = "CB7FBE56-FAF0-4485-826E-02FDEC4040B6";
shapes = (
{
closed = 1;
nodes = (
(913,729,ls),
(927.17,729.38,o),
(936.17,734.72,o),
(940,745,c),
(847,824,l),
(797,759,l),
(62,759,l),
(71,729,l)
);
},
{
closed = 1;
nodes = (
(744.65,481.62,o),
(782.98,518.28,o),
(819,558,c),
(819.86,557.68,ls),
(827.96,554.56,o),
(834,553.33,o),
(838,554,cs),
(845.95,554.28,o),
(853.28,558.28,o),
(860,566,c),
(772,613,l),
(730.35,559.99,o),
(688.35,513.65,o),
(646,474,c),
(613.72,489.27,o),
(583.72,506.94,o),
(556,527,c),
(619.76,562.18,o),
(671.76,601.52,o),
(712,645,c),
(719.07,643.8,o),
(724.07,643.13,o),
(727,643,cs),
(737.17,643.38,o),
(744.84,647.71,o),
(750,656,c),
(662,705,l),
(624.95,640.82,o),
(573.62,583.49,o),
(508,533,c),
(533.93,503.54,o),
(568.27,473.21,o),
(611,442,c),
(538.61,380.67,o),
(461.95,332.67,o),
(381,298,c),
(390,282,l),
(487.63,311.71,o),
(576.63,355.04,o),
(657,412,c),
(728.2,368.79,o),
(810.54,334.79,o),
(904,310,c),
(913.14,336.92,o),
(930.47,353.58,o),
(956,360,c),
(959,371,l),
(857.8,393.66,o),
(772.8,419.32,o),
(704,448,c)
);
},
{
closed = 1;
nodes = (
(474,370,ls),
(488.17,370.38,o),
(497.17,375.72,o),
(501,386,c),
(425,452,l),
(386,400,l),
(294,400,l),
(294,586,l),
(424,586,ls),
(438.17,586.38,o),
(447.17,591.72,o),
(451,602,c),
(374,668,l),
(336,616,l),
(98,616,l),
(107,586,l),
(231,586,l),
(231,400,l),
(65,400,l),
(74,370,l),
(231,370,l),
(231,-72,l),
(241,-72,ls),
(246.76,-71.88,o),
(253.64,-70.74,o),
(261.65,-68.56,cs),
(282.27,-62.5,o),
(293.06,-56.65,o),
(294,-51,c),
(294,370,l)
);
},
{
closed = 1;
nodes = (
(595,156,l),
(823,268,l),
(839.18,268.98,o),
(851.18,273.31,o),
(859,281,c),
(760,342,l),
(723,302,l),
(505,302,l),
(513,272,l),
(718,272,l),
(526,176,l),
(505.69,172.96,o),
(492.36,170.29,o),
(486,168,c),
(539,107,l),
(563,126,l),
(772,126,l),
(760.95,110.85,o),
(745.72,95,o),
(726.29,78.45,cs),
(654.92,18.55,o),
(559.82,-27.26,o),
(441,-59,c),
(450,-77,l),
(478.71,-72.24,o),
(506.91,-66.44,o),
(534.58,-59.61,cs),
(686.64,-21.73,o),
(794.11,39.14,o),
(857,123,c),
(873.18,123.98,o),
(885.18,128.31,o),
(893,136,c),
(804,196,l),
(766,156,l)
);
}
);
vertWidth = 976;
width = 1000;
}
);
note = u17002;
unicode = 94210;
}
{
glyphname = u17003;
layers = (
{
hints = (
{
horizontal = 1;
place = (272,30);
type = Stem;
},
{
horizontal = 1;
place = (485,30);
type = Stem;
},
{
horizontal = 1;
place = (606,30);
type = Stem;
},
{
horizontal = 1;
place = (729,30);
type = Stem;
},
{
place = (113,65);
type = Stem;
},
{
place = (485,58);
type = Stem;
},
{
place = (614,65);
type = Stem;
},
{
place = (777,65);
type = Stem;
}
);
layerId = "CB7FBE56-FAF0-4485-826E-02FDEC4040B6";
shapes = (
{
closed = 1;
nodes = (
(797,759,l),
(62,759,l),
(71,729,l),
(913,729,ls),
(927.17,729.38,o),
(936.17,734.72,o),
(940,745,c),
(847,824,l)
);
},
{
closed = 1;
nodes = (
(80,636,l),
(89,606,l),
(534,606,ls),
(548.17,606.38,o),
(557.17,611.72,o),
(561,622,c),
(468,701,l),
(418,636,l)
);
},
{
closed = 1;
nodes = (
(787,-78,ls),
(792.93,-77.88,o),
(800.13,-76.69,o),
(808.61,-74.41,cs),
(829.96,-68.26,o),
(841.09,-62.45,o),
(842,-57,c),
(842,637,l),
(861.52,640.65,o),
(873.52,649.98,o),
(878,665,c),
(777,676,l),
(777,-78,l)
);
},
{
closed = 1;
nodes = (
(624,-16,ls),
(630.1,-16,o),
(637.31,-14.8,o),
(645.61,-12.41,cs),
(666.96,-6.26,o),
(678.09,-0.45,o),
(679,5,c),
(679,547,l),
(698.52,550.65,o),
(710.52,559.98,o),
(715,575,c),
(614,586,l),
(614,-16,l)
);
},
{
closed = 1;
nodes = (
(178,527,l),
(197.52,530.65,o),
(209.52,539.98,o),
(214,555,c),
(113,566,l),
(113,9,l),
(123,9,ls),
(129.1,9,o),
(136.31,10.2,o),
(144.61,12.59,cs),
(165.96,18.74,o),
(177.09,24.55,o),
(178,30,c)
);
},
{
closed = 1;
nodes = (
(446.07,165.26,o),
(478.4,215.26,o),
(502,269,c),
(518.18,269.98,o),
(530.18,274.31,o),
(538,282,c),
(451,346,l),
(416,302,l),
(281,302,l),
(475,481,l),
(491.18,481.98,o),
(503.18,486.31,o),
(511,494,c),
(422,556,l),
(386,515,l),
(211,515,l),
(219,485,l),
(395,485,l),
(231,323,l),
(210.69,319.96,o),
(197.36,317.29,o),
(191,315,c),
(241,253,l),
(265,272,l),
(430,272,l),
(417.1,231.82,o),
(394.1,189.82,o),
(361,146,c),
(313.93,173.38,o),
(265.93,196.38,o),
(217,215,c),
(201,203,l),
(247.97,177.38,o),
(292.3,147.38,o),
(334,113,c),
(270.77,40.38,o),
(196.44,-17.95,o),
(111,-62,c),
(122,-78,l),
(217.57,-38.6,o),
(299.91,14.4,o),
(369,81,c),
(421.56,31.4,o),
(460.23,-19.26,o),
(485,-71,c),
(494.89,-75.73,o),
(505.23,-77.73,o),
(516,-77,cs),
(517.68,-76.76,o),
(519.66,-76.35,o),
(521.93,-75.78,cs),
(539.54,-70.37,o),
(546.56,-56.11,o),
(543,-33,cs),
(535.95,13.05,o),
(489.95,63.71,o),
(405,119,c)
);
}
);
vertWidth = 976;
width = 1000;
}
);
note = u17003;
unicode = 94211;
}
{
glyphname = u17004;
layers = (
{
hints = (
{
horizontal = 1;
place = (-75, 58);
type = Stem;
},
{
horizontal = 1;
place = (111, 30);
type = Stem;
},
{
horizontal = 1;
place = (254, 30);
type = Stem;
},
{
horizontal = 1;
place = (394, 30);
type = Stem;
},
{
horizontal = 1;
place = (535, 30);
type = Stem;
},
{
horizontal = 1;
place = (729, 30);
type = Stem;
},
{
place = (117, 65);
type = Stem;
},
{
place = (334, 65);
type = Stem;
},
{
place = (581, 66);
type = Stem;
},
{
place = (856, 16);
type = Stem;
}
);
layerId = "CB7FBE56-FAF0-4485-826E-02FDEC4040B6";
shapes = (
{
closed = 1;
nodes = (
(795,759,l),
(60,759,l),
(69,729,l),
(911,729,ls),
(925.17,729.38,o),
(934.17,734.72,o),
(938,745,c),
(845,824,l)
);
},
{
closed = 1;
nodes = (
(399,141,l),
(399,254,l),
(502,254,ls),
(516.17,254.38,o),
(525.17,259.72,o),
(529,270,c),
(464,327,l),
(433,284,l),
(399,284,l),
(399,381,l),
(418.92,385.21,o),
(433.26,391.87,o),
(442,401,c),
(360,463,l),
(324,424,l),
(182,424,l),
(182,535,l),
(495,535,ls),
(507.93,535.31,o),
(516.26,540.31,o),
(520,550,c),
(486.97,578.44,o),
(457.3,602.44,o),
(431,622,c),
(391,565,l),
(182,565,l),
(182,646,l),
(201.52,649.65,o),
(213.52,658.98,o),
(218,674,c),
(117,685,l),
(117,-71,l),
(127,-71,ls),
(132.93,-70.88,o),
(140.13,-69.69,o),
(148.61,-67.41,cs),
(169.96,-61.26,o),
(181.09,-55.45,o),
(182,-50,c),
(182,111,l),
(334,111,l),
(334,-69,l),
(344,-69,ls),
(366.99,-67.14,o),
(385.32,-60.14,o),
(399,-48,c),
(399,111,l),
(523,111,ls),
(537.17,111.38,o),
(546.17,116.72,o),
(550,127,c),
(485,184,l),
(454,141,l)
);
},
{
closed = 1;
nodes = (
(872,206,l),
(856,206,l),
(837.62,93.95,o),
(824.29,27.95,o),
(816,8,cs),
(811.42,-2.17,o),
(803.75,-9.17,o),
(793,-13,cs),
(786.1,-14.6,o),
(750.77,-15.94,o),
(687,-17,cs),
(680.98,-16.95,o),
(675.41,-16.53,o),
(670.31,-15.73,cs),
(655.44,-12.99,o),
(648,-3.08,o),
(648,14,cs),
(647,269,l),
(735.94,306.01,o),
(805.27,359.01,o),
(855,428,c),
(862.07,426.8,o),
(867.07,426.13,o),
(870,426,cs),
(880.17,426.38,o),
(887.84,430.71,o),
(893,439,c),
(817,499,l),
(779.42,415.79,o),
(722.76,346.46,o),
(647,291,c),
(645,642,l),
(666.09,645.81,o),
(678.42,655.15,o),
(682,670,c),
(578,682,l),
(581,-1,ls),
(581.11,-22.4,o),
(584.49,-38.49,o),
(591.16,-49.26,cs),
(602.72,-66.42,o),
(634.66,-75,o),
(687,-75,cs),
(793.2,-74.44,o),
(858.95,-70.12,o),
(884.27,-62.04,cs),
(901.42,-56.31,o),
(910,-44.96,o),
(910,-28,c),
(908.6,-17.77,o),
(896.6,-8.77,o),
(874,-1,c)
);
},
{
closed = 1;
nodes = (
(334,284,l),
(182,284,l),
(182,394,l),
(334,394,l)
);
},
{
closed = 1;
nodes = (
(182,254,l),
(334,254,l),
(334,141,l),
(182,141,l)
);
}
);
vertWidth = 976;
width = 1000;
}
);
note = u17004;
unicode = 94212;
}
{
glyphname = u17005;
layers = (
{
hints = (
{
horizontal = 1;
place = (-75, 58);
type = Stem;
},
{
horizontal = 1;
place = (467, 30);
type = Stem;
},
{
horizontal = 1;
place = (530, -20);
target = down;
type = TopGhost;
},
{
horizontal = 1;
place = (595, 30);
type = Stem;
},
{
horizontal = 1;
place = (729, 30);
type = Stem;
},
{
place = (90, 65);
type = Stem;
},
{
place = (229, 65);
type = Stem;
},
{
place = (686, 67);
type = Stem;
},
{
place = (875, 16);
type = Stem;
}
);
layerId = "CB7FBE56-FAF0-4485-826E-02FDEC4040B6";
shapes = (
{
closed = 1;
nodes = (
(797,759,l),
(62,759,l),
(71,729,l),
(913,729,ls),
(927.17,729.38,o),
(936.17,734.72,o),
(940,745,c),
(847,824,l)
);
},
{
closed = 1;
nodes = (
(570,690,l),
(520,625,l),
(344,625,l),
(353,595,l),
(636,595,ls),
(650.17,595.38,o),
(659.17,600.72,o),
(663,611,c)
);
},
{
closed = 1;
nodes = (
(527,217,l),
(546.62,247.01,o),
(566.28,280.68,o),
(586,318,c),
(607.88,314.23,o),
(621.22,319.23,o),
(626,333,c),
(527,366,l),
(512.41,323.5,o),
(495.74,285.16,o),
(477,251,c),
(416,293,l),
(570,452,l),
(586.09,451.44,o),
(599.09,457.11,o),
(609,469,c),
(536,530,l),
(498,497,l),
(333,497,l),
(342,467,l),
(501,467,l),
(352,305,l),
(335.7,303.17,o),
(322.03,297.17,o),
(311,287,c),
(395,235,l),
(410,263,l),
(462,226,l),
(417.03,150.32,o),
(361.03,88.32,o),
(294,40,c),
(294,647,l),
(313.52,650.65,o),
(325.52,659.98,o),
(330,675,c),
(229,686,l),
(229,-65,l),
(239,-65,ls),
(244.93,-64.88,o),
(252.13,-63.69,o),
(260.61,-61.41,cs),
(281.96,-55.26,o),
(293.09,-49.45,o),
(294,-44,c),
(294,19,l),
(324,34.69,o),
(343.67,45.36,o),
(353,51,c),
(358.69,32.7,o),
(362.69,12.7,o),
(365,-9,c),
(364.9,-31.28,o),
(360.24,-52.28,o),
(351,-72,c),
(394.99,-76.86,o),
(433.66,-70.53,o),
(467,-53,cs),
(472.13,-50.29,o),
(477.93,-46.7,o),
(484.41,-42.23,cs),
(538.79,-3.85,o),
(584.32,57.89,o),
(621,143,c),
(641.38,142.15,o),
(656.05,144.82,o),
(665,151,c),
(604,223,l),
(560,194,l)
);
},
{
closed = 1;
nodes = (
(891,218,l),
(875,218,l),
(856.29,97.07,o),
(842.95,26.74,o),
(835,7,cs),
(830.13,-4.41,o),
(823.47,-11.74,o),
(815,-15,cs),
(811.49,-16.23,o),
(798.49,-16.9,o),
(776,-17,cs),
(773.26,-16.95,o),
(770.46,-16.68,o),
(767.59,-16.22,cs),
(757.86,-14.09,o),
(753,-4.02,o),
(753,14,cs),
(753,281,l),
(811.56,310.97,o),
(857.23,347.3,o),
(890,390,c),
(897.07,388.8,o),
(902.07,388.13,o),
(905,388,cs),
(915.17,388.38,o),
(922.84,392.71,o),
(928,401,c),
(851,458,l),
(830.37,406.93,o),
(797.7,358.26,o),
(753,312,c),
(753,639,l),
(774.09,642.81,o),
(786.42,652.15,o),
(790,667,c),
(686,679,l),
(686,-3,ls),
(686.1,-20.99,o),
(688.66,-35.21,o),
(693.67,-45.67,cs),
(703.86,-65.23,o),
(732.3,-75,o),
(779,-75,cs),
(833.73,-74.97,o),
(871.56,-72.59,o),
(892.51,-67.86,cs),
(916.83,-62.11,o),
(929,-49.82,o),
(929,-31,cs),
(928.03,-19.61,o),
(915.7,-9.94,o),
(892,-2,c)
);
},
{
closed = 1;
nodes = (
(100,8,ls),
(106.1,8,o),
(113.31,9.2,o),
(121.61,11.59,cs),
(142.96,17.74,o),
(154.09,23.55,o),
(155,29,c),
(155,571,l),
(174.52,574.65,o),
(186.52,583.98,o),
(191,599,c),
(90,610,l),
(90,8,l)
);
},
{
closed = 1;
nodes = (
(421.39,-4.32,o),
(411.39,-2.99,o),
(403,3,cs),
(394.77,10.55,o),
(383.77,30.22,o),
(370,62,c),
(423.32,96.11,o),
(469.66,139.45,o),
(509,192,c),
(554,160,l),
(543.34,135.97,o),
(531.62,113.45,o),
(518.84,92.44,cs),
(488.93,43.8,o),
(460.32,12.65,o),
(433,-1,c)
);
}
);
vertWidth = 976;
width = 1000;
}
);
note = u17005;
unicode = 94213;
}
{
glyphname = u17006;
layers = (
{
hints = (
{
horizontal = 1;
place = (-75, 58);
type = Stem;
},
{
horizontal = 1;
place = (729, 30);
type = Stem;
},
{
place = (578, 67);
type = Stem;
},
{
place = (855, 16);
type = Stem;
},
{
place = (471, 53);
type = Stem;
},
{
place = (424, 62);
type = Stem;
}
);
layerId = "CB7FBE56-FAF0-4485-826E-02FDEC4040B6";
shapes = (
{
closed = 1;
nodes = (
(797,759,l),
(62,759,l),
(71,729,l),
(913,729,ls),
(927.17,729.38,o),
(936.17,734.72,o),
(940,745,c),
(847,824,l)
);
},
{
closed = 1;
nodes = (
(423.2,477.29,o),
(454.53,512.95,o),
(483,551,c),
(488.94,549.11,o),
(494.27,548.44,o),
(499,549,cs),
(506.97,548.52,o),
(514.97,551.85,o),
(523,559,c),
(435,610,l),
(401.87,557.72,o),
(368.53,512.39,o),
(335,474,c),
(302.06,490.82,o),
(261.39,508.82,o),
(213,528,c),
(258.15,556.37,o),
(300.81,593.04,o),
(341,638,c),
(347.23,635.46,o),
(352.56,634.46,o),
(357,635,c),
(366.21,634.45,o),
(374.21,638.12,o),
(381,646,c),
(292,699,l),
(233.53,603.96,o),
(169.2,534.3,o),
(99,490,c),
(108,476,l),
(138.73,488.34,o),
(166.39,501.34,o),
(191,515,c),
(227.7,495.16,o),
(265.37,470.83,o),
(304,442,c),
(236.79,372.03,o),
(161.12,316.37,o),
(77,275,c),
(86,260,l),
(184.25,294.19,o),
(271.58,343.19,o),
(348,407,c),
(401.74,359.71,o),
(442.74,313.71,o),
(471,269,c),
(483.24,264.07,o),
(493.58,262.4,o),
(502,264,cs),
(503.91,264.39,o),
(506.09,265.01,o),
(508.53,265.87,cs),
(525.08,272.8,o),
(530.24,287.85,o),
(524,311,cs),
(512.49,352.92,o),
(467.49,397.26,o),
(389,444,c)
);
},
{
closed = 1;
nodes = (
(871,202,l),
(855,202,l),
(836.66,93.61,o),
(823,28.61,o),
(814,7,cs),
(809.38,-3.41,o),
(801.71,-10.41,o),
(791,-14,cs),
(782.56,-15.96,o),
(746.89,-16.96,o),
(684,-17,cs),
(676.99,-16.95,o),
(670.73,-16.41,o),
(665.21,-15.39,cs),
(651.74,-12.49,o),
(645,-2.69,o),
(645,14,cs),
(645,268,l),
(736.75,305.12,o),
(806.75,357.79,o),
(855,426,c),
(862.07,424.8,o),
(867.07,424.13,o),
(870,424,cs),
(880.17,424.38,o),
(887.84,428.71,o),
(893,437,c),
(817,497,l),
(778.88,413.57,o),
(721.55,344.23,o),
(645,289,c),
(645,639,l),
(666.09,642.81,o),
(678.42,652.15,o),
(682,667,c),
(578,679,l),
(578,-1,ls),
(578.11,-22.84,o),
(581.54,-39.11,o),
(588.32,-49.8,cs),
(599.92,-66.6,o),
(632.14,-75,o),
(685,-75,cs),
(792.27,-74.98,o),
(858.25,-71.09,o),
(882.93,-63.34,cs),
(899.65,-57.83,o),
(908,-46.72,o),
(908,-30,c),
(906.22,-20.6,o),
(894.22,-11.27,o),
(872,-2,c)
);
},
{
closed = 1;
nodes = (
(396.38,163.63,o),
(420.05,191.96,o),
(440,219,c),
(445.85,216.67,o),
(449.85,215.33,o),
(452,215,cs),
(463.76,213.48,o),
(473.1,216.15,o),
(480,223,c),
(399,282,l),
(375.86,244.5,o),
(349.86,207.5,o),
(321,171,c),
(267.35,208.66,o),
(211.35,241.33,o),
(153,269,c),
(136,259,l),
(193.35,220.66,o),
(244.35,178.33,o),
(289,132,c),
(217.99,50.36,o),
(138.99,-14.97,o),
(52,-64,c),
(61,-77,l),
(160.23,-36.96,o),
(248.89,19.37,o),
(327,92,c),
(372.73,37.4,o),
(405.06,-14.6,o),
(424,-64,c),
(433.09,-69.54,o),
(443.09,-72.54,o),
(454,-73,c),
(471.83,-70,o),
(482.49,-56,o),
(486,-31,c),
(483.7,16.44,o),
(444.7,71.44,o),
(369,134,c)
);
}
);
vertWidth = 976;
width = 1000;
}
);
note = u17006;
unicode = 94214;
}
{
glyphname = u17007;
layers = (
{
hints = (
{
horizontal = 1;
place = (-78,58);
type = Stem;
},
{
horizontal = 1;
place = (106,30);
type = Stem;
},
{
horizontal = 1;
place = (241,30);
type = Stem;
},
{
horizontal = 1;
place = (345,18);
type = Stem;
},
{
horizontal = 1;
place = (368,30);
type = Stem;
},
{
horizontal = 1;
place = (729,30);
type = Stem;
},
{
place = (590,65);
type = Stem;
},
{
place = (883,16);
type = Stem;
},
{
place = (247,65);
type = Stem;
},
{
place = (296,80);
type = Stem;
}
);
layerId = "CB7FBE56-FAF0-4485-826E-02FDEC4040B6";
shapes = (
{
closed = 1;
nodes = (
(797,759,l),
(62,759,l),
(71,729,l),
(913,729,ls),
(927.17,729.38,o),
(936.17,734.72,o),
(940,745,c),
(847,824,l)
);
},
{
closed = 1;
nodes = (
(899,169,l),
(883,169,l),
(868.6,82.72,o),
(856.26,27.72,o),
(846,4,cs),
(841.35,-6.5,o),
(833.35,-13.5,o),
(822,-17,cs),
(808.43,-19.8,o),
(761.43,-20.8,o),
(681,-20,cs),
(677.73,-19.93,o),
(674.48,-19.55,o),
(671.24,-18.85,cs),
(660.42,-15.86,o),
(655,-2.57,o),
(655,21,cs),
(655,144,l),
(724.32,185,o),
(781.99,236.34,o),
(828,298,c),
(831.76,296.89,o),
(837.43,296.22,o),
(845,296,cs),
(856.75,296.33,o),
(866.09,301,o),
(873,310,c),
(782,357,l),
(744.18,280.62,o),
(701.84,218.29,o),
(655,170,c),
(655,357,l),
(672.95,361,o),
(686.61,367.33,o),
(696,376,c),
(615,437,l),
(579,398,l),
(323,398,l),
(320,399,l),
(492.09,454.06,o),
(634.43,534.73,o),
(747,641,c),
(753,639,o),
(758,638,o),
(762,638,cs),
(771.22,638.37,o),
(778.89,642.71,o),
(785,651,c),
(690,708,l),
(667.8,680.99,o),
(642.79,654.66,o),
(614.99,629.01,cs),
(482.74,507.84,o),
(307.07,419.17,o),
(88,363,c),
(94,345,l),
(154.84,355.55,o),
(205.84,366.55,o),
(247,378,c),
(247,-78,l),
(257,-78,ls),
(262.93,-77.88,o),
(270.13,-76.69,o),
(278.61,-74.41,cs),
(299.96,-68.26,o),
(311.09,-62.45,o),
(312,-57,c),
(312,106,l),
(590,106,l),
(590,1,ls),
(590.09,-21.46,o),
(593.01,-38.4,o),
(598.78,-49.83,cs),
(609.02,-68.61,o),
(636.76,-78,o),
(682,-78,cs),
(741.76,-77.99,o),
(787.86,-76.92,o),
(820.32,-74.79,cs),
(894.11,-69.83,o),
(931,-55.56,o),
(931,-32,c),
(929.68,-21.94,o),
(919.34,-11.6,o),
(900,-1,c)
);
},
{
closed = 1;
nodes = (
(309.55,507.77,o),
(323.88,502.44,o),
(339,503,cs),
(342.12,503.49,o),
(345.47,504.31,o),
(349.06,505.47,cs),
(368.73,512.61,o),
(377.71,526.45,o),
(376,547,cs),
(371.89,578.79,o),
(345.89,610.45,o),
(298,642,cs),
(262.31,665.29,o),
(219.98,683.63,o),
(171,697,c),
(161,685,l),
(189.47,665.52,o),
(213.8,644.19,o),
(234,621,cs),
(266.14,584.98,o),
(286.81,550.98,o),
(296,519,c)
);
},
{
closed = 1;
nodes = (
(590,271,l),
(312,271,l),
(312,368,l),
(590,368,l)
);
},
{
closed = 1;
nodes = (
(312,241,l),
(590,241,l),
(590,136,l),
(312,136,l)
);
}
);
vertWidth = 976;
width = 1000;
}
);
note = u17007;
unicode = 94215;
}
{
glyphname = u17008;
layers = (
{
hints = (
{
horizontal = 1;
place = (-75, 58);
type = Stem;
},
{
horizontal = 1;
place = (174, 30);
type = Stem;
},
{
horizontal = 1;
place = (353, 30);
type = Stem;
},
{
horizontal = 1;
place = (729, 30);
type = Stem;
},
{
place = (383, 65);
type = Stem;
},
{
place = (590, 67);
type = Stem;
},
{
place = (843, 17);
type = Stem;
},
{
place = (183, 65);
type = Stem;
},
{
place = (189, 73);
type = Stem;
}
);
layerId = "CB7FBE56-FAF0-4485-826E-02FDEC4040B6";
shapes = (
{
closed = 1;
nodes = (
(797,759,l),
(62,759,l),
(71,729,l),
(913,729,ls),
(927.17,729.38,o),
(936.17,734.72,o),
(940,745,c),
(847,824,l)
);
},
{
closed = 1;
nodes = (
(448,204,l),
(448,342,l),
(465.95,346,o),
(479.61,352.33,o),
(489,361,c),
(408,422,l),
(372,383,l),
(259,383,l),
(221,400,l),
(326.66,459.84,o),
(414.66,537.51,o),
(485,633,c),
(491,631,o),
(496,630,o),
(500,630,cs),
(509.22,630.37,o),
(516.89,634.71,o),
(523,643,c),
(433,696,l),
(413.62,660.71,o),
(391.06,626.35,o),
(365.34,592.91,cs),
(280.87,483.79,o),
(177.75,401.49,o),
(56,346,c),
(63,331,l),
(105.31,344.47,o),
(145.31,360.81,o),
(183,380,c),
(183,204,l),
(78,204,l),
(87,174,l),
(183,174,l),
(183,-70,l),
(193,-70,ls),
(198.93,-69.88,o),
(206.13,-68.69,o),
(214.61,-66.41,cs),
(235.96,-60.26,o),
(247.09,-54.45,o),
(248,-49,c),
(248,174,l),
(383,174,l),
(383,-75,l),
(393,-75,ls),
(398.93,-74.88,o),
(406.13,-73.69,o),
(414.61,-71.41,cs),
(435.96,-65.26,o),
(447.09,-59.45,o),
(448,-54,c),
(448,174,l),
(546,174,ls),
(560.17,174.38,o),
(569.17,179.72,o),
(573,190,c),
(501,252,l),
(465,204,l)
);
},
{
closed = 1;
nodes = (
(200.38,515.92,o),
(212.71,510.59,o),
(226,510,cs),
(228.87,510.07,o),
(231.99,510.43,o),
(235.36,511.08,cs),
(253.12,515.34,o),
(262,527.31,o),
(262,547,cs),
(261.57,572.74,o),
(245.23,598.41,o),
(213,624,cs),
(184.24,646.82,o),
(150.91,665.82,o),
(113,681,c),
(102,670,l),
(124.03,648.93,o),
(141.37,628.59,o),
(154,609,cs),
(172.42,580.39,o),
(184.09,552.72,o),
(189,526,c)
);
},
{
closed = 1;
nodes = (
(860,206,l),
(843,206,l),
(824.3,91.97,o),
(810.97,25.64,o),
(803,7,cs),
(798.52,-3.06,o),
(791.19,-10.39,o),
(781,-15,c),
(769.78,-16.31,o),
(740.11,-16.98,o),
(692,-17,cs),
(685.75,-16.94,o),
(680.12,-16.42,o),
(675.11,-15.42,cs),
(663.04,-12.57,o),
(657,-2.77,o),
(657,14,cs),
(657,270,l),
(737.55,303.44,o),
(801.22,351.44,o),
(848,414,c),
(855.07,412.8,o),
(860.07,412.13,o),
(863,412,cs),
(873.17,412.38,o),
(880.84,416.71,o),
(886,425,c),
(810,485,l),
(776.16,409.21,o),
(725.16,345.21,o),
(657,293,c),
(657,639,l),
(678.09,642.81,o),
(690.42,652.15,o),
(694,667,c),
(590,679,l),
(590,-3,ls),
(590.1,-21.21,o),
(592.74,-35.55,o),
(597.92,-46,cs),
(608.33,-65.33,o),
(637.35,-75,o),
(685,-75,cs),
(783.81,-74.98,o),
(845.36,-71.49,o),
(869.66,-64.53,cs),
(887.89,-59.06,o),
(897,-47.88,o),
(897,-31,cs),
(896.02,-19.71,o),
(884.02,-10.04,o),
(861,-2,c)
);
},
{
closed = 1;
nodes = (
(248,353,l),
(383,353,l),
(383,204,l),
(248,204,l)
);
}
);
vertWidth = 976;
width = 1000;
}
);
note = u17008;
unicode = 94216;
}
{
glyphname = u17009;
layers = (
{
hints = (
{
horizontal = 1;
place = (-75,58);
type = Stem;
},
{
horizontal = 1;
place = (448,30);
type = Stem;
},
{
horizontal = 1;
place = (594,30);
type = Stem;
},
{
horizontal = 1;
place = (729,30);
type = Stem;
},
{
place = (578,67);
type = Stem;
},
{
place = (855,16);
type = Stem;
},
{
place = (419,68);
type = Stem;
},
{
place = (438,58);
type = Stem;
}
);
layerId = "CB7FBE56-FAF0-4485-826E-02FDEC4040B6";
shapes = (
{
closed = 1;
nodes = (
(797,759,l),
(62,759,l),
(71,729,l),
(913,729,ls),
(927.17,729.38,o),
(936.17,734.72,o),
(940,745,c),
(847,824,l)
);
},
{
closed = 1;
nodes = (
(871,202,l),
(855,202,l),
(836.66,93.61,o),
(823,28.61,o),
(814,7,cs),
(809.38,-3.41,o),
(801.71,-10.41,o),
(791,-14,cs),
(782.56,-15.96,o),
(746.89,-16.96,o),
(684,-17,cs),
(676.99,-16.95,o),
(670.73,-16.41,o),
(665.21,-15.39,cs),
(651.74,-12.49,o),
(645,-2.69,o),
(645,14,cs),
(645,268,l),
(736.75,305.12,o),
(806.75,357.79,o),
(855,426,c),
(862.07,424.8,o),
(867.07,424.13,o),
(870,424,cs),
(880.17,424.38,o),
(887.84,428.71,o),
(893,437,c),
(817,497,l),
(778.88,413.57,o),
(721.55,344.23,o),
(645,289,c),
(645,639,l),
(666.09,642.81,o),
(678.42,652.15,o),
(682,667,c),
(578,679,l),
(578,-1,ls),
(578.11,-22.84,o),
(581.54,-39.11,o),
(588.32,-49.8,cs),
(599.92,-66.6,o),
(632.14,-75,o),
(685,-75,cs),
(792.27,-74.98,o),
(858.25,-71.09,o),
(882.93,-63.34,cs),
(899.65,-57.83,o),
(908,-46.72,o),
(908,-30,c),
(906.22,-20.6,o),
(894.22,-11.27,o),
(872,-2,c)
);
},
{
closed = 1;
nodes = (
(118,624,l),
(127,594,l),
(419,594,l),
(419,478,l),
(113,478,l),
(122,448,l),
(269,448,l),
(234.75,359.67,o),
(189.75,279.34,o),
(134,207,c),
(180.95,184.42,o),
(226.29,157.08,o),
(270,125,c),
(210.88,50.06,o),
(145.54,-12.28,o),
(74,-62,c),
(84,-76,l),
(172,-31,o),
(249,24,o),
(315,89,c),
(376.99,35.33,o),
(417.99,-18.34,o),
(438,-72,c),
(446.13,-76.91,o),
(453.8,-79.57,o),
(461,-80,cs),
(463.55,-79.69,o),
(466.35,-79.06,o),
(469.4,-78.1,cs),
(488.93,-70.82,o),
(497.79,-51.45,o),
(496,-20,cs),
(493.46,22.7,o),
(446.13,72.7,o),
(354,130,c),
(389.45,169.21,o),
(424.45,216.21,o),
(459,271,c),
(464.92,269.82,o),
(469.25,269.15,o),
(472,269,cs),
(482.83,269.28,o),
(491.16,273.28,o),
(497,281,c),
(400,333,l),
(369,271,o),
(335,214,o),
(298,162,c),
(263.03,181.27,o),
(225.03,199.27,o),
(184,216,c),
(187.39,218.83,o),
(191.06,221.95,o),
(195.01,225.36,cs),
(247.52,271,o),
(293.85,330.88,o),
(334,405,c),
(335.04,404.93,o),
(337.04,404.65,o),
(340,404.15,cs),
(343.8,403.38,o),
(346.8,403,o),
(349,403,cs),
(362.4,402.54,o),
(371.4,406.2,o),
(376,414,c),
(300,448,l),
(419,448,l),
(419,412,l),
(430,412,ls),
(437.34,412.15,o),
(446.04,413.95,o),
(456.09,417.4,cs),
(475.86,424.61,o),
(486.16,431.14,o),
(487,437,c),
(487,583,l),
(507.43,587.49,o),
(521.1,593.83,o),
(528,602,c),
(448,666,l),
(409,624,l)
);
}
);
vertWidth = 976;
width = 1000;
}
);
note = u17009;
unicode = 94217;
}
{
glyphname = u1700A;
layers = (
{
hints = (
{
horizontal = 1;
place = (208.34,30.66);
type = Stem;
},
{
horizontal = 1;
place = (304,30);
type = Stem;
},
{
horizontal = 1;
place = (359,30);
type = Stem;
},
{
horizontal = 1;
place = (498,30);
type = Stem;
},
{
horizontal = 1;
place = (587,30);
type = Stem;
},
{
horizontal = 1;
place = (729,30);
type = Stem;
},
{
place = (230,63);
type = Stem;
},
{
place = (758,65);
type = Stem;
},
{
place = (580,62.91);
type = Stem;
},
{
place = (548,65);
type = Stem;
}
);
layerId = "CB7FBE56-FAF0-4485-826E-02FDEC4040B6";
shapes = (
{
closed = 1;
nodes = (
(797,759,l),
(62,759,l),
(71,729,l),
(913,729,ls),
(927.17,729.38,o),
(936.17,734.72,o),
(940,745,c),
(847,824,l)
);
},
{
closed = 1;
nodes = (
(585,334,l),
(871,478,l),
(889.7,478.92,o),
(903.03,483.26,o),
(911,491,c),
(821,565,l),
(791,528,l),
(713,528,l),
(754.09,561.64,o),
(790.75,597.98,o),
(823,637,c),
(840,635.11,o),
(853,640.44,o),
(862,653,c),
(760,686,l),
(733.76,627.06,o),
(707.42,574.39,o),
(681,528,c),
(488,528,l),
(497,498,l),
(784,498,l),
(512,355,l),
(490.88,350.69,o),
(472.88,344.69,o),
(458,337,c),
(514,283,l),
(539,304,l),
(908,304,ls),
(922.17,304.38,o),
(931.17,309.72,o),
(935,320,c),
(851,391,l),
(808,334,l)
);
},
{
closed = 1;
nodes = (
(522,675,l),
(553.82,640.44,o),
(573.15,603.78,o),
(580,565,c),
(598.48,549.69,o),
(615.36,547.65,o),
(630.62,558.87,cs),
(646.15,570.29,o),
(650.25,586.77,o),
(642.91,608.32,cs),
(631.23,642.61,o),
(594.6,666.83,o),
(533,680.99,c)
);
},
{
closed = 1;
nodes = (
(460,358.99,ls),
(474.17,359.37,o),
(483.17,364.71,o),
(487,374.99,c),
(410,441.99,l),
(371,388.99,l),
(293,388.99,l),
(293,586.99,l),
(420,586.99,ls),
(434.17,587.37,o),
(443.17,592.71,o),
(447,602.99,c),
(369,668.99,l),
(330,616.99,l),
(105,616.99,l),
(114,586.99,l),
(230,586.99,l),
(230,388.99,l),
(82,388.99,l),
(91,358.99,l),
(230,358.99,l),
(230,-75.01,l),
(240,-75.01,ls),
(245.76,-74.89,o),
(252.64,-73.75,o),
(260.65,-71.57,cs),
(281.27,-65.51,o),
(292.06,-59.66,o),
(293,-54.01,c),
(293,358.99,l)
);
},
{
closed = 1;
nodes = (
(548,177.99,ls),
(547.99,164.65,o),
(547.85,152.51,o),
(547.56,141.58,cs),
(545,51.12,o),
(523.82,-18.75,o),
(484,-68.01,c),
(497,-80.01,l),
(515.34,-65.04,o),
(532.23,-47.49,o),
(547.67,-27.35,cs),
(591.22,30.54,o),
(613,93.65,o),
(613,161.99,cs),
(613,207.99,l),
(613.36,208.05,o),
(614.05,208.16,o),
(615.07,208.33,cs),
(634.97,211.85,o),
(646.62,222.07,o),
(650,238.99,c),
(548,250.99,l)
);
},
{
closed = 1;
nodes = (
(768,-77.01,ls),
(773.93,-76.89,o),
(781.13,-75.7,o),
(789.61,-73.42,cs),
(810.96,-67.27,o),
(822.09,-61.46,o),
(823,-56.01,c),
(823,205.99,l),
(842.52,209.64,o),
(854.52,218.97,o),
(859,233.99,c),
(758,244.99,l),
(758,-77.01,l)
);
}
);
vertWidth = 976;
width = 1000;
}
);
note = u1700A;
unicode = 94218;
}
{
glyphname = u1700B;
layers = (
{
hints = (
{
horizontal = 1;
place = (-75,58);
type = Stem;
},
{
horizontal = 1;
place = (482,30);
type = Stem;
},
{
horizontal = 1;
place = (729,30);
type = Stem;
},
{
place = (183,63);
type = Stem;
},
{
place = (389,65);
type = Stem;
},
{
place = (681,69);
type = Stem;
},
{
place = (870,16);
type = Stem;
},
{
horizontal = 1;
place = (615,30);
type = Stem;
},
{
place = (555,68);
type = Stem;
},
{
horizontal = 1;
place = (362,30);
type = Stem;
},
{
horizontal = 1;
place = (608,30);
type = Stem;
},
{
horizontal = 1;
place = (352,30);
type = Stem;
},
{
place = (529,65);
type = Stem;
}
);
layerId = "CB7FBE56-FAF0-4485-826E-02FDEC4040B6";
shapes = (
{
closed = 1;
nodes = (
(797,759,l),
(62,759,l),
(71,729,l),
(913,729,ls),
(927.17,729.38,o),
(936.17,734.72,o),
(940,745,c),
(847,824,l)
);
},
{
closed = 1;
nodes = (
(376,645,l),
(385,615,l),
(555,615,l),
(555,512,l),
(371,512,l),
(380,482,l),
(555,482,l),
(555,446,l),
(566,446,ls),
(573.34,446.15,o),
(582.04,447.95,o),
(592.09,451.4,cs),
(611.86,458.61,o),
(622.16,465.14,o),
(623,471,c),
(623,604,l),
(643.43,608.49,o),
(657.1,614.83,o),
(664,623,c),
(584,687,l),
(545,645,l)
);
},
{
closed = 1;
nodes = (
(886,223,l),
(870,223,l),
(851.44,99.68,o),
(838.1,27.68,o),
(830,7,cs),
(825.15,-4.38,o),
(818.49,-12.05,o),
(810,-16,c),
(806.31,-16.62,o),
(792.64,-16.95,o),
(769,-17,cs),
(766.75,-16.94,o),
(764.38,-16.68,o),
(761.89,-16.22,cs),
(753.96,-14.16,o),
(750,-4.09,o),
(750,14,cs),
(750,646,l),
(771.09,649.81,o),
(783.42,659.15,o),
(787,674,c),
(681,687,l),
(681,-3,ls),
(681.1,-20.99,o),
(683.66,-35.21,o),
(688.67,-45.67,cs),
(698.86,-65.23,o),
(727.3,-75,o),
(774,-75,cs),
(822,-74.97,o),
(856.69,-73.1,o),
(878.06,-69.39,cs),
(908.69,-63.84,o),
(924,-51.04,o),
(924,-31,cs),
(923.03,-19.61,o),
(910.7,-9.94,o),
(887,-2,c)
);
},
{
closed = 1;
nodes = (
(246,392,l),
(246,608,l),
(323,608,ls),
(337.17,608.38,o),
(346.17,613.72,o),
(350,624,c),
(282,683,l),
(248,638,l),
(99,638,l),
(108,608,l),
(183,608,l),
(183,392,l),
(83,392,l),
(92,362,l),
(183,362,l),
(183,-75,l),
(193,-75,ls),
(198.76,-74.88,o),
(205.64,-73.74,o),
(213.65,-71.56,cs),
(234.27,-65.5,o),
(245.06,-59.65,o),
(246,-54,c),
(246,362,l),
(345,362,ls),
(359.17,362.38,o),
(368.17,367.72,o),
(372,378,c),
(304,437,l),
(271,392,l)
);
},
{
closed = 1;
nodes = (
(465,382,l),
(402,409,l),
(389,415,l),
(389,-70,l),
(399,-70,ls),
(404.93,-69.88,o),
(412.13,-68.69,o),
(420.61,-66.41,cs),
(441.96,-60.26,o),
(453.09,-54.45,o),
(454,-49,c),
(454,352,l),
(529,352,l),
(529,-75,l),
(539,-75,ls),
(544.93,-74.88,o),
(552.13,-73.69,o),
(560.61,-71.41,cs),
(581.96,-65.26,o),
(593.09,-59.45,o),
(594,-54,c),
(594,341,l),
(611.95,345,o),
(625.61,351.33,o),
(635,360,c),
(554,421,l),
(518,382,l)
);
}
);
vertWidth = 976;
width = 1000;
}
);
note = u1700B;
unicode = 94219;
}
{
glyphname = u1700C;
layers = (
{
hints = (
{
horizontal = 1;
place = (517, 16);
type = Stem;
},
{
horizontal = 1;
place = (729, 30);
type = Stem;
},
{
place = (379, 62);
type = Stem;
},
{
horizontal = 1;
place = (594, 30);
type = Stem;
},
{
horizontal = 1;
place = (578, 30);
type = Stem;
}
);
layerId = "CB7FBE56-FAF0-4485-826E-02FDEC4040B6";
shapes = (
{
closed = 1;
nodes = (
(797,759,l),
(62,759,l),
(71,729,l),
(913,729,ls),
(927.17,729.38,o),
(936.17,734.72,o),
(940,745,c),
(847,824,l)
);
},
{
closed = 1;
nodes = (
(814,689,l),
(764,624,l),
(511,624,l),
(520,594,l),
(880,594,ls),
(894.17,594.38,o),
(903.17,599.72,o),
(907,610,c)
);
},
{
closed = 1;
nodes = (
(403,673,l),
(353,608,l),
(100,608,l),
(109,578,l),
(469,578,ls),
(483.17,578.38,o),
(492.17,583.72,o),
(496,594,c)
);
},
{
closed = 1;
nodes = (
(841,329,ls),
(851.06,329.38,o),
(859.4,334.05,o),
(866,343,c),
(763,385,l),
(733.41,308.65,o),
(699.41,239.32,o),
(661,177,c),
(622.86,214.26,o),
(590.86,252.59,o),
(565,292,c),
(626.02,354.11,o),
(675.69,428.77,o),
(714,516,c),
(719.2,516.01,o),
(723.2,516.34,o),
(726,517,cs),
(737.64,518.15,o),
(745.64,523.49,o),
(750,533,c),
(650,562,l),
(626.02,477.22,o),
(585.02,388.55,o),
(527,296,c),
(555.3,237.49,o),
(589.63,182.16,o),
(630,130,c),
(576.6,54.21,o),
(517.6,-9.79,o),
(453,-62,c),
(466,-75,l),
(541,-28,o),
(607,26,o),
(664,87,c),
(713,30,o),
(770,-25,o),
(835,-78,c),
(835.5,-77.13,o),
(836.21,-75.93,o),
(837.13,-74.4,cs),
(855.44,-44.64,o),
(879.4,-28.17,o),
(909,-25,c),
(912,-14,l),
(830.47,37.28,o),
(761.8,86.94,o),
(706,135,c),
(753.12,193.29,o),
(793.78,257.96,o),
(828,329,c)
);
},
{
closed = 1;
nodes = (
(468.9,322.16,o),
(476.9,326.83,o),
(482,335,c),
(381,379,l),
(354.79,315.08,o),
(324.12,254.08,o),
(289,196,c),
(249.22,225.24,o),
(209.55,250.58,o),
(170,272,c),
(235.88,333.5,o),
(289.88,408.5,o),
(332,497,c),
(343,495,ls),
(355.5,493.79,o),
(364.5,497.45,o),
(370,506,c),
(270,554,l),
(233.07,448.53,o),
(184.74,352.86,o),
(125,267,c),
(174.75,235.03,o),
(220.42,197.36,o),
(262,154,c),
(206.35,70.3,o),
(140.02,-2.03,o),
(63,-63,c),
(76,-76,l),
(161.62,-23.7,o),
(236.62,37.97,o),
(301,109,c),
(340.85,59.49,o),
(366.85,11.16,o),
(379,-36,c),
(385.2,-41.02,o),
(392.54,-44.35,o),
(401,-46,c),
(404.09,-45.9,o),
(407.42,-45.37,o),
(411,-44.39,cs),
(430.12,-38.01,o),
(440.12,-19.54,o),
(441,11,cs),
(442.27,49.89,o),
(408.61,98.23,o),
(340,156,c),
(380.15,207.32,o),
(415.15,262.65,o),
(445,322,c),
(448.07,321.48,o),
(452.4,321.14,o),
(458,321,cs)
);
}
);
vertWidth = 976;
width = 1000;
}
);
note = u1700C;
unicode = 94220;
}
{
glyphname = u1700D;
layers = (
{
hints = (
{
horizontal = 1;
place = (-75, 58);
type = Stem;
},
{
horizontal = 1;
place = (488, 29);
type = Stem;
},
{
horizontal = 1;
place = (729, 30);
type = Stem;
},
{
place = (113, 65);
type = Stem;
},
{
place = (302, 62.91);
type = Stem;
},
{
place = (514, 64);
type = Stem;
},
{
place = (645, 67);
type = Stem;
},
{
place = (876, 16);
type = Stem;
}
);
layerId = "CB7FBE56-FAF0-4485-826E-02FDEC4040B6";
shapes = (
{
closed = 1;
nodes = (
(797,759,l),
(62,759,l),
(71,729,l),
(913,729,ls),
(927.17,729.38,o),
(936.17,734.72,o),
(940,745,c),
(847,824,l)
);
},
{
closed = 1;
nodes = (
(380.52,225.49,o),
(342.19,253.49,o),
(302,279,c),
(420.34,338.91,o),
(503.34,406.25,o),
(551,481,c),
(569.7,481.92,o),
(583.03,486.26,o),
(591,494,c),
(504,556,l),
(473,517,l),
(414,517,l),
(456.01,554.7,o),
(493.34,594.7,o),
(526,637,c),
(543,635.11,o),
(556,640.44,o),
(565,653,c),
(463,686,l),
(436.52,622.08,o),
(410.85,565.75,o),
(386,517,c),
(237,517,l),
(246,488,l),
(473,488,l),
(422.21,406.23,o),
(331.21,326.23,o),
(200,248,c),
(208,235,l),
(281,268,l),
(320.24,233.83,o),
(356.24,197.49,o),
(389,159,c),
(315.42,70.74,o),
(230.09,-2.6,o),
(133,-61,c),
(143,-76,l),
(254.2,-22.39,o),
(348.2,40.28,o),
(425,112,c),
(467.72,53.8,o),
(497.39,-4.87,o),
(514,-64,c),
(525.35,-70.12,o),
(535.01,-73.79,o),
(543,-75,cs),
(545.35,-75.06,o),
(547.99,-74.87,o),
(550.92,-74.44,cs),
(568.13,-70.96,o),
(577.15,-57.82,o),
(578,-35,cs),
(580.21,15.64,o),
(542.54,78.31,o),
(465,153,c),
(505.79,196.97,o),
(541.79,244.64,o),
(573,296,c),
(577.98,294.53,o),
(582.98,294.19,o),
(588,295,cs),
(597.53,295.3,o),
(605.53,299.63,o),
(612,308,c),
(517,351,l),
(488.79,298.48,o),
(455.46,246.48,o),
(417,195,c)
);
},
{
closed = 1;
nodes = (
(244,675,l),
(275.82,640.44,o),
(295.15,603.78,o),
(302,565,c),
(320.48,549.69,o),
(337.36,547.65,o),
(352.62,558.87,cs),
(368.15,570.29,o),
(372.25,586.77,o),
(364.91,608.32,cs),
(353.23,642.61,o),
(316.6,666.83,o),
(255,680.99,c)
);
},
{
closed = 1;
nodes = (
(892,217.99,l),
(876,217.99,l),
(875.51,215.06,o),
(874.93,211.62,o),
(874.27,207.67,cs),
(854.8,90.19,o),
(841.71,23.3,o),
(835,6.99,cs),
(830.46,-3.39,o),
(823.13,-10.72,o),
(813,-15.01,c),
(804.46,-16.31,o),
(781.13,-16.98,o),
(743,-17.01,cs),
(737.5,-16.95,o),
(732.51,-16.43,o),
(728.01,-15.47,cs),
(717.34,-12.7,o),
(712,-2.88,o),
(712,13.99,cs),
(712,274.99,l),
(785.1,307.68,o),
(842.43,351.68,o),
(884,406.99,c),
(891.07,405.79,o),
(896.07,405.12,o),
(899,404.99,cs),
(909.17,405.37,o),
(916.84,409.7,o),
(922,417.99,c),
(846,476.99,l),
(817.67,410.52,o),
(773,351.52,o),
(712,299.99,c),
(712,638.99,l),
(733.09,642.8,o),
(745.42,652.14,o),
(749,666.99,c),
(645,678.99,l),
(645,-3.01,ls),
(645.1,-20.82,o),
(647.61,-34.93,o),
(652.53,-45.34,cs),
(662.7,-65.12,o),
(691.52,-75.01,o),
(739,-75.01,cs),
(822.34,-74.99,o),
(875.83,-71.89,o),
(899.45,-65.74,cs),
(919.82,-60.18,o),
(930,-48.61,o),
(930,-31.01,cs),
(929.03,-19.62,o),
(916.7,-9.95,o),
(893,-2.01,c)
);
},
{
closed = 1;
nodes = (
(178,593.99,l),
(197.52,597.64,o),
(209.52,606.97,o),
(214,621.99,c),
(113,632.99,l),
(113,6.99,l),
(123,6.99,ls),
(129.1,6.99,o),
(136.31,8.19,o),
(144.61,10.58,cs),
(165.96,16.73,o),
(177.09,22.54,o),
(178,27.99,c)
);
}
);
vertWidth = 976;
width = 1000;
}
);
note = u1700D;
unicode = 94221;
}
{
glyphname = u1700E;
layers = (
{
hints = (
{
horizontal = 1;
place = (160, 30);
type = Stem;
},
{
horizontal = 1;
place = (370, 30);
type = Stem;
},
{
horizontal = 1;
place = (577, 30);
type = Stem;
},
{
horizontal = 1;
place = (729, 30);
type = Stem;
},
{
place = (128, 65);
type = Stem;
},
{
place = (322, 65);
type = Stem;
},
{
place = (852, 67);
type = Stem;
}
);
layerId = "CB7FBE56-FAF0-4485-826E-02FDEC4040B6";
shapes = (
{
closed = 1;
nodes = (
(797,759,l),
(62,759,l),
(71,729,l),
(913,729,ls),
(927.17,729.38,o),
(936.17,734.72,o),
(940,745,c),
(847,824,l)
);
},
{
closed = 1;
nodes = (
(817.64,334.96,o),
(820.34,334.76,o),
(824.09,334.41,cs),
(826.49,334.14,o),
(828.12,334,o),
(829,334,cs),
(839.1,335.16,o),
(847.77,340.16,o),
(855,349,c),
(754,396,l),
(731.83,328.67,o),
(705.5,266.33,o),
(675,209,c),
(633.8,254.15,o),
(599.13,299.82,o),
(571,346,c),
(630.55,419.21,o),
(681.88,517.21,o),
(725,640,c),
(725.75,639.81,ls),
(730.59,638.6,o),
(736,638.33,o),
(742,639,cs),
(752.75,640.46,o),
(760.08,646.12,o),
(764,656,c),
(661,694,l),
(625.21,557.08,o),
(583.54,441.41,o),
(536,347,c),
(562.73,284.86,o),
(599.39,220.86,o),
(646,155,c),
(596.02,71.28,o),
(537.02,-1.72,o),
(469,-64,c),
(483,-76,l),
(557.82,-23.38,o),
(623.82,37.95,o),
(681,108,c),
(733.81,40.24,o),
(792.81,-22.1,o),
(858,-79,c),
(859.55,-74.88,o),
(861.5,-70.56,o),
(863.85,-66.03,cs),
(879.37,-37.59,o),
(901.76,-22.91,o),
(931,-22,c),
(934,-11,l),
(854.65,42.32,o),
(783.65,99.66,o),
(721,161,c),
(757.09,213.81,o),
(788.76,271.81,o),
(816,335,c)
);
},
{
closed = 1;
nodes = (
(536,160,ls),
(550.17,160.38,o),
(559.17,165.72,o),
(563,176,c),
(482,244,l),
(441,190,l),
(387,190,l),
(387,370,l),
(516,370,ls),
(530.17,370.38,o),
(539.17,375.72,o),
(543,386,c),
(462,454,l),
(421,400,l),
(387,400,l),
(387,566,l),
(404.95,570,o),
(418.61,576.33,o),
(428,585,c),
(347,646,l),
(311,607,l),
(204,607,l),
(146,632,l),
(128,640,l),
(128,-74,l),
(138,-74,ls),
(143.93,-73.88,o),
(151.13,-72.69,o),
(159.61,-70.41,cs),
(180.96,-64.26,o),
(192.09,-58.45,o),
(193,-53,c),
(193,160,l),
(322,160,l),
(322,-75,l),
(332,-75,ls),
(337.93,-74.88,o),
(345.13,-73.69,o),
(353.61,-71.41,cs),
(374.96,-65.26,o),
(386.09,-59.45,o),
(387,-54,c),
(387,160,l)
);
},
{
closed = 1;
nodes = (
(322,400,l),
(193,400,l),
(193,577,l),
(322,577,l)
);
},
{
closed = 1;
nodes = (
(862.27,397.89,o),
(872.94,393.55,o),
(884,393,cs),
(886.26,393.06,o),
(888.8,393.29,o),
(891.61,393.72,cs),
(909.87,397.29,o),
(919,409.71,o),
(919,431,cs),
(918.61,456.18,o),
(902.94,481.84,o),
(872,508,cs),
(843.49,530.82,o),
(808.49,551.48,o),
(767,570,c),
(757,559,l),
(759.03,557.08,o),
(761.35,554.85,o),
(763.98,552.31,cs),
(807.26,510.04,o),
(836.6,461.27,o),
(852,406,c)
);
},
{
closed = 1;
nodes = (
(193,370,l),
(322,370,l),
(322,190,l),
(193,190,l)
);
}
);
vertWidth = 976;
width = 1000;
}
);
note = u1700E;
unicode = 94222;
}
{
glyphname = u1700F;
layers = (
{
hints = (
{
horizontal = 1;
place = (-75,58);
type = Stem;
},
{
horizontal = 1;
place = (-11,21);
target = up;
type = BottomGhost;
},
{
horizontal = 1;
place = (379,19);
type = Stem;
},
{
horizontal = 1;
place = (477,15);
type = Stem;
},
{
horizontal = 1;
place = (583,30);
type = Stem;
},
{
horizontal = 1;
place = (729,30);
type = Stem;
},
{
place = (98,65);
type = Stem;
},
{
place = (263,65);
type = Stem;
},
{
place = (562,61);
type = Stem;
},
{
place = (664,67);
type = Stem;
},
{
place = (863,17);
type = Stem;
}
);
layerId = "CB7FBE56-FAF0-4485-826E-02FDEC4040B6";
shapes = (
{
closed = 1;
nodes = (
(797,759,l),
(62,759,l),
(71,729,l),
(913,729,ls),
(927.17,729.38,o),
(936.17,734.72,o),
(940,745,c),
(847,824,l)
);
},
{
closed = 1;
nodes = (
(880,177,l),
(863,177,l),
(848.49,85.13,o),
(836.83,28.8,o),
(828,8,cs),
(823.18,-3.13,o),
(816.18,-10.8,o),
(807,-15,c),
(801.46,-16.29,o),
(784.46,-16.96,o),
(756,-17,cs),
(753.09,-16.95,o),
(750.13,-16.69,o),
(747.11,-16.22,cs),
(736.37,-14.02,o),
(731,-3.95,o),
(731,14,cs),
(731,213,l),
(792.5,241.27,o),
(840.16,273.94,o),
(874,311,c),
(881.07,309.8,o),
(886.07,309.13,o),
(889,309,cs),
(899.17,309.38,o),
(906.84,313.71,o),
(912,322,c),
(835,379,l),
(810.05,327.42,o),
(775.38,281.76,o),
(731,242,c),
(731,494,l),
(752.09,497.81,o),
(764.42,507.15,o),
(768,522,c),
(696,530,l),
(747.68,556.82,o),
(803.01,595.15,o),
(862,645,c),
(868.41,641.43,o),
(874.41,639.43,o),
(880,639,cs),
(888.63,638.2,o),
(896.63,641.53,o),
(904,649,c),
(823,707,l),
(730.23,603.15,o),
(636.89,531.49,o),
(543,492,c),
(549,477,l),
(587.49,485.52,o),
(625.82,498.19,o),
(664,515,c),
(664,2,ls),
(664.12,-25.44,o),
(669.16,-44.51,o),
(679.12,-55.22,cs),
(692.6,-68.41,o),
(729.22,-75,o),
(789,-75,cs),
(823.42,-74.96,o),
(849.93,-73.3,o),
(868.55,-70,cs),
(899.52,-64.25,o),
(915,-50.58,o),
(915,-29,c),
(913.28,-20.55,o),
(901.95,-11.55,o),
(881,-2,c)
);
},
{
closed = 1;
nodes = (
(450.31,271.7,o),
(422.64,298.03,o),
(397,320,c),
(457.95,410.66,o),
(505.95,514.99,o),
(541,633,c),
(543.99,632.48,o),
(548.32,632.14,o),
(554,632,cs),
(565.5,632.32,o),
(573.83,636.99,o),
(579,646,c),
(477,683,l),
(446.22,544.78,o),
(406.88,422.11,o),
(359,315,c),
(395.37,277.49,o),
(428.71,235.15,o),
(459,188,c),
(420.71,94.07,o),
(369.71,9.4,o),
(306,-66,c),
(321,-77,l),
(389.72,-14.1,o),
(447.05,54.56,o),
(493,129,c),
(529.22,60.61,o),
(552.22,-5.06,o),
(562,-68,c),
(569.65,-73.49,o),
(577.32,-76.49,o),
(585,-77,cs),
(588.02,-76.9,o),
(591.27,-76.36,o),
(594.77,-75.38,cs),
(613.59,-68.88,o),
(623,-50.09,o),
(623,-19,cs),
(622.63,37.08,o),
(590.29,105.75,o),
(526,187,c),
(557.81,248.72,o),
(582.47,312.39,o),
(600,378,c),
(601.64,378.04,o),
(604.34,378.24,o),
(608.09,378.59,cs),
(610.49,378.86,o),
(612.12,379,o),
(613,379,cs),
(623.3,381.05,o),
(631.3,387.39,o),
(637,398,c),
(531,431,l),
(518.17,365.13,o),
(501.17,301.8,o),
(480,241,c)
);
},
{
closed = 1;
nodes = (
(328,572,l),
(345.95,576,o),
(359.61,582.33,o),
(369,591,c),
(288,652,l),
(252,613,l),
(174,613,l),
(111,640,l),
(98,646,l),
(98,-71,l),
(108,-71,ls),
(113.93,-70.88,o),
(121.13,-69.69,o),
(129.61,-67.41,cs),
(150.96,-61.26,o),
(162.09,-55.45,o),
(163,-50,c),
(163,583,l),
(263,583,l),
(263,-11,l),
(273,-11,ls),
(279.1,-11,o),
(286.31,-9.8,o),
(294.61,-7.41,cs),
(315.96,-1.26,o),
(327.09,4.55,o),
(328,10,c)
);
}
);
vertWidth = 976;
width = 1000;
}
);
note = u1700F;
unicode = 94223;
}
{
glyphname = u17010;
layers = (
{
hints = (
{
horizontal = 1;
place = (-81,56);
type = Stem;
},
{
horizontal = 1;
place = (265,30);
type = Stem;
},
{
horizontal = 1;
place = (524,21);
target = up;
type = BottomGhost;
},
{
horizontal = 1;
place = (587,30);
type = Stem;
},
{
horizontal = 1;
place = (729,30);
type = Stem;
},
{
place = (347,62);
type = Stem;
},
{
place = (544,63);
type = Stem;
},
{
place = (720,63);
type = Stem;
},
{
place = (896,16);
type = Stem;
},
{
horizontal = 1;
place = (368,30);
type = Stem;
},
{
horizontal = 1;
place = (369,16);
type = Stem;
},
{
place = (191,75);
type = Stem;
},
{
place = (161,90);
type = Stem;
}
);
layerId = "CB7FBE56-FAF0-4485-826E-02FDEC4040B6";
shapes = (
{
closed = 1;
nodes = (
(906,729,ls),
(920.17,729.38,o),
(929.17,734.72,o),
(933,745,c),
(840,824,l),
(790,759,l),
(62,759,l),
(71,729,l)
);
},
{
closed = 1;
nodes = (
(503,368,ls),
(517.17,368.38,o),
(526.17,373.72,o),
(530,384,c),
(459,445,l),
(424,398,l),
(409,398,l),
(409,487,l),
(427.39,490.72,o),
(438.72,499.72,o),
(443,514,c),
(362,523,l),
(401.78,556.11,o),
(438.78,593.78,o),
(473,636,c),
(479,634,o),
(484,633,o),
(488,633,cs),
(497.22,633.37,o),
(504.89,637.71,o),
(511,646,c),
(420,700,l),
(402.09,668.94,o),
(381.26,638.56,o),
(357.52,608.86,cs),
(276.98,508.75,o),
(179.81,434.13,o),
(66,385,c),
(74,369,l),
(172.01,398.46,o),
(263.01,445.79,o),
(347,511,c),
(347,398,l),
(187,398,l),
(196,368,l),
(347,368,l),
(347,-75,l),
(357,-75,ls),
(362.6,-74.88,o),
(369.4,-73.69,o),
(377.39,-71.44,cs),
(397.55,-65.31,o),
(408.08,-59.5,o),
(409,-54,c),
(409,368,l)
);
},
{
closed = 1;
nodes = (
(109,684,l),
(128.74,664.09,o),
(145.08,643.75,o),
(158,623,cs),
(174.62,597.12,o),
(185.62,570.12,o),
(191,542,c),
(202.73,530.64,o),
(215.06,524.64,o),
(228,524,cs),
(231.48,524.08,o),
(235.18,524.58,o),
(239.12,525.48,cs),
(257.04,530.45,o),
(266,542.62,o),
(266,562,cs),
(265.6,587.39,o),
(249.93,612.73,o),
(219,638,cs),
(192.4,659.09,o),
(159.4,677.75,o),
(120,694,c)
);
},
{
closed = 1;
nodes = (
(912,174,l),
(896,174,l),
(881.72,83.34,o),
(869.72,25.34,o),
(860,0,cs),
(855.83,-9.62,o),
(849.83,-16.62,o),
(842,-21,cs),
(833.04,-24.78,o),
(817.7,-26.11,o),
(796,-25,cs),
(793.85,-24.59,o),
(791.65,-23.89,o),
(789.42,-22.88,cs),
(785.14,-20.28,o),
(783,-8.98,o),
(783,11,cs),
(783,265,l),
(900,265,ls),
(914.17,265.38,o),
(923.17,270.72,o),
(927,281,c),
(848,349,l),
(807,295,l),
(783,295,l),
(783,576,l),
(800.95,580,o),
(814.61,586.33,o),
(824,595,c),
(745,655,l),
(709,617,l),
(618,617,l),
(569,639,l),
(544,649,l),
(544,295,l),
(449,295,l),
(458,265,l),
(544,265,l),
(544,-77,l),
(554,-77,ls),
(559.76,-76.88,o),
(566.64,-75.74,o),
(574.65,-73.56,cs),
(595.27,-67.5,o),
(606.06,-61.65,o),
(607,-56,c),
(607,265,l),
(720,265,l),
(720,-13,ls),
(720.08,-32.42,o),
(722.61,-46.95,o),
(727.57,-56.61,cs),
(736.42,-72.28,o),
(761.9,-80.41,o),
(804,-81,cs),
(812.95,-81.16,o),
(822.37,-81.06,o),
(832.23,-80.68,cs),
(906.74,-77.58,o),
(944,-62.35,o),
(944,-35,c),
(942.68,-24.94,o),
(932.34,-14.6,o),
(913,-4,c)
);
},
{
closed = 1;
nodes = (
(607,587,l),
(720,587,l),
(720,295,l),
(607,295,l)
);
},
{
closed = 1;
nodes = (
(209.34,100.83,o),
(198.01,133.16,o),
(181,177,c),
(201.74,204.49,o),
(220.74,237.83,o),
(238,277,c),
(251,275.9,o),
(260.67,276.23,o),
(267,278,cs),
(275.05,280.62,o),
(281.38,284.95,o),
(286,291,c),
(189,347,l),
(159.06,250.72,o),
(116.73,164.05,o),
(62,87,c),
(73,73,l),
(105.76,99.02,o),
(130.76,121.35,o),
(148,140,c),
(156.51,94.3,o),
(160.84,56.96,o),
(161,28,cs),
(160.95,-14.5,o),
(157.95,-48.84,o),
(152,-75,c),
(161.83,-73.92,o),
(175.93,-67.47,o),
(194.3,-55.66,cs),
(226.59,-34.43,o),
(245.49,-15.54,o),
(251,1,c),
(249.64,13.04,o),
(251.64,29.71,o),
(257,51,cs),
(261.6,70.76,o),
(284.6,135.43,o),
(326,245,c),
(302,258,l),
(298.5,250.62,o),
(294.66,242.43,o),
(290.46,233.43,cs),
(249,144.41,o),
(223.85,93.27,o),
(215,80,c)
);
}
);
vertWidth = 976;
width = 1000;
}
);
note = u17010;
unicode = 94224;
}
{
glyphname = u17011;
layers = (
{
hints = (
{
horizontal = 1;
place = (-75,58);
type = Stem;
},
{
horizontal = 1;
place = (467,30);
type = Stem;
},
{
horizontal = 1;
place = (729,30);
type = Stem;
},
{
place = (203,61.18);
type = Stem;
},
{
place = (441,60);
type = Stem;
},
{
place = (578,67);
type = Stem;
},
{
place = (840,16);
type = Stem;
}
);
layerId = "CB7FBE56-FAF0-4485-826E-02FDEC4040B6";
shapes = (
{
closed = 1;
nodes = (
(797,759,l),
(62,759,l),
(71,729,l),
(913,729,ls),
(927.17,729.38,o),
(936.17,734.72,o),
(940,745,c),
(847,824,l)
);
},
{
closed = 1;
nodes = (
(324,497,l),
(371.6,543.65,o),
(415.6,594.32,o),
(456,649,c),
(473,647.11,o),
(486,652.44,o),
(495,665,c),
(393,700,l),
(366.23,635.54,o),
(333.57,567.87,o),
(295,497,c),
(92,497,l),
(101,467,l),
(516,467,ls),
(530.17,467.38,o),
(539.17,472.72,o),
(543,483,c),
(462,553,l),
(420,497,l)
);
},
{
closed = 1;
nodes = (
(134,689,l),
(172.44,646.31,o),
(195.44,604.31,o),
(203,563,c),
(221.67,547.49,o),
(238.44,545.43,o),
(253.29,556.85,cs),
(268.67,568.67,o),
(272.3,586.16,o),
(264.18,609.32,cs),
(250.92,647.12,o),
(211.19,675.68,o),
(145,695,c)
);
},
{
closed = 1;
nodes = (
(856,218,l),
(840,218,l),
(819.33,95.54,o),
(805.33,25.21,o),
(798,7,cs),
(793.38,-3.41,o),
(785.71,-10.41,o),
(775,-14,cs),
(767.5,-15.96,o),
(736.5,-16.96,o),
(682,-17,cs),
(675.87,-16.95,o),
(670.27,-16.48,o),
(665.21,-15.59,cs),
(651.74,-12.8,o),
(645,-2.93,o),
(645,14,cs),
(645,271,l),
(729.43,305.8,o),
(795.43,355.8,o),
(843,421,c),
(850.07,419.8,o),
(855.07,419.13,o),
(858,419,cs),
(868.17,419.38,o),
(875.84,423.71,o),
(881,432,c),
(806,492,l),
(770.27,413.43,o),
(716.61,347.43,o),
(645,294,c),
(645,642,l),
(666.09,645.81,o),
(678.42,655.15,o),
(682,670,c),
(578,682,l),
(578,-3,ls),
(578.1,-21.21,o),
(580.74,-35.55,o),
(585.92,-46,cs),
(596.33,-65.33,o),
(625.35,-75,o),
(673,-75,cs),
(779.11,-74.98,o),
(844.29,-71.28,o),
(868.54,-63.91,cs),
(885.51,-58.5,o),
(894,-47.53,o),
(894,-31,cs),
(893.03,-19.61,o),
(880.7,-9.94,o),
(857,-2,c)
);
},
{
closed = 1;
nodes = (
(485.86,262.87,o),
(495.53,266.54,o),
(505,275,c),
(412,337,l),
(377.45,270.11,o),
(341.45,211.11,o),
(304,160,c),
(256.47,187.61,o),
(216.13,209.28,o),
(183,225,c),
(243.61,266.3,o),
(299.28,322.3,o),
(350,393,c),
(357.07,391.8,o),
(362.07,391.13,o),
(365,391,cs),
(375.17,391.38,o),
(382.84,395.71,o),
(388,404,c),
(298,452,l),
(257.3,367.37,o),
(202.63,291.71,o),
(134,225,c),
(186.21,190.86,o),
(233.55,156.86,o),
(276,123,c),
(216.42,48.74,o),
(150.09,-12.92,o),
(77,-62,c),
(87,-77,l),
(175.2,-32.76,o),
(252.2,21.57,o),
(318,86,c),
(370.93,37.06,o),
(411.93,-13.27,o),
(441,-65,c),
(450.21,-71.19,o),
(459.87,-74.53,o),
(470,-75,cs),
(473.31,-74.88,o),
(476.84,-74.18,o),
(480.59,-72.9,cs),
(496.71,-66.21,o),
(503.51,-51.58,o),
(501,-29,cs),
(495.87,13.98,o),
(447.87,65.64,o),
(357,126,c),
(394.6,167.57,o),
(429.94,214.57,o),
(463,267,c),
(464.14,266.74,o),
(466.15,266.23,o),
(469.02,265.47,cs),
(472.49,264.49,o),
(474.82,264,o),
(476,264,cs)
);
}
);
vertWidth = 976;
width = 1000;
}
);
note = u17011;
unicode = 94225;
}
{
glyphname = u17012;
layers = (
{
hints = (
{
horizontal = 1;
place = (162, 16);
type = Stem;
},
{
horizontal = 1;
place = (335, 15);
type = Stem;
},
{
horizontal = 1;
place = (517, 29);
type = Stem;
},
{
horizontal = 1;
place = (727, 30);
type = Stem;
},
{
place = (197, 65.23);
type = Stem;
},
{
place = (459, 57);
type = Stem;
},
{
place = (579, 67);
type = Stem;
},
{
place = (854, 16);
type = Stem;
},
{
horizontal = 1;
place = (-75, 58);
type = Stem;
},
{
horizontal = 1;
place = (-70, 14);
type = Stem;
}
);
layerId = "CB7FBE56-FAF0-4485-826E-02FDEC4040B6";
shapes = (
{
closed = 1;
nodes = (
(797,757,l),
(62,757,l),
(71,727,l),
(913,727,ls),
(927.17,727.38,o),
(936.17,732.72,o),
(940,743,c),
(847,822,l)
);
},
{
closed = 1;
nodes = (
(110,335,l),
(146.28,345.49,o),
(175.01,354.09,o),
(196.16,360.79,cs),
(325.07,401.74,o),
(416.02,451.48,o),
(469,510,c),
(487.7,510.92,o),
(501.03,515.26,o),
(509,523,c),
(417,586,l),
(386,546,l),
(318,546,l),
(372.89,578.57,o),
(420.55,612.57,o),
(461,648,c),
(478.64,646.03,o),
(491.98,651.36,o),
(501,664,c),
(398,696,l),
(361.38,636.61,o),
(326.04,586.61,o),
(292,546,c),
(116,546,l),
(125,517,l),
(386,517,l),
(325.01,456.32,o),
(230.68,400.66,o),
(103,350,c)
);
},
{
closed = 1;
nodes = (
(870,218,l),
(854,218,l),
(833.33,95.54,o),
(819.33,25.21,o),
(812,7,cs),
(807.38,-3.28,o),
(799.38,-10.28,o),
(788,-14,cs),
(779.52,-15.96,o),
(745.19,-16.96,o),
(685,-17,cs),
(677.99,-16.95,o),
(671.73,-16.41,o),
(666.21,-15.39,cs),
(652.74,-12.49,o),
(646,-2.69,o),
(646,14,cs),
(646,270,l),
(735.51,306.23,o),
(805.18,358.89,o),
(855,428,c),
(862.07,426.8,o),
(867.07,426.13,o),
(870,426,cs),
(880.17,426.38,o),
(887.84,430.71,o),
(893,439,c),
(818,500,l),
(780.43,415.88,o),
(723.1,346.55,o),
(646,292,c),
(646,644,l),
(667.09,647.81,o),
(679.42,657.15,o),
(683,672,c),
(579,684,l),
(579,-3,ls),
(579.1,-21.04,o),
(581.69,-35.26,o),
(586.78,-45.67,cs),
(597.17,-65.23,o),
(626.58,-75,o),
(675,-75,cs),
(789.5,-74.98,o),
(859.03,-71.14,o),
(883.59,-63.48,cs),
(899.86,-58.15,o),
(908,-47.33,o),
(908,-31,cs),
(907.03,-19.61,o),
(894.7,-9.94,o),
(871,-2,c)
);
},
{
closed = 1;
nodes = (
(150,672,l),
(175.58,643.7,o),
(191.24,612.04,o),
(197,577,c),
(215.58,561.37,o),
(232.81,559.26,o),
(248.69,570.65,cs),
(263.69,581.41,o),
(268.2,596.47,o),
(262.22,615.82,cs),
(252.48,647.36,o),
(218.4,668.08,o),
(159.99,677.99,c)
);
},
{
closed = 1;
nodes = (
(419.99,143.99,o),
(446.99,181.99,o),
(468.99,223.99,c),
(473.99,221.99,o),
(478.99,220.99,o),
(483.99,220.99,cs),
(493.99,219.99,o),
(501.99,223.99,o),
(507.99,232.99,c),
(424.99,277.99,l),
(401.99,225.99,o),
(373.99,178.99,o),
(340.99,136.99,c),
(295.58,160.67,o),
(250.58,180.67,o),
(205.99,196.99,c),
(294.68,234.79,o),
(382.68,294.46,o),
(469.99,375.99,c),
(477.93,372.97,o),
(484.27,371.3,o),
(488.99,370.99,cs),
(496.52,371.32,o),
(503.19,375.32,o),
(508.99,382.99,c),
(425.99,426.99,l),
(423.19,423.79,o),
(420.09,420.27,o),
(416.67,416.43,cs),
(313.25,300.61,o),
(206.35,221.13,o),
(95.99,177.99,c),
(102.99,161.99,l),
(127.33,168.58,o),
(152.67,176.58,o),
(178.99,185.99,c),
(225.14,161.3,o),
(268.8,132.97,o),
(309.99,100.99,c),
(247.38,32.59,o),
(171.71,-19.75,o),
(82.99,-56.01,c),
(91.99,-70.01,l),
(193.75,-37.87,o),
(278.75,8.46,o),
(346.99,68.99,c),
(396.91,24.08,o),
(434.25,-22.25,o),
(458.99,-70.01,c),
(468.64,-74.17,o),
(478.98,-75.84,o),
(489.99,-75.01,cs),
(491.72,-74.69,o),
(493.74,-74.18,o),
(496.05,-73.5,cs),
(513.9,-67.28,o),
(520.54,-52.78,o),
(515.99,-30.01,cs),
(508.31,13.59,o),
(465.64,60.26,o),
(387.99,109.99,c)
);
}
);
vertWidth = 976;
width = 1000;
}
);
note = u17012;
unicode = 94226;
}
{
glyphname = u17013;
layers = (
{
hints = (
{
horizontal = 1;
place = (13, 30);
type = Stem;
},
{
horizontal = 1;
place = (119, 30);
type = Stem;
},
{
horizontal = 1;
place = (226, 30);
type = Stem;
},
{
horizontal = 1;
place = (332, 30);
type = Stem;
},
{
horizontal = 1;
place = (448, 30);
type = Stem;
},
{
horizontal = 1;
place = (544, 14);
type = Stem;
},
{
horizontal = 1;
place = (624, 30);
type = Stem;
},
{
horizontal = 1;
place = (729, 30);
type = Stem;
},
{
place = (226, 107);
type = Stem;
},
{
place = (472, 65);
type = Stem;
},
{
place = (759, 65);
type = Stem;
}
);
layerId = "CB7FBE56-FAF0-4485-826E-02FDEC4040B6";
shapes = (
{
closed = 1;
nodes = (
(847,824,l),
(797,759,l),
(62,759,l),
(71,729,l),
(913,729,ls),
(927.17,729.38,o),
(936.17,734.72,o),
(940,745,c)
);
},
{
closed = 1;
nodes = (
(935,486.51,o),
(905.33,509.17,o),
(855,529,cs),
(816.93,543.03,o),
(772.27,552.7,o),
(721,558,c),
(715,544,l),
(759.94,524.93,o),
(797.94,502.93,o),
(829,478,c),
(600,478,l),
(601.2,484.07,o),
(601.54,489.4,o),
(601,494,cs),
(597.92,508.43,o),
(590.59,519.76,o),
(579,528,cs),
(568.75,535.01,o),
(554.75,543.01,o),
(537,552,c),
(743,604,l),
(761.7,604.92,o),
(775.03,609.26,o),
(783,617,c),
(680,696,l),
(644,654,l),
(156,654,l),
(165,624,l),
(612,624,l),
(126,499,ls),
(104.88,494.69,o),
(86.88,488.69,o),
(72,481,c),
(128,427,l),
(153,448,l),
(861,448,l),
(867.42,441.5,o),
(876.75,430.84,o),
(889,416,c),
(900.98,411.64,o),
(912.31,410.98,o),
(923,414,cs),
(925.02,414.7,o),
(927.29,415.67,o),
(929.82,416.91,cs),
(946.59,426.18,o),
(951.32,440.88,o),
(944,461,cs)
);
},
{
closed = 1;
nodes = (
(508,544,l),
(522.68,527.01,o),
(534.01,505.01,o),
(542,478,c),
(247,478,l)
);
},
{
closed = 1;
nodes = (
(537,362,l),
(537,388,l),
(556.52,391.65,o),
(568.52,400.98,o),
(573,416,c),
(472,427,l),
(472,-74,l),
(482,-74,ls),
(487.93,-73.88,o),
(495.13,-72.69,o),
(503.61,-70.41,cs),
(524.96,-64.26,o),
(536.09,-58.45,o),
(537,-53,c),
(537,13,l),
(759,13,l),
(759,-72,l),
(769,-72,ls),
(791.99,-70.14,o),
(810.32,-63.14,o),
(824,-51,c),
(824,213,l),
(843.92,217.21,o),
(858.26,223.87,o),
(867,233,c),
(785,295,l),
(749,256,l),
(537,256,l),
(537,332,l),
(869,332,ls),
(881.93,332.31,o),
(890.26,337.31,o),
(894,347,c),
(869.83,368.53,o),
(842.5,391.2,o),
(812,415,c),
(774,362,l)
);
},
{
closed = 1;
nodes = (
(415,277,l),
(406.63,265.88,o),
(397.08,253.01,o),
(386.36,238.4,cs),
(333.99,166.91,o),
(301.2,124.78,o),
(288,112,c),
(281.22,133.91,o),
(260.55,169.91,o),
(226,220,c),
(268.97,255.95,o),
(304.97,296.62,o),
(334,342,c),
(349.14,340.73,o),
(359.14,340.73,o),
(364,342,cs),
(371,344.56,o),
(376.67,348.23,o),
(381,353,c),
(289,419,l),
(284.04,408.51,o),
(278.77,397.95,o),
(273.21,387.31,cs),
(229.71,304.66,o),
(163.64,223.89,o),
(75,145,c),
(83,126,l),
(126.18,150.26,o),
(162.51,172.92,o),
(192,194,c),
(213.79,135.91,o),
(226.13,87.91,o),
(229,50,cs),
(231.52,12.98,o),
(230.52,-28.69,o),
(226,-75,c),
(236.52,-74.3,o),
(252.04,-67.89,o),
(272.56,-55.79,cs),
(307.46,-34.78,o),
(327.61,-16.18,o),
(333,0,c),
(325.79,28.05,o),
(324.79,51.72,o),
(330,71,cs),
(330.88,73.36,o),
(332.04,76.25,o),
(333.48,79.65,cs),
(341.44,97.95,o),
(376.61,158.4,o),
(439,261,c)
);
},
{
closed = 1;
nodes = (
(759,149,l),
(537,149,l),
(537,226,l),
(759,226,l)
);
},
{
closed = 1;
nodes = (
(537,119,l),
(759,119,l),
(759,43,l),
(537,43,l)
);
}
);
vertWidth = 976;
width = 1000;
}
);
note = u17013;
unicode = 94227;
}
{
glyphname = u17014;
layers = (
{
hints = (
{
horizontal = 1;
place = (-68,58);
type = Stem;
},
{
horizontal = 1;
place = (351,30);
type = Stem;
},
{
horizontal = 1;
place = (595,30);
type = Stem;
},
{
horizontal = 1;
place = (729,30);
type = Stem;
},
{
place = (201,63);
type = Stem;
},
{
place = (586,60);
type = Stem;
},
{
place = (680,67);
type = Stem;
},
{
place = (886,16);
type = Stem;
}
);
layerId = "CB7FBE56-FAF0-4485-826E-02FDEC4040B6";
shapes = (
{
closed = 1;
nodes = (
(847,824,l),
(797,759,l),
(62,759,l),
(71,729,l),
(913,729,ls),
(927.17,729.38,o),
(936.17,734.72,o),
(940,745,c)
);
},
{
closed = 1;
nodes = (
(367,445,l),
(442,498.8,o),
(501.67,566.47,o),
(546,648,c),
(549.07,647.48,o),
(553.4,647.14,o),
(559,647,cs),
(570.07,647.31,o),
(578.73,651.65,o),
(585,660,c),
(491,708,l),
(455.82,600.87,o),
(410.48,517.21,o),
(355,457,c)
);
},
{
closed = 1;
nodes = (
(902,208,l),
(886,208,l),
(867.49,96.72,o),
(854.49,32.06,o),
(847,14,cs),
(842.46,3.43,o),
(835.79,-3.9,o),
(827,-8,c),
(819.99,-9.3,o),
(801.99,-9.96,o),
(773,-10,cs),
(769.93,-9.95,o),
(766.83,-9.69,o),
(763.7,-9.22,cs),
(752.57,-7.03,o),
(747,3.04,o),
(747,21,cs),
(747,282,l),
(811.67,313.99,o),
(862.01,353.33,o),
(898,400,c),
(905.07,398.8,o),
(910.07,398.13,o),
(913,398,cs),
(923.17,398.38,o),
(930.84,402.71,o),
(936,411,c),
(859,469,l),
(834.47,411.01,o),
(797.14,358.34,o),
(747,311,c),
(747,640,l),
(768.09,643.81,o),
(780.42,653.15,o),
(784,668,c),
(680,680,l),
(680,6,ls),
(680.11,-16.68,o),
(683.75,-33.37,o),
(690.91,-44.07,cs),
(702.56,-60.02,o),
(734.59,-68,o),
(787,-68,cs),
(841.86,-67.97,o),
(880.02,-65.59,o),
(901.46,-60.86,cs),
(926.48,-55.09,o),
(939,-42.47,o),
(939,-23,c),
(937.22,-13.6,o),
(925.22,-4.27,o),
(903,5,c)
);
},
{
closed = 1;
nodes = (
(398,351,ls),
(412.17,351.38,o),
(421.17,356.72,o),
(425,367,c),
(354,428,l),
(319,381,l),
(264,381,l),
(264,595,l),
(370,595,ls),
(384.17,595.38,o),
(393.17,600.72,o),
(397,611,c),
(327,672,l),
(292,625,l),
(97,625,l),
(106,595,l),
(201,595,l),
(201,381,l),
(78,381,l),
(87,351,l),
(201,351,l),
(201,-77,l),
(211,-77,ls),
(216.76,-76.88,o),
(223.64,-75.74,o),
(231.65,-73.56,cs),
(252.27,-67.5,o),
(263.06,-61.65,o),
(264,-56,c),
(264,351,l)
);
},
{
closed = 1;
nodes = (
(477.75,211.31,o),
(445.75,238.65,o),
(408,268,c),
(481.96,330.31,o),
(547.29,411.98,o),
(604,513,c),
(606.95,512.49,o),
(610.95,512.15,o),
(616,512,cs),
(624.76,511.63,o),
(632.43,515.3,o),
(639,523,c),
(552,566,l),
(490.37,418.95,o),
(411.7,303.62,o),
(316,220,c),
(326,209,l),
(344.37,220.24,o),
(366.37,235.58,o),
(392,255,c),
(428.38,218.54,o),
(459.04,182.87,o),
(484,148,c),
(437.71,64.74,o),
(384.38,-5.26,o),
(324,-62,c),
(335,-72,l),
(404.78,-22.69,o),
(465.11,35.31,o),
(516,102,c),
(552.17,42.64,o),
(575.5,-11.7,o),
(586,-61,c),
(595.92,-69.7,o),
(605.25,-74.37,o),
(614,-75,cs),
(615.75,-75.16,o),
(617.82,-75.17,o),
(620.22,-75.02,cs),
(635.72,-73.04,o),
(644.31,-61.03,o),
(646,-39,cs),
(650,5.22,o),
(616.34,66.22,o),
(545,144,c),
(574.52,186.99,o),
(601.52,235.99,o),
(626,291,c),
(639,291,ls),
(648.22,292.08,o),
(655.88,296.75,o),
(662,305,c),
(569,341,l),
(550.45,287.46,o),
(528.79,235.79,o),
(504,186,c)
);
}
);
vertWidth = 976;
width = 1000;
}
);
note = u17014;
unicode = 94228;
}
{
glyphname = u17015;
layers = (
{
hints = (
{
horizontal = 1;
place = (142,30);
type = Stem;
},
{
horizontal = 1;
place = (255,30);
type = Stem;
},
{
horizontal = 1;
place = (367,30);
type = Stem;
},
{
horizontal = 1;
place = (461,12);
type = Stem;
},
{
horizontal = 1;
place = (532,30);
type = Stem;
},
{
horizontal = 1;
place = (631,30);
type = Stem;
},
{
horizontal = 1;
place = (729,30);
type = Stem;
},
{
place = (111,65);
type = Stem;
},
{
place = (273,65);
type = Stem;
},
{
place = (447,65);
type = Stem;
},
{
place = (613,65);
type = Stem;
},
{
place = (781,65);
type = Stem;
},
{
place = (849,79);
type = Stem;
}
);
layerId = "CB7FBE56-FAF0-4485-826E-02FDEC4040B6";
shapes = (
{
closed = 1;
nodes = (
(797,759,l),
(62,759,l),
(71,729,l),
(913,729,ls),
(927.17,729.38,o),
(936.17,734.72,o),
(940,745,c),
(847,824,l)
);
},
{
closed = 1;
nodes = (
(796,718,l),
(753,661,l),
(397,661,l),
(406,631,l),
(852,631,ls),
(866.17,631.38,o),
(875.17,636.72,o),
(879,647,c)
);
},
{
closed = 1;
nodes = (
(283,-75,ls),
(288.93,-74.88,o),
(296.13,-73.69,o),
(304.61,-71.41,cs),
(325.96,-65.26,o),
(337.09,-59.45,o),
(338,-54,c),
(338,643,l),
(357.52,646.65,o),
(369.52,655.98,o),
(374,671,c),
(273,682,l),
(273,-75,l)
);
},
{
closed = 1;
nodes = (
(121,-36,ls),
(126.93,-35.88,o),
(134.13,-34.69,o),
(142.61,-32.41,cs),
(163.96,-26.26,o),
(175.09,-20.45,o),
(176,-15,c),
(176,578,l),
(195.52,581.65,o),
(207.52,590.98,o),
(212,606,c),
(111,617,l),
(111,-36,l)
);
},
{
closed = 1;
nodes = (
(835.42,452.25,o),
(797.09,464.25,o),
(753,473,c),
(745,461,l),
(778.87,439.98,o),
(805.87,418.65,o),
(826,397,c),
(678,397,l),
(678,417,l),
(697.52,420.65,o),
(709.52,429.98,o),
(714,445,c),
(628,454,l),
(743,512,l),
(761.7,512.92,o),
(775.03,517.26,o),
(783,525,c),
(693,599,l),
(663,562,l),
(425,562,l),
(434,532,l),
(659,532,l),
(448,418,l),
(426.88,413.69,o),
(408.88,407.69,o),
(394,400,c),
(450,346,l),
(475,367,l),
(613,367,l),
(613,285,l),
(426,285,l),
(435,255,l),
(613,255,l),
(613,172,l),
(523,172,l),
(447,205,l),
(447,-63,l),
(457,-63,ls),
(462.93,-62.88,o),
(470.13,-61.69,o),
(478.61,-59.41,cs),
(499.96,-53.26,o),
(511.09,-47.45,o),
(512,-42,c),
(512,142,l),
(613,142,l),
(613,-77,l),
(623,-77,ls),
(628.93,-76.88,o),
(636.13,-75.69,o),
(644.61,-73.41,cs),
(665.96,-67.26,o),
(677.09,-61.45,o),
(678,-56,c),
(678,142,l),
(781,142,l),
(781,-68,l),
(791,-68,ls),
(796.93,-67.88,o),
(804.13,-66.69,o),
(812.61,-64.41,cs),
(833.96,-58.26,o),
(845.09,-52.45,o),
(846,-47,c),
(846,131,l),
(863.95,135,o),
(877.61,141.33,o),
(887,150,c),
(806,211,l),
(770,172,l),
(678,172,l),
(678,255,l),
(862,255,ls),
(876.17,255.38,o),
(885.17,260.72,o),
(889,271,c),
(805,342,l),
(762,285,l),
(678,285,l),
(678,367,l),
(849,367,l),
(856.87,355.69,o),
(863.53,344.69,o),
(869,334,c),
(881.27,328.11,o),
(892.6,326.44,o),
(903,329,cs),
(904.74,329.41,o),
(906.76,330.02,o),
(909.06,330.81,cs),
(927.11,337.92,o),
(933.42,352.31,o),
(928,374,cs),
(922.6,397.25,o),
(902.6,418.25,o),
(868,437,cs)
);
},
{
closed = 1;
nodes = (
(613,447,l),
(613,397,l),
(514,397,l)
);
}
);
vertWidth = 976;
width = 1000;
}
);
note = u17015;
unicode = 94229;
}
{
glyphname = u17016;
layers = (
{
hints = (
{
horizontal = 1;
place = (-75, 58);
type = Stem;
},
{
horizontal = 1;
place = (304, 15);
type = Stem;
},
{
horizontal = 1;
place = (729, 30);
type = Stem;
},
{
place = (432, 58);
type = Stem;
},
{
place = (495, 65);
type = Stem;
},
{
place = (595, 67);
type = Stem;
},
{
place = (815, 16);
type = Stem;
}
);
layerId = "CB7FBE56-FAF0-4485-826E-02FDEC4040B6";
shapes = (
{
closed = 1;
nodes = (
(797,759,l),
(62,759,l),
(71,729,l),
(913,729,ls),
(927.17,729.38,o),
(936.17,734.72,o),
(940,745,c),
(847,824,l)
);
},
{
closed = 1;
nodes = (
(386.33,485.73,o),
(407,505.06,o),
(421,519,c),
(427.03,516.06,o),
(432.03,514.39,o),
(436,514,cs),
(445.8,512.33,o),
(454.13,515.33,o),
(461,523,c),
(378,585,l),
(351,550,o),
(323,518,o),
(294,489,c),
(252.56,504.83,o),
(215.22,518.17,o),
(182,529,c),
(182.75,529.43,o),
(183.85,530.07,o),
(185.31,530.92,cs),
(261.86,575.23,o),
(313.43,609.25,o),
(340,633,c),
(343.67,631.83,o),
(349.01,630.49,o),
(356,629,c),
(366.88,629.39,o),
(374.88,633.72,o),
(380,642,c),
(287,699,l),
(235.62,626.89,o),
(179.28,566.89,o),
(118,519,c),
(160.59,502.63,o),
(207.26,480.96,o),
(258,454,c),
(193.85,395.02,o),
(129.52,350.02,o),
(65,319,c),
(72,304,l),
(156.94,328.41,o),
(236.6,368.08,o),
(311,423,c),
(390.9,373.58,o),
(441.23,331.25,o),
(462,296,c),
(473.58,293.04,o),
(484.92,293.38,o),
(496,297,cs),
(498.64,298.31,o),
(501.5,300.36,o),
(504.59,303.15,cs),
(518.59,317.59,o),
(520.73,334.54,o),
(511,354,cs),
(497.86,385.09,o),
(447.19,420.76,o),
(359,461,c)
);
},
{
closed = 1;
nodes = (
(831,218,l),
(815,218,l),
(796.66,99.6,o),
(783,29.27,o),
(774,7,cs),
(769.12,-4.23,o),
(762.12,-11.57,o),
(753,-15,cs),
(748.73,-16.27,o),
(728.06,-16.94,o),
(691,-17,cs),
(686.7,-16.94,o),
(682.6,-16.57,o),
(678.72,-15.87,cs),
(667.57,-13.38,o),
(662,-3.43,o),
(662,14,cs),
(662,278,l),
(731.45,308.85,o),
(785.78,350.85,o),
(825,404,c),
(832.07,402.8,o),
(837.07,402.13,o),
(840,402,cs),
(850.17,402.38,o),
(857.84,406.71,o),
(863,415,c),
(786,474,l),
(759.13,409.32,o),
(717.8,352.65,o),
(662,304,c),
(662,642,l),
(683.09,645.81,o),
(695.42,655.15,o),
(699,670,c),
(595,682,l),
(595,-3,ls),
(595.1,-20.81,o),
(597.61,-34.92,o),
(602.53,-45.33,cs),
(612.7,-65.11,o),
(641.52,-75,o),
(689,-75,cs),
(763.97,-74.98,o),
(813.05,-72.12,o),
(836.24,-66.44,cs),
(858.08,-60.84,o),
(869,-49.03,o),
(869,-31,cs),
(868.03,-19.61,o),
(855.7,-9.94,o),
(832,-2,c)
);
},
{
closed = 1;
nodes = (
(483.59,645.49,o),
(449.59,662.16,o),
(412,676,c),
(403,665,l),
(406.64,661.79,o),
(410.47,658.33,o),
(414.49,654.61,cs),
(451.78,619.82,o),
(478.62,578.28,o),
(495,530,c),
(504.79,523.16,o),
(515.46,519.49,o),
(527,519,cs),
(528.59,519.2,o),
(530.48,519.51,o),
(532.67,519.95,cs),
(551.81,524.54,o),
(560.92,537.89,o),
(560,560,cs),
(557.08,583.32,o),
(541.75,605.32,o),
(514,626,cs)
);
},
{
closed = 1;
nodes = (
(385.72,128.1,o),
(414.72,160.1,o),
(446,199,c),
(449.8,197.32,o),
(453.8,196.32,o),
(458,196,cs),
(468.53,193.93,o),
(477.53,196.59,o),
(485,204,c),
(395,268,l),
(363.65,217.93,o),
(331.65,173.6,o),
(299,135,c),
(263.39,151.77,o),
(227.39,166.44,o),
(191,179,c),
(244.65,210.08,o),
(295.65,251.75,o),
(344,304,c),
(347.4,301.81,o),
(351.4,300.47,o),
(356,300,c),
(366.82,297.01,o),
(375.82,299.01,o),
(383,306,c),
(298,376,l),
(232.73,273.79,o),
(162.07,198.46,o),
(86,150,c),
(95,135,l),
(123.59,145.62,o),
(148.26,156.29,o),
(169,167,c),
(204,148.92,o),
(238,127.59,o),
(271,103,c),
(209.5,34.76,o),
(142.5,-20.24,o),
(70,-62,c),
(79,-77,l),
(166.24,-43.66,o),
(246.24,4,o),
(319,66,c),
(369.87,20.25,o),
(407.54,-25.75,o),
(432,-72,c),
(441.89,-76.73,o),
(452.23,-78.73,o),
(463,-78,cs),
(463.91,-77.83,o),
(465.15,-77.57,o),
(466.7,-77.23,cs),
(485.99,-72.18,o),
(493.76,-57.44,o),
(490,-33,cs),
(483.07,9.26,o),
(439.41,54.59,o),
(359,103,c)
);
}
);
vertWidth = 976;
width = 1000;
}
);
note = u17016;
unicode = 94230;
}
{
glyphname = u17017;
layers = (
{
hints = (
{
horizontal = 1;
place = (371, 30);
type = Stem;
},
{
horizontal = 1;
place = (526, -20);
target = down;
type = TopGhost;
},
{
horizontal = 1;
place = (729, 30);
type = Stem;
},
{
place = (366, 65);
type = Stem;
},
{
place = (849, 67);
type = Stem;
},
{
place = (189, 76);
type = Stem;
},
{
place = (176, 90);
type = Stem;
}
);
layerId = "CB7FBE56-FAF0-4485-826E-02FDEC4040B6";
shapes = (
{
closed = 1;
nodes = (
(797,759,l),
(62,759,l),
(71,729,l),
(913,729,ls),
(927.17,729.38,o),
(936.17,734.72,o),
(940,745,c),
(847,824,l)
);
},
{
closed = 1;
nodes = (
(97,370,l),
(103.53,372.35,o),
(110.36,374.91,o),
(117.51,377.67,cs),
(263.68,434.53,o),
(381.18,522.64,o),
(470,642,c),
(476,640,o),
(481,639,o),
(485,639,cs),
(494.22,639.37,o),
(501.89,643.71,o),
(508,652,c),
(416,707,l),
(405.14,686.37,o),
(393,665.85,o),
(379.57,645.44,cs),
(306.54,535.2,o),
(209.68,448.72,o),
(89,386,c)
);
},
{
closed = 1;
nodes = (
(229.92,537.9,o),
(234.06,538.31,o),
(238.41,539.23,cs),
(256.13,543.77,o),
(265,555.36,o),
(265,574,cs),
(265.89,595.91,o),
(253.89,618.24,o),
(229,641,cs),
(203.66,662.4,o),
(173.66,680.73,o),
(139,696,c),
(128,686,l),
(144.25,667.51,o),
(157.25,648.17,o),
(167,628,cs),
(177.06,609.28,o),
(184.39,585.28,o),
(189,556,c),
(199.86,544.64,o),
(212.19,538.64,o),
(226,538,cs)
);
},
{
closed = 1;
nodes = (
(821.64,342.96,o),
(824.34,342.76,o),
(828.09,342.41,cs),
(830.49,342.14,o),
(832.12,342,o),
(833,342,cs),
(843.1,343.16,o),
(851.77,348.16,o),
(859,357,c),
(758,404,l),
(733.44,331.46,o),
(702.1,260.13,o),
(664,190,c),
(622.52,230.53,o),
(590.19,267.53,o),
(567,301,c),
(628.58,387.22,o),
(680.91,499.88,o),
(724,639,c),
(724.8,638.8,ls),
(729.6,637.6,o),
(734.67,637.33,o),
(740,638,cs),
(750.75,639.46,o),
(758.08,645.12,o),
(762,655,c),
(658,692,l),
(633.6,586.18,o),
(603.94,486.18,o),
(569,392,c),
(502,451,l),
(465,401,l),
(431,401,l),
(431,487,l),
(450.52,490.65,o),
(462.52,499.98,o),
(467,515,c),
(366,526,l),
(366,401,l),
(184,401,l),
(193,371,l),
(366,371,l),
(366,-76,l),
(376,-76,ls),
(381.93,-75.88,o),
(389.13,-74.69,o),
(397.61,-72.41,cs),
(418.96,-66.26,o),
(430.09,-60.45,o),
(431,-55,c),
(431,371,l),
(548,371,ls),
(551.74,371.1,o),
(556.4,371.77,o),
(562,373,c),
(553.22,350.23,o),
(543.22,325.89,o),
(532,300,c),
(558.57,247.05,o),
(592.9,194.39,o),
(635,142,c),
(584.31,62.12,o),
(526.65,-6.88,o),
(462,-65,c),
(476,-78,l),
(550.13,-25.49,o),
(615.13,33.51,o),
(671,99,c),
(729.43,32.83,o),
(792.76,-25.84,o),
(861,-77,c),
(862.43,-72.97,o),
(864.2,-68.73,o),
(866.31,-64.29,cs),
(881.23,-34.36,o),
(903.12,-18.93,o),
(932,-18,c),
(935,-7,l),
(852.37,39.63,o),
(777.37,91.63,o),
(710,149,c),
(754.16,209.74,o),
(790.83,274.4,o),
(820,343,c)
);
},
{
closed = 1;
nodes = (
(859.27,408.89,o),
(869.94,404.55,o),
(881,404,cs),
(883.26,404.06,o),
(885.8,404.29,o),
(888.61,404.72,cs),
(906.87,408.29,o),
(916,420.71,o),
(916,442,cs),
(915.62,465.6,o),
(901.29,489.6,o),
(873,514,cs),
(843.64,536.36,o),
(809.97,555.69,o),
(772,572,c),
(762,562,l),
(764.69,559.41,o),
(767.63,556.52,o),
(770.83,553.32,cs),
(809.53,514.29,o),
(835.59,468.85,o),
(849,417,c)
);
},
{
closed = 1;
nodes = (
(224.34,100.83,o),
(213.01,133.16,o),
(196,177,c),
(216.74,204.49,o),
(235.74,237.83,o),
(253,277,c),
(266,275.9,o),
(275.67,276.23,o),
(282,278,cs),
(290.05,280.62,o),
(296.38,284.95,o),
(301,291,c),
(204,347,l),
(174.06,250.72,o),
(131.73,164.05,o),
(77,87,c),
(88,73,l),
(120.76,99.02,o),
(145.76,121.35,o),
(163,140,c),
(171.51,94.3,o),
(175.84,56.96,o),
(176,28,cs),
(175.95,-14.5,o),
(172.95,-48.84,o),
(167,-75,c),
(176.83,-73.92,o),
(190.93,-67.47,o),
(209.3,-55.66,cs),
(241.59,-34.43,o),
(260.49,-15.54,o),
(266,1,c),
(264.64,13.04,o),
(266.64,29.71,o),
(272,51,cs),
(275.32,62.36,o),
(286.43,89.57,o),
(305.32,132.64,cs),
(319.18,164.13,o),
(329.41,187.92,o),
(336,204,c),
(312,218,l),
(311.69,217.45,o),
(311.18,216.57,o),
(310.48,215.35,cs),
(264.56,135.17,o),
(237.73,90.05,o),
(230,80,c)
);
}
);
vertWidth = 976;
width = 1000;
}
);
note = u17017;
unicode = 94231;
}
{
glyphname = u17018;
layers = (
{
hints = (
{
horizontal = 1;
place = (450, 30);
type = Stem;
},
{
horizontal = 1;
place = (530, -20);
target = down;
type = TopGhost;
},
{
horizontal = 1;
place = (632, 30);
type = Stem;
},
{
horizontal = 1;
place = (730, 30);
type = Stem;
},
{
place = (164, 59);
type = Stem;
},
{
place = (464, 55);
type = Stem;
},
{
place = (597, 67);
type = Stem;
},
{
place = (850, 16);
type = Stem;
},
{
horizontal = 1;
place = (-75, 58);
type = Stem;
},
{
horizontal = 1;
place = (-72, 16);
type = Stem;
}
);
layerId = "CB7FBE56-FAF0-4485-826E-02FDEC4040B6";
shapes = (
{
closed = 1;
nodes = (
(796,760,l),
(61,760,l),
(70,730,l),
(912,730,ls),
(926.17,730.38,o),
(935.17,735.72,o),
(939,746,c),
(846,825,l)
);
},
{
closed = 1;
nodes = (
(866,204,l),
(850,204,l),
(832.19,95.56,o),
(818.86,29.89,o),
(810,7,cs),
(805.38,-3.41,o),
(797.71,-10.41,o),
(787,-14,cs),
(779.59,-15.95,o),
(750.25,-16.95,o),
(699,-17,cs),
(693.74,-16.95,o),
(688.81,-16.55,o),
(684.22,-15.79,cs),
(670.74,-13.13,o),
(664,-3.2,o),
(664,14,cs),
(664,272,l),
(744.73,305.94,o),
(808.07,354.28,o),
(854,417,c),
(861.07,415.8,o),
(866.07,415.13,o),
(869,415,cs),
(879.17,415.38,o),
(886.84,419.71,o),
(892,428,c),
(816,488,l),
(783.35,413.71,o),
(732.68,349.71,o),
(664,296,c),
(664,642,l),
(685.09,645.81,o),
(697.42,655.15,o),
(701,670,c),
(597,682,l),
(597,469,l),
(527,530,l),
(489,480,l),
(413,480,l),
(428.45,498.03,o),
(440.12,512.36,o),
(448,523,c),
(455.69,520.5,o),
(462.69,519.5,o),
(469,520,cs),
(477.23,520.47,o),
(484.57,525.47,o),
(491,535,c),
(402,572,l),
(376.89,533.76,o),
(355.22,503.1,o),
(337,480,c),
(223,480,l),
(223,503,l),
(298.08,542.14,o),
(359.41,579.8,o),
(407,616,c),
(427.02,619.26,o),
(441.36,625.93,o),
(450,636,c),
(366,701,l),
(333,662,l),
(110,662,l),
(119,632,l),
(324,632,l),
(303.7,609.16,o),
(277.37,583.16,o),
(245,554,c),
(164,564,l),
(164,480,l),
(67,480,l),
(76,450,l),
(164,450,l),
(164,370,l),
(174,370,ls),
(179.28,370.13,o),
(185.67,371.31,o),
(193.17,373.53,cs),
(212.13,379.63,o),
(222.07,385.45,o),
(223,391,c),
(223,450,l),
(313,450,l),
(245.17,370.9,o),
(175.5,311.56,o),
(104,272,c),
(113,258,l),
(214.26,298.71,o),
(305.59,362.71,o),
(387,450,c),
(574,450,ls),
(583.4,450.25,o),
(591.06,452.91,o),
(597,458,c),
(597,-1,ls),
(597.11,-22.4,o),
(600.49,-38.49,o),
(607.16,-49.26,cs),
(618.72,-66.42,o),
(650.66,-75,o),
(703,-75,cs),
(793.59,-74.97,o),
(850.93,-71.46,o),
(875.02,-64.47,cs),
(893.67,-58.8,o),
(903,-47.31,o),
(903,-30,c),
(901.22,-20.6,o),
(889.22,-11.27,o),
(867,-2,c)
);
},
{
closed = 1;
nodes = (
(309.87,141.48,o),
(275.21,155.15,o),
(241,166,c),
(316.9,208.24,o),
(390.9,267.9,o),
(463,345,c),
(470.21,341.98,o),
(476.54,340.31,o),
(482,340,c),
(491.68,341.28,o),
(499.68,345.94,o),
(506,354,c),
(417,401,l),
(311.82,263.87,o),
(197.82,168.87,o),
(75,116,c),
(83,100,l),
(130.29,114.45,o),
(173.62,131.45,o),
(213,151,c),
(243.94,135.45,o),
(276.28,115.79,o),
(310,92,c),
(237.65,27.76,o),
(157.31,-21.57,o),
(69,-56,c),
(77,-72,l),
(181.91,-41.9,o),
(273.58,1.76,o),
(352,59,c),
(400.92,18.23,o),
(438.25,-24.1,o),
(464,-68,c),
(474.9,-72.35,o),
(485.23,-73.69,o),
(495,-72,cs),
(496.59,-71.68,o),
(498.47,-71.19,o),
(500.64,-70.53,cs),
(518.26,-64.16,o),
(524.38,-49.32,o),
(519,-26,cs),
(511.03,13.55,o),
(471.03,54.22,o),
(399,96,c),
(437.88,129.33,o),
(475.22,168.99,o),
(511,215,c),
(516.69,212.67,o),
(522.36,211.34,o),
(528,211,cs),
(536.32,210.39,o),
(543.99,214.06,o),
(551,222,c),
(466,272,l),
(428.58,216.52,o),
(388.25,167.52,o),
(345,125,c)
);
}
);
vertWidth = 976;
width = 1000;
}
);
note = u17018;
unicode = 94232;
}
{
glyphname = u17019;
layers = (
{
hints = (
{
horizontal = 1;
place = (-75,58);
type = Stem;
},
{
horizontal = 1;
place = (156,30);
type = Stem;
},
{
horizontal = 1;
place = (487,30);
type = Stem;
},
{
horizontal = 1;
place = (729,30);
type = Stem;
},
{
place = (183,63);
type = Stem;
},
{
place = (387,65);
type = Stem;
},
{
place = (536,65);
type = Stem;
},
{
place = (680,67);
type = Stem;
},
{
place = (869,16);
type = Stem;
},
{
horizontal = 1;
place = (611,30);
type = Stem;
},
{
horizontal = 1;
place = (344,30);
type = Stem;
},
{
horizontal = 1;
place = (600,30);
type = Stem;
},
{
horizontal = 1;
place = (323,30);
type = Stem;
}
);
layerId = "CB7FBE56-FAF0-4485-826E-02FDEC4040B6";
shapes = (
{
closed = 1;
nodes = (
(797,759,l),
(62,759,l),
(71,729,l),
(913,729,ls),
(927.17,729.38,o),
(936.17,734.72,o),
(940,745,c),
(847,824,l)
);
},
{
closed = 1;
nodes = (
(362,641,l),
(371,611,l),
(639,611,ls),
(653.17,611.38,o),
(662.17,616.72,o),
(666,627,c),
(579,701,l),
(533,641,l)
);
},
{
closed = 1;
nodes = (
(885,218,l),
(869,218,l),
(850.29,97.07,o),
(836.95,26.74,o),
(829,7,cs),
(824.13,-4.41,o),
(817.47,-11.74,o),
(809,-15,cs),
(805.49,-16.23,o),
(792.49,-16.9,o),
(770,-17,cs),
(767.26,-16.95,o),
(764.46,-16.68,o),
(761.59,-16.22,cs),
(751.86,-14.09,o),
(747,-4.02,o),
(747,14,cs),
(747,281,l),
(805.56,310.97,o),
(851.23,347.3,o),
(884,390,c),
(891.07,388.8,o),
(896.07,388.13,o),
(899,388,cs),
(909.17,388.38,o),
(916.84,392.71,o),
(922,401,c),
(845,458,l),
(824.37,406.93,o),
(791.7,358.26,o),
(747,312,c),
(747,639,l),
(768.09,642.81,o),
(780.42,652.15,o),
(784,667,c),
(680,679,l),
(680,-3,ls),
(680.1,-20.99,o),
(682.66,-35.21,o),
(687.67,-45.67,cs),
(697.86,-65.23,o),
(726.3,-75,o),
(773,-75,cs),
(827.73,-74.97,o),
(865.56,-72.59,o),
(886.51,-67.86,cs),
(910.83,-62.11,o),
(923,-49.82,o),
(923,-31,cs),
(922.03,-19.61,o),
(909.7,-9.94,o),
(886,-2,c)
);
},
{
closed = 1;
nodes = (
(246,374,l),
(246,600,l),
(323,600,ls),
(337.17,600.38,o),
(346.17,605.72,o),
(350,616,c),
(285,673,l),
(254,630,l),
(96,630,l),
(105,600,l),
(183,600,l),
(183,374,l),
(85,374,l),
(94,344,l),
(183,344,l),
(183,-72,l),
(193,-72,ls),
(198.76,-71.88,o),
(205.64,-70.74,o),
(213.65,-68.56,cs),
(234.27,-62.5,o),
(245.06,-56.65,o),
(246,-51,c),
(246,344,l),
(343,344,ls),
(357.17,344.38,o),
(366.17,349.72,o),
(370,360,c),
(305,417,l),
(273,374,l)
);
},
{
closed = 1;
nodes = (
(463,517,l),
(405,542,l),
(387,550,l),
(387,-70,l),
(397,-70,ls),
(402.93,-69.88,o),
(410.13,-68.69,o),
(418.61,-66.41,cs),
(439.96,-60.26,o),
(451.09,-54.45,o),
(452,-49,c),
(452,156,l),
(536,156,l),
(536,-77,l),
(546,-77,ls),
(551.93,-76.88,o),
(559.13,-75.69,o),
(567.61,-73.41,cs),
(588.96,-67.26,o),
(600.09,-61.45,o),
(601,-56,c),
(601,476,l),
(618.95,480,o),
(632.61,486.33,o),
(642,495,c),
(561,556,l),
(525,517,l)
);
},
{
closed = 1;
nodes = (
(536,353,l),
(452,353,l),
(452,487,l),
(536,487,l)
);
},
{
closed = 1;
nodes = (
(452,323,l),
(536,323,l),
(536,186,l),
(452,186,l)
);
}
);
vertWidth = 976;
width = 1000;
}
);
note = u17019;
unicode = 94233;
}
{
glyphname = u1701A;
layers = (
{
hints = (
{
horizontal = 1;
place = (-75, 58);
type = Stem;
},
{
horizontal = 1;
place = (161, 30);
type = Stem;
},
{
horizontal = 1;
place = (263, 30);
type = Stem;
},
{
horizontal = 1;
place = (311, 30);
type = Stem;
},
{
horizontal = 1;
place = (606, 30);
type = Stem;
},
{
horizontal = 1;
place = (729, 30);
type = Stem;
},
{
place = (113, 65);
type = Stem;
},
{
place = (454, 56);
type = Stem;
},
{
place = (563, 67);
type = Stem;
},
{
place = (862, 17);
type = Stem;
},
{
horizontal = 1;
place = (459, 30);
type = Stem;
},
{
horizontal = 1;
place = (475, 30);
type = Stem;
}
);
layerId = "CB7FBE56-FAF0-4485-826E-02FDEC4040B6";
shapes = (
{
closed = 1;
nodes = (
(797,759,l),
(62,759,l),
(71,729,l),
(913,729,ls),
(927.17,729.38,o),
(936.17,734.72,o),
(940,745,c),
(847,824,l)
);
},
{
closed = 1;
nodes = (
(879,153,l),
(862,153,l),
(847.79,75.6,o),
(836.46,27.26,o),
(828,8,cs),
(822.65,-3.44,o),
(815.65,-10.78,o),
(807,-14,cs),
(798.1,-15.97,o),
(748.43,-16.97,o),
(658,-17,cs),
(653.89,-16.94,o),
(649.95,-16.57,o),
(646.2,-15.87,cs),
(635.4,-13.37,o),
(630,-3.41,o),
(630,14,cs),
(630,161,l),
(823,161,ls),
(837.17,161.38,o),
(846.17,166.72,o),
(850,177,c),
(772,244,l),
(732,191,l),
(630,191,l),
(630,311,l),
(786,311,ls),
(800.17,311.38,o),
(809.17,316.72,o),
(813,327,c),
(735,394,l),
(694,341,l),
(630,341,l),
(630,459,l),
(810,459,ls),
(824.17,459.38,o),
(833.17,464.72,o),
(837,475,c),
(759,542,l),
(719,489,l),
(630,489,l),
(630,611,l),
(844,611,ls),
(857.31,611.45,o),
(865.97,617.12,o),
(870,628,c),
(782,702,l),
(735,641,l),
(525,641,l),
(532,611,l),
(563,611,l),
(563,5,ls),
(563.12,-27.42,o),
(569.96,-48.8,o),
(583.52,-59.14,cs),
(598.9,-69.71,o),
(641.39,-75,o),
(711,-75,cs),
(790.23,-74.96,o),
(844.25,-71.47,o),
(873.07,-64.51,cs),
(899.02,-58.02,o),
(912,-45.85,o),
(912,-28,cs),
(911.93,-26.12,o),
(911.66,-24.02,o),
(911.2,-21.72,cs),
(909.23,-14.85,o),
(898.83,-8.28,o),
(880,-2,c)
);
},
{
closed = 1;
nodes = (
(414,701,l),
(364,636,l),
(86,636,l),
(95,606,l),
(480,606,ls),
(494.17,606.38,o),
(503.17,611.72,o),
(507,622,c)
);
},
{
closed = 1;
nodes = (
(178,527,l),
(197.52,530.65,o),
(209.52,539.98,o),
(214,555,c),
(113,566,l),
(113,9,l),
(123,9,ls),
(129.1,9,o),
(136.31,10.2,o),
(144.61,12.59,cs),
(165.96,18.74,o),
(177.09,24.55,o),
(178,30,c)
);
},
{
closed = 1;
nodes = (
(281,293,l),
(455,471,l),
(471.18,471.98,o),
(483.18,476.31,o),
(491,484,c),
(401,546,l),
(364,505,l),
(209,505,l),
(217,475,l),
(373,475,l),
(229,314,l),
(208.69,310.96,o),
(195.36,308.29,o),
(189,306,c),
(239,244,l),
(263,263,l),
(410,263,l),
(396.96,221.27,o),
(375.62,178.27,o),
(346,134,c),
(303.26,159.78,o),
(260.59,181.78,o),
(218,200,c),
(208,185,l),
(248.4,160.66,o),
(286.4,132.32,o),
(322,100,c),
(271.51,34.02,o),
(211.51,-20.32,o),
(142,-63,c),
(153,-79,l),
(228.53,-43.5,o),
(296.2,5.5,o),
(356,68,c),
(400.77,20.92,o),
(433.44,-25.74,o),
(454,-72,c),
(465.04,-77.85,o),
(475.04,-80.52,o),
(484,-80,cs),
(486,-79.81,o),
(488.29,-79.38,o),
(490.85,-78.72,cs),
(507.08,-73.43,o),
(513.47,-59.53,o),
(510,-37,cs),
(505.81,4.43,o),
(465.48,52.09,o),
(389,106,c),
(428.05,154.48,o),
(458.05,205.82,o),
(479,260,c),
(495.18,260.98,o),
(507.18,265.31,o),
(515,273,c),
(431,336,l),
(395,293,l)
);
}
);
vertWidth = 976;
width = 1000;
}
);
note = u1701A;
unicode = 94234;
}
{
glyphname = u1701B;
layers = (
{
hints = (
{
horizontal = 1;
place = (110, 30);
type = Stem;
},
{
horizontal = 1;
place = (493, 30);
type = Stem;
},
{
horizontal = 1;
place = (533, 30);
type = Stem;
},
{
horizontal = 1;
place = (613, 30);
type = Stem;
},
{
horizontal = 1;
place = (729, 30);
type = Stem;
},
{
place = (107, 65);
type = Stem;
},
{
place = (301, 65);
type = Stem;
},
{
place = (556, 65);
type = Stem;
},
{
horizontal = 1;
place = (251, 30);
type = Stem;
},
{
horizontal = 1;
place = (393, 30);
type = Stem;
},
{
horizontal = 1;
place = (363, 30);
type = Stem;
},
{
place = (793, 68);
type = Stem;
},
{
horizontal = 1;
place = (232, 30);
type = Stem;
},
{
place = (762, 65);
type = Stem;
}
);
layerId = "CB7FBE56-FAF0-4485-826E-02FDEC4040B6";
shapes = (
{
closed = 1;
nodes = (
(797,759,l),
(62,759,l),
(71,729,l),
(913,729,ls),
(927.17,729.38,o),
(936.17,734.72,o),
(940,745,c),
(847,824,l)
);
},
{
closed = 1;
nodes = (
(506,643,l),
(515,613,l),
(879,613,ls),
(893.17,613.38,o),
(902.17,618.72,o),
(906,629,c),
(825,698,l),
(784,643,l)
);
},
{
closed = 1;
nodes = (
(366,140,l),
(366,251,l),
(484,251,ls),
(498.17,251.38,o),
(507.17,256.72,o),
(511,267,c),
(441,327,l),
(407,281,l),
(366,281,l),
(366,380,l),
(385.92,384.21,o),
(400.26,390.87,o),
(409,400,c),
(327,462,l),
(291,423,l),
(172,423,l),
(172,533,l),
(480,533,ls),
(492.93,533.31,o),
(501.26,538.31,o),
(505,548,c),
(471.97,576.44,o),
(442.3,600.44,o),
(416,620,c),
(376,563,l),
(172,563,l),
(172,645,l),
(191.52,648.65,o),
(203.52,657.98,o),
(208,673,c),
(107,684,l),
(107,-72,l),
(117,-72,ls),
(122.93,-71.88,o),
(130.13,-70.69,o),
(138.61,-68.41,cs),
(159.96,-62.26,o),
(171.09,-56.45,o),
(172,-51,c),
(172,110,l),
(301,110,l),
(301,-70,l),
(311,-70,ls),
(333.99,-68.14,o),
(352.32,-61.14,o),
(366,-49,c),
(366,110,l),
(503,110,ls),
(517.17,110.38,o),
(526.17,115.72,o),
(530,126,c),
(460,187,l),
(426,140,l)
);
},
{
closed = 1;
nodes = (
(531,523,l),
(540,493,l),
(793,493,l),
(793,393,l),
(526,393,l),
(535,363,l),
(793,363,l),
(793,327,l),
(804,327,ls),
(811.34,327.15,o),
(820.04,328.95,o),
(830.09,332.4,cs),
(849.86,339.61,o),
(860.16,346.14,o),
(861,352,c),
(861,482,l),
(881.43,486.49,o),
(895.1,492.83,o),
(902,501,c),
(822,565,l),
(783,523,l)
);
},
{
closed = 1;
nodes = (
(301,281,l),
(172,281,l),
(172,393,l),
(301,393,l)
);
},
{
closed = 1;
nodes = (
(632,262,l),
(556,295,l),
(556,-72,l),
(566,-72,ls),
(571.93,-71.88,o),
(579.13,-70.69,o),
(587.61,-68.41,cs),
(608.96,-62.26,o),
(620.09,-56.45,o),
(621,-51,c),
(621,232,l),
(762,232,l),
(762,-77,l),
(772,-77,ls),
(777.93,-76.88,o),
(785.13,-75.69,o),
(793.61,-73.41,cs),
(814.96,-67.26,o),
(826.09,-61.45,o),
(827,-56,c),
(827,221,l),
(844.95,225,o),
(858.61,231.33,o),
(868,240,c),
(787,301,l),
(751,262,l)
);
},
{
closed = 1;
nodes = (
(172,251,l),
(301,251,l),
(301,140,l),
(172,140,l)
);
}
);
vertWidth = 976;
width = 1000;
}
);
note = u1701B;
unicode = 94235;
}
{
glyphname = u1701C;
layers = (
{
hints = (
{
horizontal = 1;
place = (111,30);
type = Stem;
},
{
horizontal = 1;
place = (394,30);
type = Stem;
},
{
horizontal = 1;
place = (534,30);
type = Stem;
},
{
horizontal = 1;
place = (619,30);
type = Stem;
},
{
horizontal = 1;
place = (729,30);
type = Stem;
},
{
place = (108,65);
type = Stem;
},
{
place = (302,65);
type = Stem;
},
{
place = (558,65);
type = Stem;
},
{
place = (776,65);
type = Stem;
},
{
horizontal = 1;
place = (252,30);
type = Stem;
},
{
horizontal = 1;
place = (259,30);
type = Stem;
}
);
layerId = "CB7FBE56-FAF0-4485-826E-02FDEC4040B6";
shapes = (
{
closed = 1;
nodes = (
(797,759,l),
(62,759,l),
(71,729,l),
(913,729,ls),
(927.17,729.38,o),
(936.17,734.72,o),
(940,745,c),
(847,824,l)
);
},
{
closed = 1;
nodes = (
(367,141,l),
(367,252,l),
(486,252,ls),
(500.17,252.38,o),
(509.17,257.72,o),
(513,268,c),
(446,327,l),
(413,282,l),
(367,282,l),
(367,381,l),
(386.92,385.21,o),
(401.26,391.87,o),
(410,401,c),
(328,463,l),
(292,424,l),
(173,424,l),
(173,534,l),
(482,534,ls),
(494.93,534.31,o),
(503.26,539.31,o),
(507,549,c),
(471.15,579.87,o),
(440.82,604.54,o),
(416,623,c),
(375,564,l),
(173,564,l),
(173,646,l),
(192.52,649.65,o),
(204.52,658.98,o),
(209,674,c),
(108,685,l),
(108,-71,l),
(118,-71,ls),
(123.93,-70.88,o),
(131.13,-69.69,o),
(139.61,-67.41,cs),
(160.96,-61.26,o),
(172.09,-55.45,o),
(173,-50,c),
(173,111,l),
(302,111,l),
(302,-69,l),
(312,-69,ls),
(334.99,-67.14,o),
(353.32,-60.14,o),
(367,-48,c),
(367,111,l),
(505,111,ls),
(519.17,111.38,o),
(528.17,116.72,o),
(532,127,c),
(464,186,l),
(432,141,l)
);
},
{
closed = 1;
nodes = (
(860.18,485.96,o),
(825.51,501.62,o),
(780,517,c),
(771,506,l),
(804.22,479.08,o),
(829.22,450.75,o),
(846,421,c),
(749,421,l),
(752.28,427.93,o),
(753.61,435.93,o),
(753,445,cs),
(751.23,460.04,o),
(743.9,473.04,o),
(731,484,c),
(718.47,491.94,o),
(706.47,498.6,o),
(695,504,c),
(806,599,l),
(824.7,599.92,o),
(838.03,604.26,o),
(846,612,c),
(758,685,l),
(730,649,l),
(509,649,l),
(518,619,l),
(727,619,l),
(536,442,l),
(514.88,437.69,o),
(496.88,431.69,o),
(482,424,c),
(538,370,l),
(563,391,l),
(861,391,l),
(865.39,380.35,o),
(867.73,374.69,o),
(868,374,c),
(879.17,366.8,o),
(890.17,363.47,o),
(901,364,cs),
(903.54,364.32,o),
(906.32,364.9,o),
(909.36,365.76,cs),
(927.1,371.62,o),
(934.65,384.7,o),
(932,405,cs),
(929.06,428.17,o),
(913.06,449.83,o),
(884,470,cs)
);
},
{
closed = 1;
nodes = (
(672,485,l),
(681.49,469.47,o),
(689.49,448.13,o),
(696,421,c),
(598,421,l)
);
},
{
closed = 1;
nodes = (
(302,282,l),
(173,282,l),
(173,394,l),
(302,394,l)
);
},
{
closed = 1;
nodes = (
(634,289,l),
(572,317,l),
(558,322,l),
(558,-70,l),
(568,-70,ls),
(573.93,-69.88,o),
(581.13,-68.69,o),
(589.61,-66.41,cs),
(610.96,-60.26,o),
(622.09,-54.45,o),
(623,-49,c),
(623,259,l),
(776,259,l),
(776,-75,l),
(786,-75,ls),
(791.93,-74.88,o),
(799.13,-73.69,o),
(807.61,-71.41,cs),
(828.96,-65.26,o),
(840.09,-59.45,o),
(841,-54,c),
(841,248,l),
(858.95,252,o),
(872.61,258.33,o),
(882,267,c),
(801,328,l),
(765,289,l)
);
},
{
closed = 1;
nodes = (
(173,252,l),
(302,252,l),
(302,141,l),
(173,141,l)
);
}
);
vertWidth = 976;
width = 1000;
}
);
note = u1701C;
unicode = 94236;
}
{
glyphname = u1701D;
layers = (
{
hints = (
{
horizontal = 1;
place = (-68, 58);
type = Stem;
},
{
horizontal = 1;
place = (394, 20);
type = Stem;
},
{
horizontal = 1;
place = (728, 30);
type = Stem;
},
{
place = (579, 65);
type = Stem;
},
{
place = (679, 65);
type = Stem;
},
{
place = (884, 16);
type = Stem;
},
{
place = (311, 57);
type = Stem;
},
{
place = (318, 64);
type = Stem;
}
);
layerId = "CB7FBE56-FAF0-4485-826E-02FDEC4040B6";
shapes = (
{
closed = 1;
nodes = (
(913,728,ls),
(927.17,728.38,o),
(936.17,733.72,o),
(940,744,c),
(847,823,l),
(797,758,l),
(62,758,l),
(71,728,l)
);
},
{
closed = 1;
nodes = (
(397.85,518.54,o),
(406.18,522.2,o),
(414,530,c),
(328,580,l),
(306.43,539.79,o),
(281.1,499.13,o),
(252,458,c),
(227.45,473.03,o),
(200.78,486.7,o),
(172,499,c),
(221.64,538.88,o),
(263.64,585.55,o),
(298,639,c),
(300.42,638.5,o),
(304.09,638.17,o),
(309,638,cs),
(317.96,637.46,o),
(325.3,640.46,o),
(331,647,c),
(243,696,l),
(197,590.12,o),
(140.66,508.79,o),
(74,452,c),
(84,439,l),
(109.5,454.16,o),
(134.16,470.49,o),
(158,488,c),
(185.22,468.34,o),
(209.22,448.68,o),
(230,429,c),
(179.06,362.99,o),
(126.39,310.65,o),
(72,272,c),
(81,259,l),
(146.82,291.6,o),
(208.15,335.6,o),
(265,391,c),
(286.11,364.47,o),
(301.44,339.14,o),
(311,315,c),
(322,308,o),
(332,305,o),
(341,306,cs),
(342.56,306.15,o),
(344.43,306.46,o),
(346.6,306.91,cs),
(363.41,311.41,o),
(370.54,325.1,o),
(368,348,cs),
(364.68,370.14,o),
(342.01,396.8,o),
(300,428,c),
(323.18,453.94,o),
(348.18,485.27,o),
(375,522,c),
(376.89,521.34,o),
(379.98,520.62,o),
(384.28,519.84,cs),
(386.46,519.52,o),
(388.03,519.24,o),
(389,519,cs)
);
},
{
closed = 1;
nodes = (
(486.28,265.59,o),
(457.28,297.59,o),
(428,327,c),
(485.05,413.77,o),
(529.71,513.77,o),
(562,627,c),
(566.32,627.13,o),
(570.65,627.79,o),
(575,629,cs),
(584.66,630.68,o),
(593.66,636.68,o),
(602,647,c),
(505,684,l),
(473.96,511.84,o),
(426.96,373.5,o),
(364,269,c),
(379,260,l),
(398.99,286.08,o),
(411.65,303.08,o),
(417,311,c),
(450.18,267.79,o),
(477.84,226.46,o),
(500,187,c),
(464.88,94.98,o),
(419.21,12.65,o),
(363,-60,c),
(377,-70,l),
(435.8,-9.09,o),
(486.14,57.91,o),
(528,131,c),
(558.79,62.78,o),
(575.79,-0.22,o),
(579,-58,c),
(586.34,-67.63,o),
(594.67,-73.96,o),
(604,-77,c),
(622.95,-80.69,o),
(636.28,-70.36,o),
(644,-46,cs),
(657.45,4.2,o),
(627.45,79.86,o),
(554,181,c),
(586.02,247.23,o),
(610.02,317.9,o),
(626,393,c),
(627.86,393.05,o),
(630.91,393.27,o),
(635.17,393.67,cs),
(637.21,393.89,o),
(638.49,394,o),
(639.01,394,cs),
(650,396.77,o),
(658.33,403.44,o),
(664.01,414,c),
(565.01,444,l),
(554.27,371.21,o),
(537.61,300.21,o),
(515.01,231,c)
);
},
{
closed = 1;
nodes = (
(900.01,207,l),
(884.01,207,l),
(867.86,102.05,o),
(855.19,37.72,o),
(846.01,14,cs),
(841.5,3.69,o),
(834.5,-3.65,o),
(825.01,-8,c),
(818,-9.3,o),
(799.67,-9.96,o),
(770.01,-10,cs),
(766.94,-9.95,o),
(763.84,-9.69,o),
(760.71,-9.22,cs),
(749.58,-7.03,o),
(744.01,3.04,o),
(744.01,21,cs),
(744.01,282,l),
(810.14,314.7,o),
(860.47,354.04,o),
(895.01,400,c),
(902.08,398.8,o),
(907.08,398.13,o),
(910.01,398,cs),
(920.18,398.38,o),
(927.85,402.71,o),
(933.01,411,c),
(857.01,469,l),
(832.31,411.53,o),
(794.64,358.86,o),
(744.01,311,c),
(744.01,641,l),
(765.19,644.78,o),
(777.53,653.78,o),
(781.01,668,c),
(679.01,680,l),
(679.01,6,ls),
(679.12,-16.52,o),
(682.67,-33.15,o),
(689.67,-43.88,cs),
(701.11,-59.96,o),
(732.56,-68,o),
(784.01,-68,cs),
(839.71,-67.97,o),
(878.32,-65.55,o),
(899.86,-60.73,cs),
(924.63,-54.94,o),
(937.01,-42.36,o),
(937.01,-23,c),
(935.23,-13.6,o),
(923.23,-4.27,o),
(901.01,5,c)
);
},
{
closed = 1;
nodes = (
(384.25,48.07,o),
(356.59,93.4,o),
(299.01,147,c),
(317.69,175.61,o),
(333.69,202.28,o),
(347.01,227,c),
(350.08,226.48,o),
(354.41,226.14,o),
(360.01,226,cs),
(370.56,226.26,o),
(379.23,230.26,o),
(386.01,238,c),
(296.01,283,l),
(279.16,243.31,o),
(264.5,211.31,o),
(252.01,187,c),
(218.09,212.87,o),
(183.76,235.87,o),
(149.01,256,c),
(131.01,247,l),
(162.44,221.53,o),
(195.44,188.2,o),
(230.01,147,c),
(177.48,55.59,o),
(119.81,-16.74,o),
(57.01,-70,c),
(68.01,-82,l),
(140.94,-35.64,o),
(206.28,24.69,o),
(264.01,99,c),
(289.9,59.47,o),
(307.9,21.47,o),
(318.01,-15,c),
(327.1,-21.41,o),
(336.76,-25.41,o),
(347.01,-27,cs),
(349.03,-27.05,o),
(351.36,-26.94,o),
(353.98,-26.67,cs),
(371.81,-23.91,o),
(381.15,-11.36,o),
(382.01,11,cs)
);
}
);
vertWidth = 976;
width = 1000;
}
);
note = u1701D;
unicode = 94237;
}
{
glyphname = u1701E;
layers = (
{
hints = (
{
horizontal = 1;
place = (118, 30);
type = Stem;
},
{
horizontal = 1;
place = (285, 30);
type = Stem;
},
{
horizontal = 1;
place = (357, 30);
type = Stem;
},
{
horizontal = 1;
place = (444, 30);
type = Stem;
},
{
horizontal = 1;
place = (529, 21);
target = up;
type = BottomGhost;
},
{
horizontal = 1;
place = (605, 30);
type = Stem;
},
{
horizontal = 1;
place = (729, 30);
type = Stem;
},
{
place = (351, 62);
type = Stem;
},
{
place = (526, 65);
type = Stem;
},
{
place = (710, 65);
type = Stem;
},
{
place = (183, 75);
type = Stem;
},
{
place = (167, 90);
type = Stem;
}
);
layerId = "CB7FBE56-FAF0-4485-826E-02FDEC4040B6";
shapes = (
{
closed = 1;
nodes = (
(813,759,l),
(49,759,l),
(58,729,l),
(929,729,ls),
(943.17,729.38,o),
(952.17,734.72,o),
(956,745,c),
(863,824,l)
);
},
{
closed = 1;
nodes = (
(471,643,o),
(476,642,o),
(480,642,cs),
(489.22,642.37,o),
(496.89,646.71,o),
(503,655,c),
(412,709,l),
(393.3,674.04,o),
(371.51,639.99,o),
(346.64,606.85,cs),
(266.92,501.27,o),
(171.38,422.66,o),
(60,371,c),
(67,355,l),
(91.95,363.03,o),
(117.02,372.64,o),
(142.22,383.81,cs),
(271.71,441.69,o),
(379.3,528.75,o),
(465,645,c)
);
},
{
closed = 1;
nodes = (
(223.48,529.08,o),
(227.18,529.58,o),
(231.12,530.48,cs),
(249.04,535.45,o),
(258,547.62,o),
(258,567,cs),
(257.59,591.54,o),
(241.93,616.87,o),
(211,643,cs),
(184.4,664.09,o),
(151.4,682.75,o),
(112,699,c),
(101,689,l),
(120.74,669.09,o),
(137.08,648.75,o),
(150,628,cs),
(166.76,601.9,o),
(177.76,574.57,o),
(183,546,c),
(195.07,535.25,o),
(207.41,529.59,o),
(220,529,cs)
);
},
{
closed = 1;
nodes = (
(775,148,l),
(775,285,l),
(887,285,ls),
(901.17,285.38,o),
(910.17,290.72,o),
(914,301,c),
(846,360,l),
(813,315,l),
(775,315,l),
(775,444,l),
(899,444,ls),
(913.17,444.38,o),
(922.17,449.72,o),
(926,460,c),
(862,516,l),
(831,474,l),
(775,474,l),
(775,594,l),
(792.95,598,o),
(806.61,604.33,o),
(816,613,c),
(735,674,l),
(699,635,l),
(602,635,l),
(538,662,l),
(526,668,l),
(526,393,l),
(471,440,l),
(432,387,l),
(413,387,l),
(413,481,l),
(431.39,484.72,o),
(442.72,493.72,o),
(447,508,c),
(351,519,l),
(351,387,l),
(187,387,l),
(196,357,l),
(351,357,l),
(351,-75,l),
(361,-75,ls),
(366.6,-74.88,o),
(373.4,-73.69,o),
(381.39,-71.44,cs),
(401.55,-65.31,o),
(412.08,-59.5,o),
(413,-54,c),
(413,357,l),
(522,357,l),
(526,357,l),
(526,-69,l),
(536,-69,ls),
(541.93,-68.88,o),
(549.13,-67.69,o),
(557.61,-65.41,cs),
(578.96,-59.26,o),
(590.09,-53.45,o),
(591,-48,c),
(591,118,l),
(710,118,l),
(710,-74,l),
(720,-74,ls),
(725.93,-73.88,o),
(733.13,-72.69,o),
(741.61,-70.41,cs),
(762.96,-64.26,o),
(774.09,-58.45,o),
(775,-53,c),
(775,118,l),
(913,118,ls),
(927.17,118.38,o),
(936.17,123.72,o),
(940,134,c),
(875,190,l),
(845,148,l)
);
},
{
closed = 1;
nodes = (
(710,474,l),
(591,474,l),
(591,605,l),
(710,605,l)
);
},
{
closed = 1;
nodes = (
(591,315,l),
(591,444,l),
(710,444,l),
(710,315,l)
);
},
{
closed = 1;
nodes = (
(215.34,100.83,o),
(204.01,133.16,o),
(187,177,c),
(207.74,204.49,o),
(226.74,237.83,o),
(244,277,c),
(257,275.9,o),
(266.67,276.23,o),
(273,278,cs),
(281.05,280.62,o),
(287.38,284.95,o),
(292,291,c),
(195,347,l),
(165.06,250.72,o),
(122.73,164.05,o),
(68,87,c),
(79,73,l),
(111.76,99.02,o),
(136.76,121.35,o),
(154,140,c),
(162.51,94.3,o),
(166.84,56.96,o),
(167,28,cs),
(166.95,-14.5,o),
(163.95,-48.84,o),
(158,-75,c),
(167.83,-73.92,o),
(181.93,-67.47,o),
(200.3,-55.66,cs),
(232.59,-34.43,o),
(251.49,-15.54,o),
(257,1,c),
(255.64,13.04,o),
(257.64,29.71,o),
(263,51,cs),
(266.32,62.36,o),
(277.43,89.57,o),
(296.32,132.64,cs),
(310.18,164.13,o),
(320.41,187.92,o),
(327,204,c),
(303,218,l),
(302.69,217.45,o),
(302.18,216.57,o),
(301.48,215.35,cs),
(255.56,135.17,o),
(228.73,90.05,o),
(221,80,c)
);
},
{
closed = 1;
nodes = (
(591,285,l),
(710,285,l),
(710,148,l),
(591,148,l)
);
}
);
vertWidth = 976;
width = 1000;
}
);
note = u1701E;
unicode = 94238;
}
{
glyphname = u1701F;
layers = (
{
hints = (
{
horizontal = 1;
place = (-74,17);
type = Stem;
},
{
horizontal = 1;
place = (-7,11);
type = Stem;
},
{
horizontal = 1;
place = (131,30);
type = Stem;
},
{
horizontal = 1;
place = (261,30);
type = Stem;
},
{
horizontal = 1;
place = (347,30);
type = Stem;
},
{
horizontal = 1;
place = (448,30);
type = Stem;
},
{
horizontal = 1;
place = (552,14);
type = Stem;
},
{
horizontal = 1;
place = (624,30);
type = Stem;
},
{
horizontal = 1;
place = (729,30);
type = Stem;
},
{
place = (122,65);
type = Stem;
},
{
place = (277,65);
type = Stem;
},
{
place = (433,65);
type = Stem;
}
);
layerId = "CB7FBE56-FAF0-4485-826E-02FDEC4040B6";
shapes = (
{
closed = 1;
nodes = (
(913,729,ls),
(927.17,729.38,o),
(936.17,734.72,o),
(940,745,c),
(847,824,l),
(797,759,l),
(62,759,l),
(71,729,l)
);
},
{
closed = 1;
nodes = (
(856,448,l),
(876,424,l),
(887.98,419.64,o),
(899.31,418.98,o),
(910,422,cs),
(912.02,422.7,o),
(914.29,423.67,o),
(916.82,424.91,cs),
(933.59,434.18,o),
(938.32,448.88,o),
(931,469,cs),
(922,494.51,o),
(892.33,517.17,o),
(842,537,cs),
(803.93,551.03,o),
(759.27,560.7,o),
(708,566,c),
(702,552,l),
(748.56,533.25,o),
(789.89,508.58,o),
(826,478,c),
(590,478,l),
(591.2,484.07,o),
(591.54,489.4,o),
(591,494,cs),
(587.92,508.43,o),
(580.59,519.76,o),
(569,528,cs),
(551.51,539.59,o),
(535.18,548.59,o),
(520,555,c),
(705,604,l),
(723.7,604.92,o),
(737.03,609.26,o),
(745,617,c),
(642,696,l),
(606,654,l),
(127,654,l),
(136,624,l),
(573,624,l),
(111,499,l),
(89.88,494.69,o),
(71.88,488.69,o),
(57,481,c),
(113,427,l),
(138,448,l)
);
},
{
closed = 1;
nodes = (
(495,548,l),
(512.2,528.36,o),
(524.54,505.02,o),
(532,478,c),
(230,478,l)
);
},
{
closed = 1;
nodes = (
(817,429,l),
(778,377,l),
(406,377,l),
(415,347,l),
(866,347,ls),
(880.17,347.38,o),
(889.17,352.72,o),
(893,363,c)
);
},
{
closed = 1;
nodes = (
(287,-78,ls),
(292.93,-77.88,o),
(300.13,-76.69,o),
(308.61,-74.41,cs),
(329.96,-68.26,o),
(341.09,-62.45,o),
(342,-57,c),
(342,357,l),
(361.52,360.65,o),
(373.52,369.98,o),
(378,385,c),
(277,396,l),
(277,-78,l)
);
},
{
closed = 1;
nodes = (
(132,-50,ls),
(137.93,-49.88,o),
(145.13,-48.69,o),
(153.61,-46.41,cs),
(174.96,-40.26,o),
(186.09,-34.45,o),
(187,-29,c),
(187,319,l),
(206.52,322.65,o),
(218.52,331.98,o),
(223,347,c),
(122,358,l),
(122,-50,l)
);
},
{
closed = 1;
nodes = (
(766.32,52.05,o),
(803.99,87.71,o),
(831,128,c),
(847.18,128.98,o),
(859.18,133.31,o),
(867,141,c),
(788,197,l),
(749,161,l),
(625,161,l),
(804,257,l),
(820.18,257.98,o),
(832.18,262.31,o),
(840,270,c),
(745,328,l),
(708,291,l),
(540,291,l),
(548,261,l),
(704,261,l),
(560,180,l),
(539.69,176.96,o),
(526.36,174.29,o),
(520,172,c),
(570,112,l),
(594,131,l),
(751,131,l),
(729.32,100.91,o),
(699.65,71.25,o),
(662,42,c),
(630.85,56.15,o),
(601.52,72.81,o),
(574,92,c),
(565,82,l),
(583.36,60.13,o),
(604.69,39.13,o),
(629,19,c),
(579.55,-13.85,o),
(526.55,-39.19,o),
(470,-57,c),
(479,-74,l),
(548.75,-58.75,o),
(611.42,-37.08,o),
(667,-9,c),
(720.69,-43.27,o),
(781.36,-65.94,o),
(849,-77,c),
(864.44,-50.61,o),
(893.44,-27.27,o),
(936,-7,c),
(934,4,l),
(860.88,-6.15,o),
(788.88,-0.49,o),
(718,21,c)
);
},
{
closed = 1;
nodes = (
(498,284,l),
(517.52,287.65,o),
(529.52,296.98,o),
(534,312,c),
(433,323,l),
(433,-21,l),
(443,-21,ls),
(448.93,-20.88,o),
(456.13,-19.69,o),
(464.61,-17.41,cs),
(485.96,-11.26,o),
(497.09,-5.45,o),
(498,0,c)
);
}
);
vertWidth = 976;
width = 1000;
}
);
note = u1701F;
unicode = 94239;
}
{
glyphname = u17020;
layers = (
{
hints = (
{
horizontal = 1;
place = (-75,58);
type = Stem;
},
{
horizontal = 1;
place = (344,30);
type = Stem;
},
{
horizontal = 1;
place = (450,16);
type = Stem;
},
{
horizontal = 1;
place = (512,30);
type = Stem;
},
{
horizontal = 1;
place = (583,30);
type = Stem;
},
{
horizontal = 1;
place = (642.27,26.73);
type = Stem;
},
{
horizontal = 1;
place = (729,30);
type = Stem;
},
{
place = (157,63);
type = Stem;
},
{
place = (339,62);
type = Stem;
},
{
place = (510,65);
type = Stem;
},
{
place = (603,68);
type = Stem;
},
{
place = (701,67);
type = Stem;
},
{
place = (882,16);
type = Stem;
}
);
layerId = "CB7FBE56-FAF0-4485-826E-02FDEC4040B6";
shapes = (
{
closed = 1;
nodes = (
(913,729,ls),
(927.17,729.38,o),
(936.17,734.72,o),
(940,745,c),
(847,824,l),
(797,759,l),
(62,759,l),
(71,729,l)
);
},
{
closed = 1;
nodes = (
(401,658,l),
(419.39,661.72,o),
(430.72,670.72,o),
(435,685,c),
(339,696,l),
(339,364,l),
(279,416,l),
(247,374,l),
(220,374,l),
(220,583,l),
(297,583,ls),
(311.17,583.38,o),
(320.17,588.72,o),
(324,599,c),
(259,656,l),
(228,613,l),
(82,613,l),
(91,583,l),
(157,583,l),
(157,374,l),
(65,374,l),
(74,344,l),
(157,344,l),
(157,-72,l),
(167,-72,ls),
(172.76,-71.88,o),
(179.64,-70.74,o),
(187.65,-68.56,cs),
(208.27,-62.5,o),
(219.06,-56.65,o),
(220,-51,c),
(220,344,l),
(317,344,ls),
(326.39,344.19,o),
(333.72,346.53,o),
(339,351,c),
(339,-28,l),
(349,-28,ls),
(354.6,-27.88,o),
(361.4,-26.69,o),
(369.39,-24.44,cs),
(389.55,-18.31,o),
(400.08,-12.5,o),
(401,-7,c)
);
},
{
closed = 1;
nodes = (
(575,542,l),
(575,642,l),
(575.34,642.05,o),
(576.02,642.14,o),
(577.02,642.27,cs),
(597.95,645.33,o),
(608.94,654.24,o),
(610,669,c),
(510,679,l),
(510,542,l),
(427,542,l),
(435,512,l),
(660,512,ls),
(673.47,512.38,o),
(682.14,517.72,o),
(686,528,c),
(627,580,l),
(600,542,l)
);
},
{
closed = 1;
nodes = (
(905.07,381.8,o),
(910.07,381.13,o),
(913,381,cs),
(923.17,381.38,o),
(930.84,385.71,o),
(936,394,c),
(859,452,l),
(838.5,400.72,o),
(808.17,353.72,o),
(768,311,c),
(768,634,l),
(789.09,637.81,o),
(801.42,647.15,o),
(805,662,c),
(701,674,l),
(701,-3,ls),
(701.1,-20.99,o),
(703.66,-35.21,o),
(708.67,-45.67,cs),
(718.86,-65.23,o),
(747.3,-75,o),
(794,-75,cs),
(841.73,-74.97,o),
(875.7,-72.92,o),
(895.89,-68.86,cs),
(922.63,-63.22,o),
(936,-50.61,o),
(936,-31,cs),
(935.03,-19.61,o),
(922.7,-9.94,o),
(899,-2,c),
(898,218,l),
(882,218,l),
(863.29,97.07,o),
(849.95,26.74,o),
(842,7,cs),
(837.15,-4.38,o),
(830.49,-12.05,o),
(822,-16,c),
(819.13,-16.61,o),
(808.47,-16.94,o),
(790,-17,cs),
(787.42,-16.94,o),
(784.75,-16.68,o),
(782,-16.22,cs),
(772.67,-14.08,o),
(768,-4.01,o),
(768,14,cs),
(768,279,l),
(824.65,309.57,o),
(867.98,344.24,o),
(898,383,c)
);
},
{
closed = 1;
nodes = (
(654,283,ls),
(665,284.29,o),
(673.33,289.62,o),
(679,299,c),
(589,336,l),
(577.49,287,o),
(564.16,242,o),
(549,201,c),
(531.24,220.48,o),
(510.91,241.14,o),
(488,263,c),
(530.23,313.37,o),
(565.57,375.37,o),
(594,449,c),
(599.92,449.01,o),
(604.25,449.34,o),
(607,450,cs),
(617.05,451.16,o),
(624.72,456.49,o),
(630,466,c),
(531,497,l),
(509.54,383.36,o),
(473.88,290.69,o),
(424,219,c),
(437,210,l),
(451.3,223.26,o),
(463.64,235.93,o),
(474,248,c),
(497.42,215.6,o),
(516.75,185.6,o),
(532,158,c),
(495.92,70.13,o),
(450.92,-4.54,o),
(397,-66,c),
(410,-76,l),
(466.97,-25.39,o),
(516.63,34.61,o),
(559,104,c),
(585.08,47.39,o),
(599.75,-6.28,o),
(603,-57,c),
(610.46,-64.98,o),
(619.46,-70.98,o),
(630,-75,cs),
(632.59,-75.52,o),
(635.53,-75.8,o),
(638.8,-75.82,cs),
(656.19,-75,o),
(666.92,-64.4,o),
(671,-44,cs),
(683.17,2.39,o),
(655.5,68.73,o),
(588,155,c),
(609.53,199.23,o),
(627.2,241.9,o),
(641,283,c)
);
}
);
vertWidth = 976;
width = 1000;
}
);
note = u17020;
unicode = 94240;
}
{
glyphname = u17021;
layers = (
{
hints = (
{
horizontal = 1;
place = (283, 30);
type = Stem;
},
{
horizontal = 1;
place = (343, 30);
type = Stem;
},
{
horizontal = 1;
place = (382, 30);
type = Stem;
},
{
horizontal = 1;
place = (476, 30);
type = Stem;
},
{
horizontal = 1;
place = (587, 30);
type = Stem;
},
{
horizontal = 1;
place = (729, 30);
type = Stem;
},
{
place = (174, 63);
type = Stem;
},
{
place = (384, 64);
type = Stem;
},
{
place = (682, 67);
type = Stem;
},
{
place = (869, 16);
type = Stem;
},
{
horizontal = 1;
place = (-75, 58);
type = Stem;
},
{
horizontal = 1;
place = (-72, 69);
type = Stem;
},
{
horizontal = 1;
place = (-5, 13);
type = Stem;
}
);
layerId = "CB7FBE56-FAF0-4485-826E-02FDEC4040B6";
shapes = (
{
closed = 1;
nodes = (
(797,759,l),
(62,759,l),
(71,729,l),
(913,729,ls),
(927.17,729.38,o),
(936.17,734.72,o),
(940,745,c),
(847,824,l)
);
},
{
closed = 1;
nodes = (
(394.37,672.97,o),
(367.04,689.97,o),
(335,705,c),
(325,695,l),
(343.57,673.82,o),
(356.24,655.82,o),
(363,641,cs),
(374.52,617.61,o),
(381.52,596.27,o),
(384,577,c),
(394.7,568.28,o),
(405.37,563.61,o),
(416,563,cs),
(417.69,563.05,o),
(419.69,563.21,o),
(422,563.5,cs),
(439.33,566.48,o),
(448,577.98,o),
(448,598,cs),
(447.6,618.09,o),
(437.26,636.76,o),
(417,654,cs)
);
},
{
closed = 1;
nodes = (
(311,428,l),
(345,441,o),
(378,457,o),
(410,476,c),
(607,476,ls),
(621.17,476.38,o),
(630.17,481.72,o),
(634,492,c),
(561,555,l),
(525,506,l),
(457,506,l),
(514.45,546.18,o),
(563.78,593.18,o),
(605,647,c),
(611,645,o),
(616,644,o),
(620,644,cs),
(629.22,644.37,o),
(636.89,648.71,o),
(643,657,c),
(560,704,l),
(554.73,693.94,o),
(548.95,683.65,o),
(542.68,673.12,cs),
(484.42,576.24,o),
(404.53,498.87,o),
(303,441,c)
);
},
{
closed = 1;
nodes = (
(885,222,l),
(869,222,l),
(868.57,219.36,o),
(868.06,216.24,o),
(867.48,212.66,cs),
(848,92.16,o),
(834.84,23.61,o),
(828,7,cs),
(823.15,-4.38,o),
(816.49,-12.05,o),
(808,-16,c),
(804.51,-16.61,o),
(792.51,-16.95,o),
(772,-17,cs),
(769.26,-16.95,o),
(766.46,-16.68,o),
(763.59,-16.22,cs),
(753.86,-14.09,o),
(749,-4.02,o),
(749,14,cs),
(749,279,l),
(808.46,309.41,o),
(853.46,345.08,o),
(884,386,c),
(891.07,384.8,o),
(896.07,384.13,o),
(899,384,cs),
(909.17,384.38,o),
(916.84,388.71,o),
(922,397,c),
(845,455,l),
(823.92,402.77,o),
(791.92,354.44,o),
(749,310,c),
(749,634,l),
(770.09,637.81,o),
(782.42,647.15,o),
(786,662,c),
(682,674,l),
(682,-3,ls),
(682.09,-19.47,o),
(684.26,-32.81,o),
(688.51,-43.05,cs),
(698.12,-64.35,o),
(725.95,-75,o),
(772,-75,cs),
(827.56,-74.97,o),
(865.85,-72.55,o),
(886.89,-67.73,cs),
(910.96,-61.96,o),
(923,-49.72,o),
(923,-31,cs),
(922.03,-19.61,o),
(909.7,-9.94,o),
(886,-2,c)
);
},
{
closed = 1;
nodes = (
(337,343,ls),
(351.17,343.38,o),
(360.17,348.72,o),
(364,359,c),
(297,417,l),
(265,373,l),
(237,373,l),
(237,587,l),
(323,587,ls),
(337.17,587.38,o),
(346.17,592.72,o),
(350,603,c),
(283,662,l),
(250,617,l),
(90,617,l),
(99,587,l),
(174,587,l),
(174,373,l),
(67,373,l),
(76,343,l),
(174,343,l),
(174,-75,l),
(184,-75,ls),
(189.76,-74.88,o),
(196.64,-73.74,o),
(204.65,-71.56,cs),
(225.27,-65.5,o),
(236.06,-59.65,o),
(237,-54,c),
(237,343,l)
);
},
{
closed = 1;
nodes = (
(354,412,l),
(363,382,l),
(625,382,ls),
(639.17,382.38,o),
(648.17,387.72,o),
(652,398,c),
(579,462,l),
(542,412,l)
);
},
{
closed = 1;
nodes = (
(540,128,l),
(559.82,146.5,o),
(575.15,161.84,o),
(586,174,c),
(607.57,169.42,o),
(621.24,173.75,o),
(627,187,c),
(530,224,l),
(519.92,204.12,o),
(504.59,182.12,o),
(484,158,c),
(431,187,l),
(561,268,l),
(577.34,266.55,o),
(590.67,271.88,o),
(601,284,c),
(532,345,l),
(488,313,l),
(338,313,l),
(347,283,l),
(481,283,l),
(357,198,l),
(340.42,197.79,o),
(326.75,192.79,o),
(316,183,c),
(396,135,l),
(413,158,l),
(461,133,l),
(401.12,76.75,o),
(327.79,35.08,o),
(241,8,c),
(246,-5,l),
(299.93,6.4,o),
(347.93,19.73,o),
(390,35,c),
(392.91,23.09,o),
(394.91,8.76,o),
(396,-8,cs),
(395.79,-27.05,o),
(390.13,-48.38,o),
(379,-72,c),
(420.06,-76.67,o),
(458.73,-70.67,o),
(495,-54,cs),
(496.62,-53.41,o),
(498.58,-52.66,o),
(500.89,-51.74,cs),
(549.08,-31.97,o),
(591.12,7.94,o),
(627,68,c),
(647.38,67.15,o),
(662.05,69.82,o),
(671,76,c),
(605,145,l),
(562,116,l)
);
},
{
closed = 1;
nodes = (
(449.74,-5,o),
(439.74,-3,o),
(432,3,cs),
(424.96,10.38,o),
(417.29,23.72,o),
(409,43,c),
(446.91,59.22,o),
(481.91,80.22,o),
(514,106,c),
(558,83,l),
(552.77,75.22,o),
(547.08,67.43,o),
(540.92,59.65,cs),
(512.2,23.86,o),
(485.89,2.98,o),
(462,-3,cs)
);
}
);
vertWidth = 976;
width = 1000;
}
);
note = u17021;
unicode = 94241;
}
{
glyphname = u17022;
layers = (
{
hints = (
{
horizontal = 1;
place = (280,30);
type = Stem;
},
{
horizontal = 1;
place = (478,30);
type = Stem;
},
{
horizontal = 1;
place = (729,30);
type = Stem;
},
{
place = (107,65);
type = Stem;
},
{
place = (383,61);
type = Stem;
},
{
place = (462,65);
type = Stem;
},
{
place = (756,65);
type = Stem;
},
{
place = (901,16);
type = Stem;
},
{
horizontal = 1;
place = (604,30);
type = Stem;
},
{
horizontal = 1;
place = (617,30);
type = Stem;
}
);
layerId = "CB7FBE56-FAF0-4485-826E-02FDEC4040B6";
shapes = (
{
closed = 1;
nodes = (
(847,824,l),
(797,759,l),
(62,759,l),
(71,729,l),
(913,729,ls),
(927.17,729.38,o),
(936.17,734.72,o),
(940,745,c)
);
},
{
closed = 1;
nodes = (
(80,634,l),
(89,604,l),
(428,604,ls),
(442.17,604.38,o),
(451.17,609.72,o),
(455,620,c),
(374,689,l),
(332,634,l)
);
},
{
closed = 1;
nodes = (
(917,294,l),
(901,294,l),
(887.31,202.48,o),
(875.64,145.15,o),
(866,122,cs),
(861.79,112.11,o),
(856.46,105.11,o),
(850,101,cs),
(845.17,98.83,o),
(838.84,97.49,o),
(831,97,c),
(829.15,97.43,o),
(827.23,98.19,o),
(825.23,99.29,cs),
(822.41,101.52,o),
(821,112.09,o),
(821,131,cs),
(821,606,l),
(838.95,610,o),
(852.61,616.33,o),
(862,625,c),
(781,686,l),
(745,647,l),
(538,647,l),
(488,669,l),
(462,680,l),
(462,23,l),
(472,23,ls),
(477.93,23.12,o),
(485.13,24.31,o),
(493.61,26.59,cs),
(514.96,32.74,o),
(526.09,38.55,o),
(527,44,c),
(527,617,l),
(629,617,l),
(611.77,519.49,o),
(582.43,440.16,o),
(541,379,c),
(554,370,l),
(612.94,428.23,o),
(656.94,494.9,o),
(686,570,c),
(689.07,569.48,o),
(693.4,569.14,o),
(699,569,c),
(709.88,571.03,o),
(717.88,576.7,o),
(723,586,c),
(632,617,l),
(756,617,l),
(756,451,l),
(678,484,l),
(642.48,360.76,o),
(592.81,262.09,o),
(529,188,c),
(540,177,l),
(553.82,187.66,o),
(569.15,201.32,o),
(586,218,c),
(595,181,o),
(607,145,o),
(622,110,c),
(582.08,41.38,o),
(537.08,-16.62,o),
(487,-64,c),
(499,-76,l),
(555.18,-35.45,o),
(603.85,10.22,o),
(645,61,c),
(673.43,8.7,o),
(706.43,-37.3,o),
(744,-77,c),
(745.46,-74.83,o),
(747.26,-72.37,o),
(749.39,-69.63,cs),
(770.1,-44.2,o),
(795.64,-33.32,o),
(826,-37,c),
(831,-26,l),
(774.64,14,o),
(724.97,60,o),
(682,112,c),
(708.64,150.17,o),
(733.31,192.84,o),
(756,240,c),
(756,107,ls),
(756.08,88.07,o),
(758.4,74.02,o),
(762.97,64.83,cs),
(771.33,49.61,o),
(796.01,42,o),
(837,42,cs),
(844.51,41.74,o),
(853.94,42.15,o),
(865.29,43.23,cs),
(921.76,48.93,o),
(950,63.86,o),
(950,88,c),
(948.62,97.9,o),
(937.95,108.23,o),
(918,119,c)
);
},
{
closed = 1;
nodes = (
(172,527,l),
(191.52,530.65,o),
(203.52,539.98,o),
(208,555,c),
(107,566,l),
(107,9,l),
(117,9,ls),
(123.1,9,o),
(130.31,10.2,o),
(138.61,12.59,cs),
(159.96,18.74,o),
(171.09,24.55,o),
(172,30,c)
);
},
{
closed = 1;
nodes = (
(266,310,l),
(395,474,l),
(411.18,474.98,o),
(423.18,479.31,o),
(431,487,c),
(344,549,l),
(307,508,l),
(203,508,l),
(211,478,l),
(323,478,l),
(222,331,l),
(201.69,327.96,o),
(188.36,325.29,o),
(182,323,c),
(229,261,l),
(253,280,l),
(347,280,l),
(337.5,245.2,o),
(322.17,207.53,o),
(301,167,c),
(270.51,188.28,o),
(240.51,206.61,o),
(211,222,c),
(198,208,l),
(227.91,185.21,o),
(255.91,159.88,o),
(282,132,c),
(232.51,51.64,o),
(173.84,-13.7,o),
(106,-64,c),
(118,-80,l),
(192.77,-42.36,o),
(258.77,14.98,o),
(316,92,c),
(347.59,49.69,o),
(369.93,8.36,o),
(383,-32,c),
(394.05,-38.87,o),
(404.05,-42.54,o),
(413,-43,cs),
(415.61,-43.05,o),
(418.5,-42.75,o),
(421.67,-42.08,cs),
(437.39,-37.67,o),
(444.84,-24.65,o),
(444,-3,cs),
(444,33.57,o),
(410.67,79.24,o),
(344,134,c),
(372.81,181.08,o),
(395.81,228.75,o),
(413,277,c),
(429.18,277.98,o),
(441.18,282.31,o),
(449,290,c),
(369,353,l),
(334,310,l)
);
},
{
closed = 1;
nodes = (
(708,299,l),
(689.25,247.04,o),
(669.25,199.7,o),
(648,157,c),
(630.18,183.28,o),
(615.52,208.28,o),
(604,232,c),
(598,229,l),
(649.96,282.97,o),
(694.3,350.64,o),
(731,432,c),
(744,432,ls),
(747.58,432.12,o),
(751.58,432.78,o),
(756,434,c),
(756,275,l)
);
}
);
vertWidth = 976;
width = 1000;
}
);
note = u17022;
unicode = 94242;
}
{
glyphname = u17023;
layers = (
{
hints = (
{
horizontal = 1;
place = (-21, 12);
type = Stem;
},
{
horizontal = 1;
place = (110, 30);
type = Stem;
},
{
horizontal = 1;
place = (251, 30);
type = Stem;
},
{
horizontal = 1;
place = (502, 30);
type = Stem;
},
{
horizontal = 1;
place = (533, 30);
type = Stem;
},
{
horizontal = 1;
place = (614, 30);
type = Stem;
},
{
horizontal = 1;
place = (729, 30);
type = Stem;
},
{
place = (107, 65);
type = Stem;
},
{
place = (301, 65);
type = Stem;
},
{
place = (793, 68);
type = Stem;
},
{
horizontal = 1;
place = (383, 30);
type = Stem;
},
{
horizontal = 1;
place = (393, 30);
type = Stem;
}
);
layerId = "CB7FBE56-FAF0-4485-826E-02FDEC4040B6";
shapes = (
{
closed = 1;
nodes = (
(797,759,l),
(62,759,l),
(71,729,l),
(913,729,ls),
(927.17,729.38,o),
(936.17,734.72,o),
(940,745,c),
(847,824,l)
);
},
{
closed = 1;
nodes = (
(879,614,ls),
(893.17,614.38,o),
(902.17,619.72,o),
(906,630,c),
(825,699,l),
(784,644,l),
(506,644,l),
(515,614,l)
);
},
{
closed = 1;
nodes = (
(838.77,226.86,o),
(843.77,226.52,o),
(847,227,c),
(856.25,225.85,o),
(864.59,229.51,o),
(872,238,c),
(778,289,l),
(747.97,233.91,o),
(714.3,181.91,o),
(677,133,c),
(651.59,157.47,o),
(630.25,182.47,o),
(613,208,c),
(653.67,242.2,o),
(691.67,283.53,o),
(727,332,c),
(728.49,331.39,o),
(731.12,330.68,o),
(734.87,329.87,cs),
(736.86,329.54,o),
(738.24,329.25,o),
(739,329,cs),
(749.94,327.65,o),
(758.94,330.98,o),
(766,339,c),
(697,383,l),
(793,383,l),
(793,347,l),
(804,347,ls),
(811.34,347.15,o),
(820.04,348.95,o),
(830.09,352.4,cs),
(849.86,359.61,o),
(860.16,366.14,o),
(861,372,c),
(861,491,l),
(881.43,495.49,o),
(895.1,501.83,o),
(902,510,c),
(822,574,l),
(783,532,l),
(531,532,l),
(540,502,l),
(793,502,l),
(793,413,l),
(526,413,l),
(535,383,l),
(672,383,l),
(621.32,284.03,o),
(563.65,207.37,o),
(499,153,c),
(460,187,l),
(426,140,l),
(366,140,l),
(366,251,l),
(484,251,ls),
(498.17,251.38,o),
(507.17,256.72,o),
(511,267,c),
(441,327,l),
(407,281,l),
(366,281,l),
(366,380,l),
(385.92,384.21,o),
(400.26,390.87,o),
(409,400,c),
(327,462,l),
(291,423,l),
(172,423,l),
(172,533,l),
(480,533,ls),
(492.93,533.31,o),
(501.26,538.31,o),
(505,548,c),
(471.97,576.44,o),
(442.3,600.44,o),
(416,620,c),
(376,563,l),
(172,563,l),
(172,645,l),
(191.52,648.65,o),
(203.52,657.98,o),
(208,673,c),
(107,684,l),
(107,-72,l),
(117,-72,ls),
(122.93,-71.88,o),
(130.13,-70.69,o),
(138.61,-68.41,cs),
(159.96,-62.26,o),
(171.09,-56.45,o),
(172,-51,c),
(172,110,l),
(301,110,l),
(301,-70,l),
(311,-70,ls),
(333.99,-68.14,o),
(352.32,-61.14,o),
(366,-49,c),
(366,110,l),
(503,110,ls),
(517.17,110.38,o),
(526.17,115.72,o),
(530,126,c),
(513,141,l),
(537.72,154.7,o),
(564.72,172.03,o),
(594,193,c),
(609.4,158.28,o),
(627.73,126.28,o),
(649,97,c),
(595.45,33.73,o),
(537.12,-18.94,o),
(474,-61,c),
(485,-75,l),
(556.6,-41.45,o),
(622.27,1.88,o),
(682,55,c),
(730.59,0.59,o),
(789.92,-43.07,o),
(860,-76,c),
(860.36,-75.15,o),
(860.87,-73.96,o),
(861.53,-72.45,cs),
(875.45,-41.84,o),
(897.6,-24.69,o),
(928,-21,c),
(931,-9,l),
(852.43,12.75,o),
(783.1,46.75,o),
(723,93,c),
(761.59,132.67,o),
(797.92,177.67,o),
(832,228,c)
);
},
{
closed = 1;
nodes = (
(301,281,l),
(172,281,l),
(172,393,l),
(301,393,l)
);
},
{
closed = 1;
nodes = (
(172,251,l),
(301,251,l),
(301,140,l),
(172,140,l)
);
}
);
vertWidth = 976;
width = 1000;
}
);
note = u17023;
unicode = 94243;
}
{
glyphname = u17024;
layers = (
{
hints = (
{
horizontal = 1;
place = (110,30);
type = Stem;
},
{
horizontal = 1;
place = (251,30);
type = Stem;
},
{
horizontal = 1;
place = (302,30);
type = Stem;
},
{
horizontal = 1;
place = (533,30);
type = Stem;
},
{
horizontal = 1;
place = (619,30);
type = Stem;
},
{
horizontal = 1;
place = (729,30);
type = Stem;
},
{
place = (107,65);
type = Stem;
},
{
place = (301,65);
type = Stem;
},
{
place = (543,62);
type = Stem;
},
{
place = (661,65);
type = Stem;
},
{
place = (794,65);
type = Stem;
},
{
place = (861,67);
type = Stem;
},
{
horizontal = 1;
place = (423,30);
type = Stem;
},
{
horizontal = 1;
place = (393,30);
type = Stem;
}
);
layerId = "CB7FBE56-FAF0-4485-826E-02FDEC4040B6";
shapes = (
{
closed = 1;
nodes = (
(797,759,l),
(62,759,l),
(71,729,l),
(913,729,ls),
(927.17,729.38,o),
(936.17,734.72,o),
(940,745,c),
(847,824,l)
);
},
{
closed = 1;
nodes = (
(865.6,511.58,o),
(834.26,529.58,o),
(798,545,c),
(788,535,l),
(813.65,508.26,o),
(832.65,480.93,o),
(845,453,c),
(751,453,l),
(752.18,457.75,o),
(752.85,462.09,o),
(753,466,cs),
(752.77,481.18,o),
(746.77,494.51,o),
(735,506,c),
(726.31,512.21,o),
(719.31,517.54,o),
(714,522,c),
(845,599,l),
(863.7,599.92,o),
(877.03,604.26,o),
(885,612,c),
(797,685,l),
(769,649,l),
(509,649,l),
(518,619,l),
(768,619,l),
(536,474,l),
(514.88,469.69,o),
(496.88,463.69,o),
(482,456,c),
(538,402,l),
(563,423,l),
(856,423,l),
(856.63,420.97,o),
(857.54,417.43,o),
(858.72,412.36,cs),
(859.64,408.22,o),
(860.4,405.1,o),
(861,403,c),
(871.27,394.89,o),
(881.94,390.55,o),
(893,390,cs),
(895.26,390.06,o),
(897.8,390.29,o),
(900.61,390.72,cs),
(918.87,394.29,o),
(928,406.71,o),
(928,428,cs),
(927.62,449.37,o),
(915.62,470.37,o),
(892,491,cs)
);
},
{
closed = 1;
nodes = (
(366,140,l),
(366,251,l),
(484,251,ls),
(498.17,251.38,o),
(507.17,256.72,o),
(511,267,c),
(441,327,l),
(407,281,l),
(366,281,l),
(366,380,l),
(385.92,384.21,o),
(400.26,390.87,o),
(409,400,c),
(327,462,l),
(291,423,l),
(172,423,l),
(172,533,l),
(480,533,ls),
(492.93,533.31,o),
(501.26,538.31,o),
(505,548,c),
(471.97,576.44,o),
(442.3,600.44,o),
(416,620,c),
(376,563,l),
(172,563,l),
(172,645,l),
(191.52,648.65,o),
(203.52,657.98,o),
(208,673,c),
(107,684,l),
(107,-72,l),
(117,-72,ls),
(122.93,-71.88,o),
(130.13,-70.69,o),
(138.61,-68.41,cs),
(159.96,-62.26,o),
(171.09,-56.45,o),
(172,-51,c),
(172,110,l),
(301,110,l),
(301,-70,l),
(311,-70,ls),
(333.99,-68.14,o),
(352.32,-61.14,o),
(366,-49,c),
(366,110,l),
(503,110,ls),
(517.17,110.38,o),
(526.17,115.72,o),
(530,126,c),
(460,187,l),
(426,140,l)
);
},
{
closed = 1;
nodes = (
(681,502,l),
(685.08,493,o),
(689.08,476.67,o),
(693,453,c),
(598,453,l)
);
},
{
closed = 1;
nodes = (
(301,281,l),
(172,281,l),
(172,393,l),
(301,393,l)
);
},
{
closed = 1;
nodes = (
(553,-76,ls),
(558.6,-75.88,o),
(565.4,-74.69,o),
(573.39,-72.44,cs),
(593.55,-66.31,o),
(604.08,-60.5,o),
(605,-55,c),
(605,339,l),
(623.39,342.72,o),
(634.72,351.72,o),
(639,366,c),
(543,377,l),
(543,-76,l)
);
},
{
closed = 1;
nodes = (
(737,332,l),
(661,365,l),
(661,-70,l),
(671,-70,ls),
(676.93,-69.88,o),
(684.13,-68.69,o),
(692.61,-66.41,cs),
(713.96,-60.26,o),
(725.09,-54.45,o),
(726,-49,c),
(726,302,l),
(794,302,l),
(794,-75,l),
(804,-75,ls),
(809.93,-74.88,o),
(817.13,-73.69,o),
(825.61,-71.41,cs),
(846.96,-65.26,o),
(858.09,-59.45,o),
(859,-54,c),
(859,291,l),
(876.95,295,o),
(890.61,301.33,o),
(900,310,c),
(819,371,l),
(783,332,l)
);
},
{
closed = 1;
nodes = (
(172,251,l),
(301,251,l),
(301,140,l),
(172,140,l)
);
}
);
vertWidth = 976;
width = 1000;
}
);
note = u17024;
unicode = 94244;
}
{
glyphname = u17025;
layers = (
{
hints = (
{
horizontal = 1;
place = (-75,58);
type = Stem;
},
{
horizontal = 1;
place = (341,30);
type = Stem;
},
{
horizontal = 1;
place = (487,30);
type = Stem;
},
{
horizontal = 1;
place = (580,30);
type = Stem;
},
{
horizontal = 1;
place = (729,30);
type = Stem;
},
{
place = (162,65.5);
type = Stem;
},
{
place = (332,61);
type = Stem;
},
{
place = (480,63);
type = Stem;
},
{
place = (682,67);
type = Stem;
},
{
place = (869,16);
type = Stem;
}
);
layerId = "CB7FBE56-FAF0-4485-826E-02FDEC4040B6";
shapes = (
{
closed = 1;
nodes = (
(797,759,l),
(62,759,l),
(71,729,l),
(913,729,ls),
(927.17,729.38,o),
(936.17,734.72,o),
(940,745,c),
(847,824,l)
);
},
{
closed = 1;
nodes = (
(414,487,ls),
(428.17,487.38,o),
(437.17,492.72,o),
(441,503,c),
(369,565,l),
(334,517,l),
(275,517,l),
(311.93,554.07,o),
(347.6,597.73,o),
(382,648,c),
(400.01,645.94,o),
(413.34,650.94,o),
(422,663,c),
(319,698,l),
(296.29,634.12,o),
(271.96,573.79,o),
(246,517,c),
(90,517,l),
(99,487,l)
);
},
{
closed = 1;
nodes = (
(110,690,l),
(142.52,645.48,o),
(159.86,602.81,o),
(162,562,c),
(178.81,543.69,o),
(195.42,539.97,o),
(211.85,550.84,cs),
(227.76,561.37,o),
(232.98,578.12,o),
(227.5,601.09,cs),
(218.6,638.46,o),
(183.43,669.43,o),
(122,694,c)
);
},
{
closed = 1;
nodes = (
(885,218,l),
(869,218,l),
(850.29,97.07,o),
(836.95,26.74,o),
(829,7,cs),
(824.13,-4.41,o),
(817.47,-11.74,o),
(809,-15,cs),
(805.51,-16.23,o),
(793.18,-16.89,o),
(772,-17,cs),
(769.26,-16.95,o),
(766.46,-16.68,o),
(763.59,-16.22,cs),
(753.86,-14.09,o),
(749,-4.02,o),
(749,14,cs),
(749,279,l),
(808.46,309.41,o),
(853.46,345.08,o),
(884,386,c),
(891.07,384.8,o),
(896.07,384.13,o),
(899,384,cs),
(909.17,384.38,o),
(916.84,388.71,o),
(922,397,c),
(845,455,l),
(823.92,402.77,o),
(791.92,354.44,o),
(749,310,c),
(749,634,l),
(770.09,637.81,o),
(782.42,647.15,o),
(786,662,c),
(682,674,l),
(682,-3,ls),
(682.1,-20.99,o),
(684.66,-35.21,o),
(689.67,-45.67,cs),
(699.86,-65.23,o),
(728.3,-75,o),
(775,-75,cs),
(828.07,-74.97,o),
(864.98,-72.67,o),
(885.75,-68.1,cs),
(910.59,-62.38,o),
(923,-50.01,o),
(923,-31,cs),
(922.03,-19.61,o),
(909.7,-9.94,o),
(886,-2,c)
);
},
{
closed = 1;
nodes = (
(543,371,l),
(543,580,l),
(626,580,ls),
(640.17,580.38,o),
(649.17,585.72,o),
(653,596,c),
(588,653,l),
(557,610,l),
(399,610,l),
(408,580,l),
(480,580,l),
(480,371,l),
(381,371,l),
(390,341,l),
(480,341,l),
(480,-72,l),
(490,-72,ls),
(495.76,-71.88,o),
(502.64,-70.74,o),
(510.65,-68.56,cs),
(531.27,-62.5,o),
(542.06,-56.65,o),
(543,-51,c),
(543,341,l),
(647,341,ls),
(661.17,341.38,o),
(670.17,346.72,o),
(674,357,c),
(608,414,l),
(577,371,l)
);
},
{
closed = 1;
nodes = (
(214.72,203.16,o),
(182.72,225.82,o),
(150,246,c),
(205.47,294.4,o),
(250.47,352.73,o),
(285,421,c),
(287.86,420.49,o),
(291.86,420.15,o),
(297,420,cs),
(308.89,419.58,o),
(317.56,423.58,o),
(323,432,c),
(221,475,l),
(191.46,384.54,o),
(155.12,306.54,o),
(112,241,c),
(153.91,208.39,o),
(191.25,172.39,o),
(224,133,c),
(183.64,55.31,o),
(136.31,-10.69,o),
(82,-65,c),
(95,-77,l),
(157.73,-29.55,o),
(212.73,24.78,o),
(260,86,c),
(295.44,35.14,o),
(319.44,-16.86,o),
(332,-70,c),
(339.65,-75.49,o),
(347.32,-78.49,o),
(355,-79,cs),
(358.02,-78.9,o),
(361.27,-78.36,o),
(364.77,-77.38,cs),
(383.59,-70.88,o),
(393,-52.09,o),
(393,-21,cs),
(392.51,22.16,o),
(359.51,74.49,o),
(294,136,c),
(323,181,o),
(348,229,o),
(369,280,c),
(372.17,279.47,o),
(376.84,279.13,o),
(383,279,cs),
(393.38,279.44,o),
(402.05,284.44,o),
(409,294,c),
(308,341,l),
(291.86,286.13,o),
(271.19,231.8,o),
(246,178,c)
);
}
);
vertWidth = 976;
width = 1000;
}
);
note = u17025;
unicode = 94245;
}
{
glyphname = u17026;
layers = (
{
hints = (
{
horizontal = 1;
place = (138,30);
type = Stem;
},
{
horizontal = 1;
place = (311,30);
type = Stem;
},
{
horizontal = 1;
place = (378,30);
type = Stem;
},
{
horizontal = 1;
place = (467,30);
type = Stem;
},
{
horizontal = 1;
place = (538,-20);
target = down;
type = TopGhost;
},
{
horizontal = 1;
place = (549,30);
type = Stem;
},
{
horizontal = 1;
place = (664.27,26.73);
type = Stem;
},
{
horizontal = 1;
place = (729,30);
type = Stem;
},
{
place = (118,74);
type = Stem;
},
{
place = (233,62);
type = Stem;
},
{
place = (507,65);
type = Stem;
},
{
place = (652,65);
type = Stem;
},
{
place = (786,65);
type = Stem;
},
{
place = (436,65);
type = Stem;
},
{
place = (371,65);
type = Stem;
}
);
layerId = "CB7FBE56-FAF0-4485-826E-02FDEC4040B6";
shapes = (
{
closed = 1;
nodes = (
(913,729,ls),
(927.17,729.38,o),
(936.17,734.72,o),
(940,745,c),
(847,824,l),
(797,759,l),
(62,759,l),
(71,729,l)
);
},
{
closed = 1;
nodes = (
(436,701,l),
(436,579,l),
(341,579,l),
(349,549,l),
(607,549,ls),
(620.47,549.38,o),
(629.14,554.72,o),
(633,565,c),
(572,619,l),
(543,579,l),
(501,579,l),
(501,664,l),
(501.34,664.05,o),
(502.02,664.14,o),
(503.02,664.27,cs),
(523.95,667.33,o),
(534.94,676.24,o),
(536,691,c)
);
},
{
closed = 1;
nodes = (
(801.6,632.3,o),
(805.94,631.3,o),
(810,631,cs),
(820.15,630.5,o),
(828.82,633.83,o),
(836,641,c),
(742,699,l),
(699,604.17,o),
(649,531.17,o),
(592,480,c),
(603,467,l),
(603.56,467.3,o),
(604.45,467.77,o),
(605.68,468.42,cs),
(684.38,510.43,o),
(748.16,565.62,o),
(797,634,c)
);
},
{
closed = 1;
nodes = (
(386,467,ls),
(400.17,467.38,o),
(409.17,472.72,o),
(413,483,c),
(351,538,l),
(321,497,l),
(295,497,l),
(295,656,l),
(313.25,659.74,o),
(324.58,669.07,o),
(329,684,c),
(233,695,l),
(233,497,l),
(65,497,l),
(74,467,l),
(233,467,l),
(233,395,l),
(139,447,l),
(111.47,345.97,o),
(76.81,256.64,o),
(35,179,c),
(47,167,l),
(72.71,192.74,o),
(93.04,215.07,o),
(108,234,c),
(116.02,177.36,o),
(119.35,128.03,o),
(118,86,cs),
(117.29,61.57,o),
(111.96,19.23,o),
(102,-41,c),
(110.46,-41,o),
(122.45,-36.05,o),
(137.99,-26.14,cs),
(166.77,-7.8,o),
(184.77,9.92,o),
(192,27,c),
(190.99,44,o),
(194.66,69.66,o),
(203,104,cs),
(205.88,120.27,o),
(215.88,160.27,o),
(233,224,c),
(233,-75,l),
(243,-75,ls),
(248.6,-74.88,o),
(255.4,-73.69,o),
(263.39,-71.44,cs),
(283.55,-65.31,o),
(294.08,-59.5,o),
(295,-54,c),
(295,467,l)
);
},
{
closed = 1;
nodes = (
(862,168,l),
(851,168,l),
(851,300,l),
(868.95,304,o),
(882.61,310.33,o),
(892,319,c),
(811,380,l),
(775,341,l),
(728,341,l),
(683,361,l),
(738.2,397.06,o),
(789.54,444.4,o),
(837,503,c),
(843,501,o),
(848,500,o),
(852,500,cs),
(862.26,499.35,o),
(870.59,502.69,o),
(877,510,c),
(791,565,l),
(728.84,458.63,o),
(661.51,379.3,o),
(589,327,c),
(598,314,l),
(619.39,324.15,o),
(637.39,333.48,o),
(652,342,c),
(652,168,l),
(588,168,l),
(597,138,l),
(652,138,l),
(652,-70,l),
(662,-70,ls),
(667.93,-69.88,o),
(675.13,-68.69,o),
(683.61,-66.41,cs),
(704.96,-60.26,o),
(716.09,-54.45,o),
(717,-49,c),
(717,138,l),
(786,138,l),
(786,-75,l),
(796,-75,ls),
(801.93,-74.88,o),
(809.13,-73.69,o),
(817.61,-71.41,cs),
(838.96,-65.26,o),
(850.09,-59.45,o),
(851,-54,c),
(851,138,l),
(937,138,ls),
(951.17,138.38,o),
(960.17,143.72,o),
(964,154,c),
(895,214,l)
);
},
{
closed = 1;
nodes = (
(496,408,l),
(447,408,l),
(384,435,l),
(371,441,l),
(371,-70,l),
(381,-70,ls),
(386.93,-69.88,o),
(394.13,-68.69,o),
(402.61,-66.41,cs),
(423.96,-60.26,o),
(435.09,-54.45,o),
(436,-49,c),
(436,378,l),
(507,378,l),
(507,-75,l),
(517,-75,ls),
(522.93,-74.88,o),
(530.13,-73.69,o),
(538.61,-71.41,cs),
(559.96,-65.26,o),
(571.09,-59.45,o),
(572,-54,c),
(572,367,l),
(589.95,371,o),
(603.61,377.33,o),
(613,386,c),
(532,447,l)
);
},
{
closed = 1;
nodes = (
(164.43,177.41,o),
(153.1,218.74,o),
(135,272,c),
(154.62,301.57,o),
(172.95,337.24,o),
(190,379,c),
(201.38,376.97,o),
(210.71,376.97,o),
(218,379,cs),
(223.81,380.13,o),
(228.81,382.46,o),
(233,386,c),
(233,326,l),
(231.44,321.66,o),
(229.74,316.89,o),
(227.89,311.67,cs),
(191.25,208.33,o),
(171.62,153.77,o),
(169,148,c)
);
},
{
closed = 1;
nodes = (
(717,311,l),
(786,311,l),
(786,168,l),
(717,168,l)
);
}
);
vertWidth = 976;
width = 1000;
}
);
note = u17026;
unicode = 94246;
}
{
glyphname = u17027;
layers = (
{
hints = (
{
horizontal = 1;
place = (-75, 58);
type = Stem;
},
{
horizontal = 1;
place = (138, 30);
type = Stem;
},
{
horizontal = 1;
place = (311, 30);
type = Stem;
},
{
horizontal = 1;
place = (729, 30);
type = Stem;
},
{
place = (263, 68);
type = Stem;
},
{
place = (386, 65);
type = Stem;
},
{
place = (526, 65);
type = Stem;
},
{
place = (682, 67);
type = Stem;
},
{
place = (869, 16);
type = Stem;
},
{
horizontal = 1;
place = (501, 29);
type = Stem;
},
{
horizontal = 1;
place = (523, -20);
target = down;
type = TopGhost;
}
);
layerId = "CB7FBE56-FAF0-4485-826E-02FDEC4040B6";
shapes = (
{
closed = 1;
nodes = (
(797,759,l),
(62,759,l),
(71,729,l),
(913,729,ls),
(927.17,729.38,o),
(936.17,734.72,o),
(940,745,c),
(847,824,l)
);
},
{
closed = 1;
nodes = (
(272.95,637.16,o),
(277.29,637.16,o),
(281,638,c),
(291.49,638.41,o),
(299.49,643.08,o),
(305,652,c),
(207,691,l),
(178.43,582.41,o),
(138.1,495.41,o),
(86,430,c),
(98,420,l),
(169.65,477.73,o),
(226.31,550.39,o),
(268,638,c)
);
},
{
closed = 1;
nodes = (
(885,218,l),
(869,218,l),
(850.29,97.07,o),
(836.95,26.74,o),
(829,7,cs),
(824.13,-4.41,o),
(817.47,-11.74,o),
(809,-15,cs),
(805.51,-16.23,o),
(793.18,-16.89,o),
(772,-17,cs),
(769.26,-16.95,o),
(766.46,-16.68,o),
(763.59,-16.22,cs),
(753.86,-14.09,o),
(749,-4.02,o),
(749,14,cs),
(749,279,l),
(808.46,309.41,o),
(853.46,345.08,o),
(884,386,c),
(891.07,384.8,o),
(896.07,384.13,o),
(899,384,cs),
(909.17,384.38,o),
(916.84,388.71,o),
(922,397,c),
(845,455,l),
(823.92,402.77,o),
(791.92,354.44,o),
(749,310,c),
(749,634,l),
(770.09,637.81,o),
(782.42,647.15,o),
(786,662,c),
(682,674,l),
(682,181,l),
(644,214,l),
(610,168,l),
(591,168,l),
(591,300,l),
(608.95,304,o),
(622.61,310.33,o),
(632,319,c),
(551,380,l),
(515,341,l),
(462,341,l),
(427,357,l),
(515.45,396.55,o),
(579.45,442.21,o),
(619,494,c),
(637.7,494.92,o),
(651.03,499.26,o),
(659,507,c),
(572,569,l),
(541,530,l),
(495,530,l),
(535.79,565.38,o),
(572.12,602.38,o),
(604,641,c),
(621.64,639.03,o),
(634.98,644.36,o),
(644,657,c),
(541,690,l),
(518.17,635.52,o),
(492.83,582.19,o),
(465,530,c),
(343,530,l),
(352,501,l),
(543,501,l),
(500.73,446.43,o),
(426.73,388.1,o),
(321,326,c),
(328,314,l),
(358.25,326.72,o),
(377.58,335.05,o),
(386,339,c),
(386,168,l),
(294,168,l),
(303,138,l),
(386,138,l),
(386,-70,l),
(396,-70,ls),
(401.93,-69.88,o),
(409.13,-68.69,o),
(417.61,-66.41,cs),
(438.96,-60.26,o),
(450.09,-54.45,o),
(451,-49,c),
(451,138,l),
(526,138,l),
(526,-75,l),
(536,-75,ls),
(541.93,-74.88,o),
(549.13,-73.69,o),
(557.61,-71.41,cs),
(578.96,-65.26,o),
(590.09,-59.45,o),
(591,-54,c),
(591,138,l),
(682,138,l),
(682,-3,ls),
(682.1,-20.99,o),
(684.66,-35.21,o),
(689.67,-45.67,cs),
(699.86,-65.23,o),
(728.3,-75,o),
(775,-75,cs),
(828.07,-74.97,o),
(864.98,-72.67,o),
(885.75,-68.1,cs),
(910.59,-62.38,o),
(923,-50.01,o),
(923,-31,cs),
(922.03,-19.61,o),
(909.7,-9.94,o),
(886,-2,c)
);
},
{
closed = 1;
nodes = (
(327,679,l),
(357.74,646.72,o),
(376.08,611.72,o),
(382,574,c),
(400.88,558.36,o),
(418.06,556.42,o),
(433.53,568.17,cs),
(448.4,579.46,o),
(452.41,595.35,o),
(445.56,615.83,cs),
(434.39,649.2,o),
(398.54,672.26,o),
(338,685,c)
);
},
{
closed = 1;
nodes = (
(310.92,257.01,o),
(315.25,257.34,o),
(318,258,cs),
(329.63,260.14,o),
(337.97,265.81,o),
(343,275,c),
(245,314,l),
(233.99,266.79,o),
(222.33,225.45,o),
(210,190,c),
(191.26,211.09,o),
(167.59,234.75,o),
(139,261,c),
(196.95,313.9,o),
(248.28,382.56,o),
(293,467,c),
(296.07,466.48,o),
(300.4,466.14,o),
(306,466,cs),
(316.57,467.11,o),
(324.9,471.78,o),
(331,480,c),
(235,523,l),
(192.39,396.7,o),
(137.39,298.04,o),
(70,227,c),
(81,215,l),
(100.31,229.16,o),
(114.64,240.16,o),
(124,248,c),
(151.77,213.73,o),
(175.1,179.73,o),
(194,146,c),
(160.62,62.37,o),
(118.95,-8.63,o),
(69,-67,c),
(82,-77,l),
(138.75,-26.07,o),
(186.09,28.59,o),
(224,87,c),
(246.95,34.31,o),
(259.95,-13.02,o),
(263,-55,c),
(272.06,-63.84,o),
(281.06,-69.5,o),
(290,-72,cs),
(291.86,-72.36,o),
(294.05,-72.64,o),
(296.56,-72.84,cs),
(315.2,-73.42,o),
(326.68,-62.48,o),
(331,-40,cs),
(340.62,2.47,o),
(314.95,62.14,o),
(254,139,c),
(274.06,176.25,o),
(291.06,215.58,o),
(305,257,c)
);
},
{
closed = 1;
nodes = (
(451,311,l),
(526,311,l),
(526,168,l),
(451,168,l)
);
}
);
vertWidth = 976;
width = 1000;
}
);
note = u17027;
unicode = 94247;
}
{
glyphname = u17028;
layers = (
{
hints = (
{
horizontal = 1;
place = (-75, 58);
type = Stem;
},
{
horizontal = 1;
place = (141, 30);
type = Stem;
},
{
horizontal = 1;
place = (251, 30);
type = Stem;
},
{
horizontal = 1;
place = (472, 30);
type = Stem;
},
{
horizontal = 1;
place = (617, 30);
type = Stem;
},
{
horizontal = 1;
place = (729, 30);
type = Stem;
},
{
place = (415, 63);
type = Stem;
},
{
place = (518, 69);
type = Stem;
},
{
place = (636, 67);
type = Stem;
},
{
place = (846, 16);
type = Stem;
},
{
place = (174, 63);
type = Stem;
},
{
place = (294, 64);
type = Stem;
},
{
place = (127, 65);
type = Stem;
},
{
place = (238, 65);
type = Stem;
}
);
layerId = "CB7FBE56-FAF0-4485-826E-02FDEC4040B6";
shapes = (
{
closed = 1;
nodes = (
(797,759,l),
(62,759,l),
(71,729,l),
(913,729,ls),
(927.17,729.38,o),
(936.17,734.72,o),
(940,745,c),
(847,824,l)
);
},
{
closed = 1;
nodes = (
(496,703,l),
(453,647,l),
(122,647,l),
(131,617,l),
(551,617,ls),
(565.17,617.38,o),
(574.17,622.72,o),
(578,633,c)
);
},
{
closed = 1;
nodes = (
(862,203,l),
(846,203,l),
(845.94,202.66,o),
(845.83,201.98,o),
(845.66,200.97,cs),
(826.96,88.33,o),
(814.07,23.68,o),
(807,7,cs),
(802.49,-3.31,o),
(795.49,-10.65,o),
(786,-15,c),
(778.95,-16.3,o),
(760.28,-16.96,o),
(730,-17,cs),
(726.08,-16.94,o),
(722.3,-16.56,o),
(718.67,-15.87,cs),
(708.22,-13.35,o),
(703,-3.39,o),
(703,14,cs),
(703,279,l),
(771.03,312.12,o),
(822.37,352.45,o),
(857,400,c),
(864.07,398.8,o),
(869.07,398.13,o),
(872,398,cs),
(882.17,398.38,o),
(889.84,402.71,o),
(895,411,c),
(818,469,l),
(793.55,409.36,o),
(755.22,355.36,o),
(703,307,c),
(703,642,l),
(724.09,645.81,o),
(736.42,655.15,o),
(740,670,c),
(636,682,l),
(636,-1,ls),
(636.11,-22.58,o),
(639.55,-38.78,o),
(646.32,-49.58,cs),
(657.89,-66.53,o),
(689.44,-75,o),
(741,-75,cs),
(799.42,-74.97,o),
(839.67,-72.5,o),
(861.76,-67.58,cs),
(886.59,-61.8,o),
(899.01,-49.27,o),
(899.01,-30,c),
(897.23,-20.6,o),
(885.23,-11.27,o),
(863.01,-2,c)
);
},
{
closed = 1;
nodes = (
(184.01,390,ls),
(189.77,390.12,o),
(196.65,391.26,o),
(204.66,393.44,cs),
(225.28,399.5,o),
(236.07,405.35,o),
(237.01,411,c),
(237.01,472,l),
(294.01,472,l),
(294.01,362,l),
(304.01,362,ls),
(310.04,362.12,o),
(317.3,363.36,o),
(325.8,365.71,cs),
(346.37,371.83,o),
(357.1,377.59,o),
(358.01,383,c),
(358.01,472,l),
(415.01,472,l),
(415.01,403,l),
(425.01,403,ls),
(430.77,403.12,o),
(437.65,404.26,o),
(445.66,406.44,cs),
(466.28,412.5,o),
(477.07,418.35,o),
(478.01,424,c),
(478.01,472,l),
(581.01,472,ls),
(595.18,472.38,o),
(604.18,477.72,o),
(608.01,488,c),
(537.01,549,l),
(502.01,502,l),
(478.01,502,l),
(478.01,552,l),
(497.53,555.65,o),
(509.53,564.98,o),
(514.01,580,c),
(415.01,591,l),
(415.01,502,l),
(358.01,502,l),
(358.01,557,l),
(376.89,560.69,o),
(388.56,570.02,o),
(393.01,585,c),
(294.01,596,l),
(294.01,502,l),
(237.01,502,l),
(237.01,551,l),
(256.67,554.63,o),
(268.67,563.63,o),
(273.01,578,c),
(174.01,589,l),
(174.01,502,l),
(83.01,502,l),
(92.01,472,l),
(174.01,472,l),
(174.01,390,l)
);
},
{
closed = 1;
nodes = (
(462.77,149.71,o),
(444.1,165.71,o),
(421.01,185,c),
(458.05,227.77,o),
(490.05,278.44,o),
(517.01,337,c),
(522.93,335.82,o),
(527.26,335.15,o),
(530.01,335,cs),
(540.34,336.05,o),
(549.34,341.05,o),
(557.01,350,c),
(464.01,395,l),
(435.28,284.79,o),
(394.62,196.79,o),
(342.01,131,c),
(354.01,120,l),
(366.35,130.46,o),
(383.35,146.46,o),
(405.01,168,c),
(422.26,147.94,o),
(439.59,124.94,o),
(457.01,99,c),
(418.46,31.46,o),
(378.46,-23.21,o),
(337.01,-65,c),
(349.01,-76,l),
(399.87,-40.34,o),
(444.87,2,o),
(484.01,51,c),
(502.39,12.96,o),
(513.73,-23.7,o),
(518.01,-59,c),
(527.23,-67.09,o),
(536.56,-72.43,o),
(546.01,-75,cs),
(549.11,-75.52,o),
(552.18,-75.62,o),
(555.24,-75.3,cs),
(573.21,-73.45,o),
(583.8,-61.68,o),
(587.01,-40,cs),
(591.8,-7.28,o),
(568.47,38.06,o),
(517.01,96,c),
(540.01,130,o),
(561.01,166,o),
(580.01,204,c),
(585.93,202.82,o),
(590.26,202.15,o),
(593.01,202,cs),
(604.43,202.3,o),
(613.76,206.63,o),
(621.01,215,c),
(531.01,266,l),
(513.89,217.96,o),
(495.89,174.96,o),
(477.01,137,c)
);
},
{
closed = 1;
nodes = (
(264.01,210,l),
(228.01,171,l),
(192.01,171,l),
(192.01,251,l),
(349.01,251,ls),
(361.94,251.31,o),
(370.27,256.31,o),
(374.01,266,c),
(345.95,292.01,o),
(324.61,311.01,o),
(310.01,323,c),
(280.01,281,l),
(192.01,281,l),
(192.01,338,l),
(211.53,341.65,o),
(223.53,350.98,o),
(228.01,366,c),
(127.01,377,l),
(127.01,-75,l),
(137.01,-75,ls),
(142.94,-74.88,o),
(150.14,-73.69,o),
(158.62,-71.41,cs),
(179.97,-65.26,o),
(191.1,-59.45,o),
(192.01,-54,c),
(192.01,141,l),
(238.01,141,l),
(238.01,-73,l),
(248.01,-73,ls),
(271,-71.14,o),
(289.33,-64.14,o),
(303.01,-52,c),
(303.01,128,l),
(322.93,132.21,o),
(337.27,138.87,o),
(346.01,148,c)
);
}
);
vertWidth = 976;
width = 1000;
}
);
note = u17028;
unicode = 94248;
}
{
glyphname = u17029;
layers = (
{
hints = (
{
horizontal = 1;
place = (-75,57);
type = Stem;
},
{
horizontal = 1;
place = (399,30);
type = Stem;
},
{
horizontal = 1;
place = (526,-20);
target = down;
type = TopGhost;
},
{
horizontal = 1;
place = (548,30);
type = Stem;
},
{
horizontal = 1;
place = (729,30);
type = Stem;
},
{
place = (230,68);
type = Stem;
},
{
place = (308,65);
type = Stem;
},
{
place = (413,65);
type = Stem;
},
{
place = (538,63);
type = Stem;
},
{
place = (743,67);
type = Stem;
},
{
place = (893,17);
type = Stem;
},
{
place = (637,60);
type = Stem;
},
{
place = (682,18);
type = Stem;
},
{
place = (661,62);
type = Stem;
}
);
layerId = "CB7FBE56-FAF0-4485-826E-02FDEC4040B6";
shapes = (
{
closed = 1;
nodes = (
(913,729,ls),
(927.17,729.38,o),
(936.17,734.72,o),
(940,745,c),
(847,824,l),
(797,759,l),
(62,759,l),
(71,729,l)
);
},
{
closed = 1;
nodes = (
(601,578,l),
(601,666,l),
(621.54,669.83,o),
(633.54,678.83,o),
(637,693,c),
(538,704,l),
(538,578,l),
(496,578,l),
(505,548,l),
(538,548,l),
(538,429,l),
(491,429,l),
(500,399,l),
(538,399,l),
(538,90,l),
(519.63,71.72,o),
(499.63,54.39,o),
(478,38,c),
(478,655,l),
(497.52,658.65,o),
(509.52,667.98,o),
(514,683,c),
(413,694,l),
(413,-75,l),
(423,-75,ls),
(428.93,-74.88,o),
(436.13,-73.69,o),
(444.61,-71.41,cs),
(465.96,-65.26,o),
(477.09,-59.45,o),
(478,-54,c),
(478,15,l),
(501.72,26.32,o),
(521.72,36.65,o),
(538,46,c),
(538,-3,ls),
(538.09,-22,o),
(540.61,-36.7,o),
(545.56,-47.08,cs),
(555.2,-65.69,o),
(582.35,-75,o),
(627,-75,cs),
(695.2,-74.8,o),
(729.87,-60.13,o),
(731,-31,c),
(729.63,-22,o),
(719.63,-13.34,o),
(701,-5,c),
(700,120,l),
(682,120,l),
(669.04,56.71,o),
(659.71,18.04,o),
(654,4,cs),
(649.97,-5.14,o),
(643.97,-12.14,o),
(636,-17,c),
(634.32,-17.5,o),
(626.99,-17.83,o),
(614,-18,cs),
(611.95,-17.9,o),
(609.82,-17.51,o),
(607.6,-16.85,cs),
(603.2,-14.84,o),
(601,-4.55,o),
(601,14,cs),
(601,89,l),
(625.38,108.07,o),
(650.71,131.73,o),
(677,160,c),
(682.98,157.62,o),
(687.64,156.29,o),
(691,156,cs),
(700.37,154.69,o),
(709.37,157.35,o),
(718,164,c),
(645,218,l),
(631.42,197.71,o),
(616.75,178.04,o),
(601,159,c),
(601,399,l),
(637,399,l),
(637,347,l),
(648,347,ls),
(654.47,347,o),
(661.88,348.76,o),
(670.24,352.29,cs),
(687.22,359.45,o),
(696.14,366.02,o),
(697,372,c),
(697,537,l),
(717.43,541.49,o),
(731.1,547.83,o),
(738,556,c),
(666,614,l),
(631,578,l)
);
},
{
closed = 1;
nodes = (
(90,415,l),
(156.2,480.55,o),
(204.87,558.88,o),
(236,650,c),
(237.88,650,o),
(240.58,650.2,o),
(244.09,650.59,cs),
(246.49,650.86,o),
(248.12,651,o),
(249,651,cs),
(258.5,652.08,o),
(267.16,657.41,o),
(275,667,c),
(176,703,l),
(158.93,591.55,o),
(125.93,498.55,o),
(77,424,c)
);
},
{
closed = 1;
nodes = (
(910,183,l),
(893,183,l),
(892.62,180.73,o),
(892.16,178.01,o),
(891.63,174.83,cs),
(875.32,76.38,o),
(864.11,20.11,o),
(858,6,cs),
(853.44,-4.8,o),
(847.44,-12.14,o),
(840,-16,c),
(837.28,-16.53,o),
(832.61,-16.87,o),
(826,-17,c),
(817.82,-15.65,o),
(812.49,-5.32,o),
(810,14,c),
(810,306,l),
(854.5,331.91,o),
(887.17,356.58,o),
(908,380,c),
(910.15,379.58,o),
(913.29,378.72,o),
(917.43,377.43,cs),
(919.48,376.73,o),
(921.01,376.25,o),
(922,376,cs),
(932.41,374.75,o),
(942.08,378.09,o),
(951,386,c),
(872,449,l),
(851.91,403.71,o),
(831.24,367.38,o),
(810,340,c),
(810,655,l),
(831.09,658.81,o),
(843.42,668.15,o),
(847,683,c),
(743,695,l),
(743,-3,ls),
(743.1,-20.58,o),
(745.52,-34.57,o),
(750.27,-44.97,cs),
(760.22,-64.99,o),
(788.46,-75,o),
(835,-75,cs),
(846,-74.99,o),
(856.23,-74.75,o),
(865.69,-74.28,cs),
(919.23,-71.45,o),
(946,-57.02,o),
(946,-31,c),
(944.61,-21.13,o),
(932.95,-11.8,o),
(911,-3,c)
);
},
{
closed = 1;
nodes = (
(232,330,l),
(224.18,285.28,o),
(213.51,240.95,o),
(200,197,c),
(180.05,223.18,o),
(161.05,245.85,o),
(143,265,c),
(189.79,319.96,o),
(229.12,388.29,o),
(261,470,c),
(274,470,ls),
(284.29,470.4,o),
(292.96,475.4,o),
(300,485,c),
(203,526,l),
(174.3,395.53,o),
(128.63,290.2,o),
(66,210,c),
(79,200,l),
(99.36,218.14,o),
(116.03,234.47,o),
(129,249,c),
(146.89,222.45,o),
(165.22,188.79,o),
(184,148,c),
(152.41,61.92,o),
(115.07,-9.08,o),
(72,-65,c),
(85,-73,l),
(132.49,-25.35,o),
(173.16,27.98,o),
(207,87,c),
(223.12,37.3,o),
(230.78,-10.04,o),
(230,-55,c),
(238.13,-64.91,o),
(246.46,-71.58,o),
(255,-75,cs),
(257.45,-75.78,o),
(260.25,-76.35,o),
(263.4,-76.73,cs),
(280.61,-77.82,o),
(292.14,-67.9,o),
(298,-47,c),
(313.41,-6.22,o),
(293.07,57.45,o),
(237,144,c),
(256.27,185.56,o),
(273.27,230.89,o),
(288,280,c),
(292.32,280.13,o),
(296.65,280.79,o),
(301,282,cs),
(302.1,282,o),
(303.51,282.19,o),
(305.21,282.58,cs),
(306.47,282.86,o),
(307.4,283,o),
(308,283,c),
(308,19,l),
(318,19,ls),
(323.93,19.12,o),
(331.13,20.31,o),
(339.61,22.59,cs),
(360.96,28.74,o),
(372.09,34.55,o),
(373,40,c),
(373,589,l),
(392.52,592.65,o),
(404.52,601.98,o),
(409,617,c),
(308,628,l),
(308,304,l)
);
},
{
closed = 1;
nodes = (
(601,429,l),
(601,548,l),
(637,548,l),
(637,429,l)
);
},
{
closed = 1;
nodes = (
(620,326,l),
(623.65,321.06,o),
(627.2,316,o),
(630.65,310.81,cs),
(644.66,289.4,o),
(654.77,260.46,o),
(661,224,c),
(670.5,216.55,o),
(681.16,212.55,o),
(693,212,c),
(709.33,214.91,o),
(719.33,226.91,o),
(723,248,c),
(722.73,264.04,o),
(715.73,278.37,o),
(702,291,cs),
(678.98,309.68,o),
(654.98,324.35,o),
(630,335,c)
);
}
);
vertWidth = 976;
width = 1000;
}
);
note = u17029;
unicode = 94249;
}
{
glyphname = u1702A;
layers = (
{
hints = (
{
horizontal = 1;
place = (-75, 58);
type = Stem;
},
{
horizontal = 1;
place = (-12, 21);
target = up;
type = BottomGhost;
},
{
horizontal = 1;
place = (485, 30);
type = Stem;
},
{
horizontal = 1;
place = (607, 30);
type = Stem;
},
{
horizontal = 1;
place = (729, 30);
type = Stem;
},
{
place = (370, 65);
type = Stem;
},
{
place = (564, 68);
type = Stem;
},
{
place = (682, 67);
type = Stem;
},
{
place = (869, 16);
type = Stem;
},
{
place = (298, 58);
type = Stem;
},
{
place = (246, 68);
type = Stem;
}
);
layerId = "CB7FBE56-FAF0-4485-826E-02FDEC4040B6";
shapes = (
{
closed = 1;
nodes = (
(797,759,l),
(62,759,l),
(71,729,l),
(913,729,ls),
(927.17,729.38,o),
(936.17,734.72,o),
(940,745,c),
(847,824,l)
);
},
{
closed = 1;
nodes = (
(283.38,468.97,o),
(303.05,498.97,o),
(320,528,c),
(323.07,526.95,o),
(327.4,526.28,o),
(333,526,cs),
(343.34,525.57,o),
(351.67,529.57,o),
(358,538,c),
(266,588,l),
(251.53,551.95,o),
(233.86,514.62,o),
(213,476,c),
(190.73,491.56,o),
(170.4,504.9,o),
(152,516,c),
(188.42,548.96,o),
(220.09,588.96,o),
(247,636,c),
(252.92,634.82,o),
(257.25,634.15,o),
(260,634,cs),
(270.8,634.31,o),
(279.8,638.65,o),
(287,647,c),
(195,699,l),
(163.67,603.39,o),
(124.67,529.39,o),
(78,477,c),
(89,466,l),
(107.39,479.01,o),
(123.05,491.01,o),
(136,502,c),
(155.29,486.3,o),
(175.29,467.63,o),
(196,446,c),
(157.48,380.07,o),
(114.82,325.07,o),
(68,281,c),
(79,270,l),
(133.96,302.98,o),
(185.29,346.98,o),
(233,402,c),
(264.29,361.13,o),
(285.96,321.13,o),
(298,282,c),
(308.97,275.14,o),
(318.64,271.48,o),
(327,271,cs),
(329.68,270.95,o),
(332.67,271.38,o),
(335.97,272.28,cs),
(350.9,277.58,o),
(357.58,290.49,o),
(356,311,cs),
(355.42,343.01,o),
(323.75,385.34,o),
(261,438,c)
);
},
{
closed = 1;
nodes = (
(359,637,l),
(368,607,l),
(564,607,l),
(564,515,l),
(354,515,l),
(363,485,l),
(564,485,l),
(564,449,l),
(575,449,ls),
(582.34,449.15,o),
(591.04,450.95,o),
(601.09,454.4,cs),
(620.86,461.61,o),
(631.16,468.14,o),
(632,474,c),
(632,596,l),
(652.43,600.49,o),
(666.1,606.83,o),
(673,615,c),
(593,679,l),
(554,637,l)
);
},
{
closed = 1;
nodes = (
(885,218,l),
(869,218,l),
(850.29,97.07,o),
(836.95,26.74,o),
(829,7,cs),
(824.13,-4.41,o),
(817.47,-11.74,o),
(809,-15,cs),
(805.51,-16.23,o),
(793.18,-16.89,o),
(772,-17,cs),
(769.26,-16.95,o),
(766.46,-16.68,o),
(763.59,-16.22,cs),
(753.86,-14.09,o),
(749,-4.02,o),
(749,14,cs),
(749,279,l),
(808.46,309.41,o),
(853.46,345.08,o),
(884,386,c),
(891.07,384.8,o),
(896.07,384.13,o),
(899,384,cs),
(909.17,384.38,o),
(916.84,388.71,o),
(922,397,c),
(845,455,l),
(823.92,402.77,o),
(791.92,354.44,o),
(749,310,c),
(749,634,l),
(770.09,637.81,o),
(782.42,647.15,o),
(786,662,c),
(682,674,l),
(682,-3,ls),
(682.1,-20.99,o),
(684.66,-35.21,o),
(689.67,-45.67,cs),
(699.86,-65.23,o),
(728.3,-75,o),
(775,-75,cs),
(828.07,-74.97,o),
(864.98,-72.67,o),
(885.75,-68.1,cs),
(910.59,-62.38,o),
(923,-50.01,o),
(923,-31,cs),
(922.03,-19.61,o),
(909.7,-9.94,o),
(886,-2,c)
);
},
{
closed = 1;
nodes = (
(514.97,179.96,o),
(495.64,199.29,o),
(476,217,c),
(515.62,263.88,o),
(548.29,321.21,o),
(574,389,c),
(581.94,388.83,o),
(586.61,388.83,o),
(588,389,cs),
(598.46,391.07,o),
(606.79,396.41,o),
(613,405,c),
(516,443,l),
(498.36,348.16,o),
(471.36,269.16,o),
(435,206,c),
(435,401,l),
(454.52,404.65,o),
(466.52,413.98,o),
(471,429,c),
(370,440,l),
(370,-12,l),
(380,-12,ls),
(386.1,-12,o),
(393.31,-10.8,o),
(401.61,-8.41,cs),
(422.96,-2.26,o),
(434.09,3.55,o),
(435,9,c),
(435,173,l),
(449.92,187.82,o),
(459.25,197.49,o),
(463,202,c),
(483.22,174.59,o),
(500.89,145.92,o),
(516,116,c),
(484.99,44.23,o),
(448.99,-16.43,o),
(408,-66,c),
(419,-76,l),
(465.87,-38.32,o),
(506.87,6.34,o),
(542,58,c),
(557.43,17.59,o),
(565.77,-20.41,o),
(567,-56,c),
(574.21,-63.71,o),
(582.88,-69.71,o),
(593,-74,cs),
(595.86,-74.95,o),
(598.73,-75.5,o),
(601.61,-75.65,cs),
(619.22,-76.56,o),
(631.02,-66.35,o),
(637,-45,cs),
(645.61,-8.55,o),
(624.94,43.12,o),
(575,110,c),
(594.8,144.32,o),
(614.13,184.65,o),
(633,231,c),
(646,231,ls),
(656.59,232.19,o),
(664.59,237.19,o),
(670,246,c),
(573,282,l),
(562,239,o),
(549,198,o),
(534,159,c)
);
},
{
closed = 1;
nodes = (
(170.54,209.49,o),
(142.21,236.49,o),
(115,259,c),
(100,248,l),
(131.48,211.16,o),
(158.48,172.82,o),
(181,133,c),
(144.27,52.65,o),
(102.94,-13.69,o),
(57,-66,c),
(69,-75,l),
(123.31,-30.21,o),
(169.31,21.45,o),
(207,80,c),
(228.78,32.04,o),
(241.78,-13.3,o),
(246,-56,c),
(253.96,-64.52,o),
(262.96,-70.19,o),
(273,-73,cs),
(276.03,-73.61,o),
(279.38,-73.85,o),
(283.06,-73.72,cs),
(299.81,-72.18,o),
(310.12,-60.94,o),
(314,-40,cs),
(323.3,1.11,o),
(298.3,58.78,o),
(239,133,c),
(255.01,162.29,o),
(270.35,194.63,o),
(285,230,c),
(290.92,228.83,o),
(295.25,228.49,o),
(298,229,c),
(307.84,228.71,o),
(316.51,233.04,o),
(324,242,c),
(237,286,l),
(224.19,242.98,o),
(211.86,206.98,o),
(200,178,c)
);
}
);
vertWidth = 976;
width = 1000;
}
);
note = u1702A;
unicode = 94250;
}
{
glyphname = u1702B;
layers = (
{
hints = (
{
horizontal = 1;
place = (-75,57);
type = Stem;
},
{
horizontal = 1;
place = (325,30);
type = Stem;
},
{
horizontal = 1;
place = (444,30);
type = Stem;
},
{
horizontal = 1;
place = (481,30);
type = Stem;
},
{
horizontal = 1;
place = (551,30);
type = Stem;
},
{
horizontal = 1;
place = (666.27,26.73);
type = Stem;
},
{
horizontal = 1;
place = (729,30);
type = Stem;
},
{
place = (470,68);
type = Stem;
},
{
place = (580,62);
type = Stem;
},
{
place = (731,67);
type = Stem;
},
{
place = (880,16);
type = Stem;
},
{
place = (222,65);
type = Stem;
},
{
place = (158,65);
type = Stem;
},
{
place = (105,65);
type = Stem;
}
);
layerId = "CB7FBE56-FAF0-4485-826E-02FDEC4040B6";
shapes = (
{
closed = 1;
nodes = (
(913,729,ls),
(927.17,729.38,o),
(936.17,734.72,o),
(940,745,c),
(847,824,l),
(797,759,l),
(62,759,l),
(71,729,l)
);
},
{
closed = 1;
nodes = (
(287,621,l),
(258,581,l),
(223,581,l),
(223,666,l),
(223.68,666.09,o),
(224.36,666.18,o),
(225.02,666.27,cs),
(245.95,669.33,o),
(256.94,678.24,o),
(258,693,c),
(158,703,l),
(158,581,l),
(71,581,l),
(79,551,l),
(322,551,ls),
(335.47,551.38,o),
(344.14,556.72,o),
(348,567,c)
);
},
{
closed = 1;
nodes = (
(329,404,l),
(397.53,471.86,o),
(448.2,552.86,o),
(481,647,c),
(495,647,l),
(506.35,649.29,o),
(514.02,654.95,o),
(518,664,c),
(421,699,l),
(400.64,582.78,o),
(365.3,487.45,o),
(315,413,c)
);
},
{
closed = 1;
nodes = (
(798,648,l),
(819.09,651.81,o),
(831.42,661.15,o),
(835,676,c),
(731,688,l),
(731,508,l),
(683,551,l),
(654,511,l),
(639,511,l),
(639,662,l),
(639.34,662.05,o),
(640.02,662.14,o),
(641.02,662.27,cs),
(661.95,665.33,o),
(672.94,674.24,o),
(674,689,c),
(574,699,l),
(574,511,l),
(503,511,l),
(511,481,l),
(718,481,ls),
(720.99,481.09,o),
(725.32,481.76,o),
(731,483,c),
(731,357,l),
(688,395,l),
(660,355,l),
(496,355,l),
(505,325,l),
(580,325,l),
(580,-75,l),
(590,-75,ls),
(595.6,-74.88,o),
(602.4,-73.69,o),
(610.39,-71.44,cs),
(630.55,-65.31,o),
(641.08,-59.5,o),
(642,-54,c),
(642,325,l),
(722,325,ls),
(725.38,325.01,o),
(728.38,325.35,o),
(731,326,c),
(731,-3,ls),
(731.09,-20.84,o),
(733.49,-34.95,o),
(738.19,-45.31,cs),
(747.95,-65.1,o),
(775.89,-75,o),
(822,-75,cs),
(830.23,-74.99,o),
(838.16,-74.85,o),
(845.79,-74.57,cs),
(903.26,-72.29,o),
(932,-57.77,o),
(932,-31,c),
(930.61,-21.13,o),
(918.95,-11.8,o),
(897,-3,c),
(896,176,l),
(880,176,l),
(879.66,174.04,o),
(879.24,171.65,o),
(878.75,168.83,cs),
(862.46,74.15,o),
(851.21,19.87,o),
(845,6,cs),
(840.15,-5.59,o),
(834.15,-12.92,o),
(827,-16,cs),
(824.28,-17.07,o),
(819.61,-17.73,o),
(813,-18,cs),
(804.54,-17.01,o),
(799.54,-6.34,o),
(798,14,c),
(798,286,l),
(841.71,312.16,o),
(875.71,340.83,o),
(900,372,c),
(907.07,370.8,o),
(912.07,370.13,o),
(915,370,cs),
(925.17,370.38,o),
(932.84,374.71,o),
(938,383,c),
(860,439,l),
(846.27,399.21,o),
(825.61,360.54,o),
(798,323,c)
);
},
{
closed = 1;
nodes = (
(267,514,l),
(239,474,l),
(91,474,l),
(100,444,l),
(301,444,ls),
(315.17,444.38,o),
(324.17,449.72,o),
(328,460,c)
);
},
{
closed = 1;
nodes = (
(406.94,206.46,o),
(385.94,228.79,o),
(368,246,c),
(417.37,295.57,o),
(459.37,356.24,o),
(494,428,c),
(497.07,427.48,o),
(501.4,427.14,o),
(507,427,cs),
(517.06,427.38,o),
(525.4,432.05,o),
(532,441,c),
(437,483,l),
(404.24,367.89,o),
(358.91,276.89,o),
(301,210,c),
(314,199,l),
(316.85,201.4,o),
(321.45,205.21,o),
(327.79,210.42,cs),
(338.77,219.41,o),
(346.84,226.27,o),
(352,231,c),
(374.7,200.29,o),
(395.37,166.96,o),
(414,131,c),
(385.1,57.6,o),
(347.44,-7.07,o),
(301,-63,c),
(314,-72,l),
(363.48,-26.34,o),
(405.14,22.66,o),
(439,75,c),
(457.46,28.59,o),
(467.79,-14.75,o),
(470,-55,c),
(478.56,-64.22,o),
(487.23,-70.22,o),
(496,-73,cs),
(498.52,-73.65,o),
(501.38,-74.07,o),
(504.6,-74.25,cs),
(521.91,-74.22,o),
(533.05,-63.47,o),
(538,-42,cs),
(548.47,-2.59,o),
(526.13,54.41,o),
(471,129,c),
(492.25,169.49,o),
(508.91,209.49,o),
(521,249,c),
(522.64,249.04,o),
(525.34,249.24,o),
(529.09,249.59,cs),
(531.49,249.86,o),
(533.12,250,o),
(534,250,cs),
(543.42,251.86,o),
(551.75,257.86,o),
(559,268,c),
(463,301,l),
(455.71,262.12,o),
(445.05,221.45,o),
(431,179,c)
);
},
{
closed = 1;
nodes = (
(216,350,l),
(171,350,l),
(119,373,l),
(105,379,l),
(105,-70,l),
(115,-70,ls),
(120.93,-69.88,o),
(128.13,-68.69,o),
(136.61,-66.41,cs),
(157.96,-60.26,o),
(169.09,-54.45,o),
(170,-49,c),
(170,320,l),
(222,320,l),
(222,-75,l),
(232,-75,ls),
(237.93,-74.88,o),
(245.13,-73.69,o),
(253.61,-71.41,cs),
(274.96,-65.26,o),
(286.09,-59.45,o),
(287,-54,c),
(287,309,l),
(298.63,312.57,o),
(309.3,318.91,o),
(319,328,c),
(247,382,l)
);
}
);
vertWidth = 976;
width = 1000;
}
);
note = u1702B;
unicode = 94251;
}
{
glyphname = u1702C;
layers = (
{
hints = (
{
horizontal = 1;
place = (-78,18);
type = Stem;
},
{
horizontal = 1;
place = (-19,12);
type = Stem;
},
{
horizontal = 1;
place = (99,16);
type = Stem;
},
{
horizontal = 1;
place = (226,15);
type = Stem;
},
{
horizontal = 1;
place = (354,14);
type = Stem;
},
{
horizontal = 1;
place = (406,11);
type = Stem;
},
{
horizontal = 1;
place = (450,30);
type = Stem;
},
{
horizontal = 1;
place = (632,30);
type = Stem;
},
{
horizontal = 1;
place = (729,30);
type = Stem;
},
{
place = (151,59);
type = Stem;
},
{
place = (391,61);
type = Stem;
},
{
place = (569,66.44);
type = Stem;
},
{
horizontal = 1;
place = (530,-20);
target = down;
type = TopGhost;
},
{
horizontal = 1;
place = (517,29);
type = Stem;
}
);
layerId = "CB7FBE56-FAF0-4485-826E-02FDEC4040B6";
shapes = (
{
closed = 1;
nodes = (
(913,729,ls),
(927.17,729.38,o),
(936.17,734.72,o),
(940,745,c),
(847,824,l),
(797,759,l),
(62,759,l),
(71,729,l)
);
},
{
closed = 1;
nodes = (
(936,417,l),
(875.58,416.25,o),
(815.58,426.25,o),
(756,447,c),
(785,464,o),
(811,485,o),
(834,510,c),
(852.7,510.92,o),
(866.03,515.26,o),
(874,523,c),
(787,585,l),
(756,546,l),
(700,546,l),
(735.52,577.7,o),
(770.19,614.7,o),
(804,657,c),
(821.64,655.03,o),
(834.98,660.36,o),
(844,673,c),
(741,706,l),
(715.06,645.2,o),
(689.4,591.87,o),
(664,546,c),
(532,546,l),
(541,517,l),
(756,517,l),
(690.7,452.98,o),
(600.37,403.31,o),
(485,368,c),
(491,354,l),
(589.29,375,o),
(666.29,399.33,o),
(722,427,c),
(766.62,385.69,o),
(817.62,354.35,o),
(875,333,c),
(881.36,364.61,o),
(902.36,388.95,o),
(938,406,c)
);
},
{
closed = 1;
nodes = (
(522,699,l),
(550.12,665.64,o),
(565.78,629.64,o),
(569,591,c),
(586.36,574.22,o),
(603.12,570.84,o),
(619.29,580.85,cs),
(635.36,590.8,o),
(640.74,606.37,o),
(635.44,627.57,cs),
(626.88,661.81,o),
(592.73,687.29,o),
(533,704,c)
);
},
{
closed = 1;
nodes = (
(104,261,l),
(196.12,301.46,o),
(279.78,364.46,o),
(355,450,c),
(523,450,ls),
(537.17,450.38,o),
(546.17,455.72,o),
(550,466,c),
(476,530,l),
(439,480,l),
(380,480,l),
(391.48,494.03,o),
(400.48,505.37,o),
(407,514,c),
(414.69,511.5,o),
(421.69,510.5,o),
(428,511,cs),
(436.23,511.47,o),
(443.57,516.47,o),
(450,526,c),
(361,563,l),
(345.84,537.24,o),
(327.51,509.57,o),
(306,480,c),
(210,480,l),
(210,515,l),
(281.81,550.44,o),
(340.81,584.11,o),
(387,616,c),
(407.02,619.26,o),
(421.36,625.93,o),
(430,636,c),
(346,701,l),
(313,662,l),
(119,662,l),
(128,632,l),
(304,632,l),
(282.41,607.72,o),
(255.07,582.05,o),
(222,555,c),
(151,564,l),
(151,480,l),
(67,480,l),
(76,450,l),
(151,450,l),
(151,378,l),
(161,378,ls),
(166.28,378.13,o),
(172.67,379.31,o),
(180.17,381.53,cs),
(199.13,387.63,o),
(209.07,393.45,o),
(210,399,c),
(210,450,l),
(283,450,l),
(224.56,375.96,o),
(161.56,317.63,o),
(94,275,c)
);
},
{
closed = 1;
nodes = (
(463.72,192.65,o),
(469.72,191.32,o),
(476,191,cs),
(484.32,191.34,o),
(491.65,195.68,o),
(498,204,c),
(410,250,l),
(378.19,206.98,o),
(345.52,167.65,o),
(312,132,c),
(283.9,148.41,o),
(254.9,163.08,o),
(225,176,c),
(292.95,219.9,o),
(358.95,277.9,o),
(423,350,c),
(430.28,346.86,o),
(437.61,345.53,o),
(445,346,cs),
(451.59,347.34,o),
(458.25,352.67,o),
(465,362,c),
(375,397,l),
(372.53,393.62,o),
(369.81,389.92,o),
(366.82,385.9,cs),
(275.53,263.47,o),
(177.59,174.84,o),
(73,120,c),
(81,104,l),
(119.76,118.17,o),
(160.43,137.51,o),
(203,162,c),
(233.21,141.8,o),
(259.21,121.8,o),
(281,102,c),
(211.54,34.71,o),
(138.21,-17.63,o),
(61,-55,c),
(69,-71,l),
(159.58,-40.03,o),
(243.25,4.97,o),
(320,64,c),
(352.23,28.46,o),
(375.9,-7.54,o),
(391,-44,c),
(401.24,-48.95,o),
(411.57,-51.62,o),
(422,-52,cs),
(424.72,-51.78,o),
(427.69,-51.22,o),
(430.9,-50.34,cs),
(448.32,-44.55,o),
(455.35,-30.77,o),
(452,-9,cs),
(448.79,22.96,o),
(419.12,59.3,o),
(363,100,c),
(395.8,128.91,o),
(427.47,160.57,o),
(458,195,c)
);
},
{
closed = 1;
nodes = (
(512,226,l),
(514.19,226.61,o),
(516.71,227.32,o),
(519.53,228.13,cs),
(596.07,250.24,o),
(664.56,287.19,o),
(725,339,c),
(731.15,335.57,o),
(737.48,333.24,o),
(744,332,c),
(752.6,332.24,o),
(759.93,336.24,o),
(766,344,c),
(685,394,l),
(626.42,323.56,o),
(567.09,272.56,o),
(507,241,c)
);
},
{
closed = 1;
nodes = (
(857.31,127.43,o),
(863.31,125.43,o),
(869,125,cs),
(876.51,124.38,o),
(884.18,128.05,o),
(892,136,c),
(802,198,l),
(768.27,158.92,o),
(729.27,119.92,o),
(685,81,c),
(662.5,95.51,o),
(639.5,113.85,o),
(616,136,c),
(667.75,158.68,o),
(724.75,195.34,o),
(787,246,c),
(792.19,241.9,o),
(797.86,239.57,o),
(804,239,cs),
(812.62,238.28,o),
(820.62,241.61,o),
(828,249,c),
(747,305,l),
(664.2,213.13,o),
(582.2,149.8,o),
(501,115,c),
(507,99,l),
(533.34,105.2,o),
(561.67,113.86,o),
(592,125,c),
(609.57,98.24,o),
(628.57,73.57,o),
(649,51,c),
(585.81,1.19,o),
(523.81,-35.81,o),
(463,-60,c),
(470,-78,l),
(545.02,-60.5,o),
(618.69,-30.83,o),
(691,11,c),
(739.21,-30.85,o),
(795.54,-62.18,o),
(860,-83,c),
(860.45,-81.9,o),
(861.06,-80.47,o),
(861.83,-78.71,cs),
(875.75,-48.36,o),
(901.14,-28.45,o),
(938,-19,c),
(939,-7,l),
(867.57,1.16,o),
(803.24,19.16,o),
(746,47,c),
(782,72,o),
(817,100,o),
(851,131,c)
);
}
);
vertWidth = 976;
width = 1000;
}
);
note = u1702C;
unicode = 94252;
}
{
glyphname = u1702D;
layers = (
{
hints = (
{
horizontal = 1;
place = (-75,15);
type = Stem;
},
{
horizontal = 1;
place = (-12,12);
type = Stem;
},
{
horizontal = 1;
place = (103,16);
type = Stem;
},
{
horizontal = 1;
place = (137,30);
type = Stem;
},
{
horizontal = 1;
place = (235,14);
type = Stem;
},
{
horizontal = 1;
place = (261,30);
type = Stem;
},
{
horizontal = 1;
place = (353,14);
type = Stem;
},
{
horizontal = 1;
place = (407,11);
type = Stem;
},
{
horizontal = 1;
place = (472,30);
type = Stem;
},
{
horizontal = 1;
place = (517,29);
type = Stem;
},
{
horizontal = 1;
place = (617,30);
type = Stem;
},
{
horizontal = 1;
place = (729,30);
type = Stem;
},
{
place = (253,59);
type = Stem;
},
{
place = (569,66.44);
type = Stem;
},
{
place = (375,59);
type = Stem;
},
{
place = (131,59);
type = Stem;
},
{
place = (146,65);
type = Stem;
},
{
place = (352,65);
type = Stem;
}
);
layerId = "CB7FBE56-FAF0-4485-826E-02FDEC4040B6";
shapes = (
{
closed = 1;
nodes = (
(913,729,ls),
(927.17,729.38,o),
(936.17,734.72,o),
(940,745,c),
(847,824,l),
(797,759,l),
(62,759,l),
(71,729,l)
);
},
{
closed = 1;
nodes = (
(785.38,467.46,o),
(812.38,487.79,o),
(834,510,c),
(852.7,510.92,o),
(866.03,515.26,o),
(874,523,c),
(787,585,l),
(756,546,l),
(700,546,l),
(735.52,577.7,o),
(770.19,614.7,o),
(804,657,c),
(821.64,655.03,o),
(834.98,660.36,o),
(844,673,c),
(741,706,l),
(715.06,645.2,o),
(689.4,591.87,o),
(664,546,c),
(536,546,l),
(545,517,l),
(757,517,l),
(698.66,465.2,o),
(608.66,415.2,o),
(487,367,c),
(493,353,l),
(498.2,354.59,o),
(504.25,356.43,o),
(511.17,358.51,cs),
(612.42,388.96,o),
(681.03,412.79,o),
(717,430,c),
(761.49,389.73,o),
(813.15,357.4,o),
(872,333,c),
(872.2,333.69,o),
(872.52,334.71,o),
(872.94,336.06,cs),
(882.77,365.83,o),
(906.12,389.48,o),
(943,407,c),
(941,418,l),
(875.87,417.08,o),
(813.21,427.42,o),
(753,449,c)
);
},
{
closed = 1;
nodes = (
(522,699,l),
(550.12,665.64,o),
(565.78,629.64,o),
(569,591,c),
(586.36,574.22,o),
(603.12,570.84,o),
(619.29,580.85,cs),
(635.36,590.8,o),
(640.74,606.37,o),
(635.44,627.57,cs),
(626.88,661.81,o),
(592.73,687.29,o),
(533,704,c)
);
},
{
closed = 1;
nodes = (
(97,617,l),
(489,617,ls),
(503.17,617.38,o),
(512.17,622.72,o),
(516,633,c),
(434,703,l),
(392,647,l),
(88,647,l)
);
},
{
closed = 1;
nodes = (
(190,472,l),
(253,472,l),
(253,360,l),
(263,360,ls),
(268.28,360.13,o),
(274.67,361.31,o),
(282.17,363.53,cs),
(301.13,369.63,o),
(311.07,375.45,o),
(312,381,c),
(312,472,l),
(375,472,l),
(375,394,l),
(385,394,ls),
(390.28,394.13,o),
(396.67,395.31,o),
(404.17,397.53,cs),
(423.13,403.63,o),
(433.07,409.45,o),
(434,415,c),
(434,472,l),
(526,472,ls),
(540.17,472.38,o),
(549.17,477.72,o),
(553,488,c),
(486,546,l),
(454,502,l),
(434,502,l),
(434,552,l),
(452.3,555.55,o),
(463.63,564.55,o),
(468,579,c),
(375,590,l),
(375,502,l),
(312,502,l),
(312,547,l),
(330.3,550.55,o),
(341.63,559.55,o),
(346,574,c),
(253,585,l),
(253,502,l),
(190,502,l),
(190,552,l),
(208.3,555.55,o),
(219.63,564.55,o),
(224,579,c),
(131,590,l),
(131,502,l),
(55,502,l),
(64,472,l),
(131,472,l),
(131,396,l),
(141,396,ls),
(146.28,396.13,o),
(152.67,397.31,o),
(160.17,399.53,cs),
(179.13,405.63,o),
(189.07,411.45,o),
(190,417,c)
);
},
{
closed = 1;
nodes = (
(521,235,l),
(600.47,256.39,o),
(668.13,291.39,o),
(724,340,c),
(731.2,336.41,o),
(737.53,334.07,o),
(743,333,c),
(751.4,333.22,o),
(759.07,336.88,o),
(766,344,c),
(689,395,l),
(632.71,326.92,o),
(574.71,278.26,o),
(515,249,c)
);
},
{
closed = 1;
nodes = (
(358,291,l),
(211,291,l),
(211,339,l),
(230.52,342.65,o),
(242.52,351.98,o),
(247,367,c),
(146,378,l),
(146,-75,l),
(156,-75,ls),
(161.93,-74.88,o),
(169.13,-73.69,o),
(177.61,-71.41,cs),
(198.96,-65.26,o),
(210.09,-59.45,o),
(211,-54,c),
(211,137,l),
(352,137,l),
(352,-73,l),
(362,-73,ls),
(384.99,-71.14,o),
(403.32,-64.14,o),
(417,-52,c),
(417,124,l),
(436.92,128.21,o),
(451.26,134.87,o),
(460,144,c),
(378,206,l),
(342,167,l),
(211,167,l),
(211,261,l),
(462,261,ls),
(474.93,261.31,o),
(483.26,266.31,o),
(487,276,c),
(453.97,304.44,o),
(424.3,328.44,o),
(398,348,c)
);
},
{
closed = 1;
nodes = (
(844.07,141.99,o),
(850.07,140.33,o),
(855,140,cs),
(864.19,140.21,o),
(871.86,144.21,o),
(878,152,c),
(793,203,l),
(764.41,159.34,o),
(730.75,118,o),
(692,79,c),
(661.43,98.73,o),
(635.43,118.73,o),
(614,139,c),
(671.72,164.79,o),
(729.05,201.79,o),
(786,250,c),
(793.09,246.5,o),
(799.76,244.17,o),
(806,243,cs),
(812.69,242.45,o),
(820.35,246.11,o),
(829,254,c),
(747,306,l),
(663.39,215.42,o),
(580.06,153.08,o),
(497,119,c),
(503,103,l),
(531.34,109.45,o),
(560.34,118.12,o),
(590,129,c),
(611.59,96.75,o),
(633.92,69.42,o),
(657,47,c),
(601.34,-1.28,o),
(543.34,-36.94,o),
(483,-60,c),
(491,-75,l),
(566.22,-56.78,o),
(633.88,-27.11,o),
(694,14,c),
(743.89,-25.53,o),
(800.55,-55.2,o),
(864,-75,c),
(864.6,-73.09,o),
(865.39,-70.85,o),
(866.37,-68.28,cs),
(878,-39.92,o),
(901.21,-21.16,o),
(936,-12,c),
(936,0,l),
(867.76,5.98,o),
(803.76,22.98,o),
(744,51,c),
(775.91,77.4,o),
(806.91,108.74,o),
(837,145,c)
);
}
);
vertWidth = 976;
width = 1000;
}
);
note = u1702D;
unicode = 94253;
}
{
glyphname = u1702E;
layers = (
{
hints = (
{
horizontal = 1;
place = (-75, 58);
type = Stem;
},
{
horizontal = 1;
place = (525, -20);
target = down;
type = TopGhost;
},
{
horizontal = 1;
place = (530, 21);
target = up;
type = BottomGhost;
},
{
horizontal = 1;
place = (729, 30);
type = Stem;
},
{
place = (109, 57);
type = Stem;
},
{
place = (296, 63);
type = Stem;
},
{
place = (401, 55);
type = Stem;
},
{
place = (585, 65);
type = Stem;
},
{
place = (681, 67);
type = Stem;
},
{
place = (873, 16);
type = Stem;
},
{
horizontal = 1;
place = (459, 30);
type = Stem;
},
{
horizontal = 1;
place = (631, 30);
type = Stem;
},
{
horizontal = 1;
place = (434, 30);
type = Stem;
},
{
horizontal = 1;
place = (619, 30);
type = Stem;
}
);
layerId = "CB7FBE56-FAF0-4485-826E-02FDEC4040B6";
shapes = (
{
closed = 1;
nodes = (
(797,759,l),
(62,759,l),
(71,729,l),
(913,729,ls),
(927.17,729.38,o),
(936.17,734.72,o),
(940,745,c),
(847,824,l)
);
},
{
closed = 1;
nodes = (
(889,218,l),
(873,218,l),
(854.29,97.07,o),
(840.95,26.74,o),
(833,7,cs),
(828.13,-4.63,o),
(821.8,-12.3,o),
(814,-16,c),
(809.67,-16.62,o),
(794.33,-16.96,o),
(768,-17,cs),
(766.25,-16.95,o),
(764.28,-16.79,o),
(762.1,-16.5,cs),
(752.7,-14.7,o),
(748.01,-4.54,o),
(748.01,14,cs),
(748.01,304,l),
(803.39,321.91,o),
(848.06,344.58,o),
(882.01,372,c),
(887.92,369.06,o),
(892.92,367.39,o),
(897.01,367,cs),
(905.5,364.81,o),
(914.17,367.14,o),
(923.01,374,c),
(844.01,435,l),
(813.17,391.81,o),
(781.17,356.15,o),
(748.01,328,c),
(748.01,633,l),
(769.1,636.81,o),
(781.43,646.15,o),
(785.01,661,c),
(681.01,673,l),
(681.01,484,l),
(634.01,525,l),
(609.01,489,l),
(581.01,489,l),
(591.31,507.03,o),
(599.31,521.36,o),
(605.01,532,c),
(606.54,531.77,o),
(609.04,531.46,o),
(612.51,531.07,cs),
(616.04,530.72,o),
(618.54,530.36,o),
(620.01,530,c),
(629.44,531.11,o),
(637.1,536.11,o),
(643.01,545,c),
(560.01,579,l),
(544.38,541.76,o),
(530.71,511.76,o),
(519.01,489,c),
(456.01,489,l),
(456.01,515,l),
(505.34,544.69,o),
(551.34,578.02,o),
(594.01,615,c),
(614.03,618.26,o),
(628.37,624.93,o),
(637.01,635,c),
(553.01,700,l),
(520.01,661,l),
(377.01,661,l),
(386.01,631,l),
(517.01,631,l),
(498.4,604.82,o),
(478.4,580.49,o),
(457.01,558,c),
(401.01,565,l),
(401.01,471,l),
(369.01,500,l),
(343.01,464,l),
(302.01,464,l),
(316.26,486.02,o),
(326.93,503.35,o),
(334.01,516,c),
(339.99,514.81,o),
(344.65,514.14,o),
(348.01,514,cs),
(357.84,514.35,o),
(365.84,518.68,o),
(372.01,527,c),
(287.01,568,l),
(270.36,530.6,o),
(253.36,495.94,o),
(236.01,464,c),
(166.01,464,l),
(166.01,503,l),
(224.29,538.44,o),
(270.95,571.77,o),
(306.01,603,c),
(326.03,606.26,o),
(340.37,612.93,o),
(349.01,623,c),
(265.01,688,l),
(232.01,649,l),
(77.01,649,l),
(86.01,619,l),
(229.01,619,l),
(214.12,597.24,o),
(193.45,571.91,o),
(167.01,543,c),
(109.01,550,l),
(109.01,464,l),
(48.01,464,l),
(56.01,434,l),
(109.01,434,l),
(109.01,364,l),
(119.01,364,ls),
(124.06,364,o),
(129.98,365.12,o),
(136.78,367.36,cs),
(155.32,373.47,o),
(165.07,379.35,o),
(166.01,385,c),
(166.01,434,l),
(218.01,434,l),
(169.57,354.87,o),
(118.57,291.87,o),
(65.01,245,c),
(75.01,233,l),
(152,281.58,o),
(221,348.58,o),
(282.01,434,c),
(399.01,434,l),
(401.01,434,l),
(401.01,390,l),
(411.01,390,ls),
(415.81,390.14,o),
(421.7,391.35,o),
(428.7,393.63,cs),
(446,399.78,o),
(455.11,405.56,o),
(456.01,411,c),
(456.01,459,l),
(503.01,459,l),
(459.27,377.77,o),
(408.6,310.77,o),
(351.01,258,c),
(362.01,248,l),
(440.49,302.42,o),
(507.49,372.75,o),
(563.01,459,c),
(664.01,459,ls),
(670.29,459.11,o),
(675.95,460.45,o),
(681.01,463,c),
(681.01,-3,ls),
(681.11,-20.99,o),
(683.67,-35.21,o),
(688.68,-45.67,cs),
(698.87,-65.23,o),
(727.31,-75,o),
(774.01,-75,cs),
(823.79,-74.97,o),
(859.56,-73.06,o),
(881.31,-69.25,cs),
(911.78,-63.68,o),
(927.01,-50.94,o),
(927.01,-31,cs),
(926.04,-19.61,o),
(913.71,-9.94,o),
(890.01,-2,c)
);
},
{
closed = 1;
nodes = (
(357.55,27.24,o),
(331.21,62.57,o),
(280.01,103,c),
(305.32,134.45,o),
(328.98,167.11,o),
(351.01,201,c),
(356.99,199.82,o),
(361.65,199.48,o),
(365.01,200,c),
(375.08,199.49,o),
(383.08,203.16,o),
(389.01,211,c),
(304.01,257,l),
(282.53,213.11,o),
(259.53,172.45,o),
(235.01,135,c),
(218.99,145.61,o),
(197.66,157.95,o),
(171.01,172,c),
(236.28,220.24,o),
(297.95,283.91,o),
(356.01,363,c),
(362.42,361.22,o),
(368.42,360.22,o),
(374.01,360,cs),
(382.56,360.37,o),
(389.56,364.71,o),
(395.01,373,c),
(307.01,415,l),
(305.05,411.43,o),
(302.88,407.54,o),
(300.51,403.32,cs),
(232.61,283.06,o),
(154.78,191.95,o),
(67.01,130,c),
(77.01,116,l),
(101.21,128.15,o),
(125.54,142.15,o),
(150.01,158,c),
(169.37,142.93,o),
(190.04,123.93,o),
(212.01,101,c),
(165.71,34.24,o),
(115.37,-20.76,o),
(61.01,-64,c),
(70.01,-76,l),
(131.66,-42.28,o),
(189.66,3.72,o),
(244.01,62,c),
(269.31,27.75,o),
(286.64,-3.91,o),
(296.01,-33,c),
(306.09,-39.21,o),
(316.09,-42.54,o),
(326.01,-43,cs),
(328.36,-42.93,o),
(331,-42.62,o),
(333.92,-42.06,cs),
(351.48,-37.78,o),
(359.84,-24.76,o),
(359.01,-3,cs)
);
},
{
closed = 1;
nodes = (
(500.42,141.06,o),
(478.09,156.06,o),
(453.01,171,c),
(513.17,218.99,o),
(568.84,282.99,o),
(620.01,363,c),
(626.88,361.1,o),
(632.54,360.77,o),
(637.01,362,c),
(646.17,362.34,o),
(653.5,366.68,o),
(659.01,375,c),
(568.01,414,l),
(509.55,289.29,o),
(440.22,193.96,o),
(360.01,128,c),
(370.01,115,l),
(388.49,125.5,o),
(409.82,139.17,o),
(434.01,156,c),
(454.9,137.84,o),
(475.57,116.51,o),
(496.01,92,c),
(446.4,27.4,o),
(395.07,-24.6,o),
(342.01,-64,c),
(352.01,-77,l),
(415.16,-43.86,o),
(473.16,-0.52,o),
(526.01,53,c),
(554.57,11.57,o),
(574.24,-27.76,o),
(585.01,-65,c),
(594.61,-71.52,o),
(604.27,-75.52,o),
(614.01,-77,cs),
(616.03,-77.05,o),
(618.35,-76.94,o),
(620.97,-76.68,cs),
(639.45,-73.9,o),
(649.13,-60.67,o),
(650.01,-37,cs),
(650.38,-1.79,o),
(621.38,41.21,o),
(563.01,92,c),
(590.27,124.37,o),
(615.94,158.04,o),
(640.01,193,c),
(643.02,191.93,o),
(647.69,191.27,o),
(654.01,191,cs),
(664.16,189.58,o),
(672.16,193.25,o),
(678.01,202,c),
(595.01,249,l),
(570.04,202.4,o),
(545.04,161.4,o),
(520.01,126,c)
);
}
);
vertWidth = 976;
width = 1000;
}
);
note = u1702E;
unicode = 94254;
}
{
glyphname = u1702F;
layers = (
{
hints = (
{
horizontal = 1;
place = (-75,58);
type = Stem;
},
{
horizontal = 1;
place = (140,30);
type = Stem;
},
{
horizontal = 1;
place = (242,30);
type = Stem;
},
{
horizontal = 1;
place = (336,30);
type = Stem;
},
{
horizontal = 1;
place = (617,30);
type = Stem;
},
{
horizontal = 1;
place = (729,30);
type = Stem;
},
{
place = (137,57);
type = Stem;
},
{
place = (325,66);
type = Stem;
},
{
place = (430,64);
type = Stem;
},
{
place = (654,59);
type = Stem;
},
{
place = (889,18);
type = Stem;
},
{
horizontal = 1;
place = (445,30);
type = Stem;
},
{
horizontal = 1;
place = (475,30);
type = Stem;
},
{
place = (552,59);
type = Stem;
},
{
place = (755,59);
type = Stem;
},
{
place = (736,65);
type = Stem;
},
{
place = (572,65);
type = Stem;
}
);
layerId = "CB7FBE56-FAF0-4485-826E-02FDEC4040B6";
shapes = (
{
closed = 1;
nodes = (
(913,729,ls),
(927.17,729.38,o),
(936.17,734.72,o),
(940,745,c),
(847,824,l),
(797,759,l),
(62,759,l),
(71,729,l)
);
},
{
closed = 1;
nodes = (
(804,703,l),
(762,647,l),
(515,647,l),
(524,617,l),
(859,617,ls),
(873.17,617.38,o),
(882.17,622.72,o),
(886,633,c)
);
},
{
closed = 1;
nodes = (
(907,129,l),
(889,129,l),
(880.63,80.55,o),
(869.97,40.22,o),
(857,8,cs),
(852,-3,o),
(844,-10,o),
(833,-13,cs),
(821.72,-15.64,o),
(722.72,-16.97,o),
(536,-17,cs),
(528.28,-16.95,o),
(521.44,-16.38,o),
(515.48,-15.29,cs),
(501.16,-12.27,o),
(494,-2.51,o),
(494,14,cs),
(494,659,l),
(515.09,662.81,o),
(527.42,672.15,o),
(531,687,c),
(430,698,l),
(430,486,l),
(401,512,l),
(374,475,l),
(325,475,l),
(332.62,488.12,o),
(339.29,500.79,o),
(345,513,c),
(348.62,512.47,o),
(353.29,512.13,o),
(359,512,cs),
(368.94,512.27,o),
(377.27,516.27,o),
(384,524,c),
(298,568,l),
(285.13,533.76,o),
(271.8,502.76,o),
(258,475,c),
(194,475,l),
(194,512,l),
(252.95,544.2,o),
(299.62,573.87,o),
(334,601,c),
(354.02,604.26,o),
(368.36,610.93,o),
(377,621,c),
(293,686,l),
(260,647,l),
(105,647,l),
(114,617,l),
(255,617,l),
(236.25,592.83,o),
(216.25,570.5,o),
(195,550,c),
(137,557,l),
(137,475,l),
(76,475,l),
(84,445,l),
(137,445,l),
(137,371,l),
(147,371,ls),
(152.05,371,o),
(157.97,372.12,o),
(164.77,374.36,cs),
(183.31,380.47,o),
(193.06,386.35,o),
(194,392,c),
(194,445,l),
(242,445,l),
(195.71,361.81,o),
(140.71,294.81,o),
(77,244,c),
(88,232,l),
(176.11,283.15,o),
(249.11,354.15,o),
(307,445,c),
(430,445,l),
(430,8,ls),
(430.01,2.63,o),
(430.11,-2.53,o),
(430.3,-7.48,cs),
(431.59,-36.32,o),
(440.64,-54.74,o),
(457.43,-62.74,cs),
(474.58,-70.91,o),
(522.77,-75,o),
(602,-75,cs),
(766.73,-74.97,o),
(868.28,-69.53,o),
(906.65,-58.69,cs),
(927.55,-52.59,o),
(938,-42.03,o),
(938,-27,cs),
(937.94,-25.44,o),
(937.75,-23.62,o),
(937.42,-21.56,cs),
(935.69,-14.17,o),
(925.88,-7.65,o),
(908,-2,c)
);
},
{
closed = 1;
nodes = (
(552,475,l),
(552,396,l),
(562,396,ls),
(567.47,396,o),
(573.86,397.18,o),
(581.17,399.53,cs),
(600.13,405.63,o),
(610.07,411.45,o),
(611,417,c),
(611,475,l),
(654,475,l),
(654,390,l),
(664,390,ls),
(669.47,390,o),
(675.86,391.18,o),
(683.17,393.53,cs),
(702.13,399.63,o),
(712.07,405.45,o),
(713,411,c),
(713,475,l),
(755,475,l),
(755,413,l),
(765,413,ls),
(770.47,413,o),
(776.86,414.18,o),
(784.17,416.53,cs),
(803.13,422.63,o),
(813.07,428.45,o),
(814,434,c),
(814,475,l),
(881,475,ls),
(895.17,475.38,o),
(904.17,480.72,o),
(908,491,c),
(848,543,l),
(821,505,l),
(814,505,l),
(814,553,l),
(832.3,556.55,o),
(843.63,565.55,o),
(848,580,c),
(755,591,l),
(755,505,l),
(713,505,l),
(713,548,l),
(731.3,551.55,o),
(742.63,560.55,o),
(747,575,c),
(654,586,l),
(654,505,l),
(611,505,l),
(611,553,l),
(629.3,556.55,o),
(640.63,565.55,o),
(645,580,c),
(552,591,l),
(552,505,l),
(499,505,l),
(508,475,l)
);
},
{
closed = 1;
nodes = (
(534,366,l),
(543,336,l),
(848,336,ls),
(862.17,336.38,o),
(871.17,341.72,o),
(875,352,c),
(809,410,l),
(777,366,l)
);
},
{
closed = 1;
nodes = (
(243.93,138.65,o),
(220.93,153.65,o),
(194,169,c),
(252.68,213.93,o),
(305.02,271.93,o),
(351,343,c),
(358.25,341.22,o),
(364.25,340.22,o),
(369,340,cs),
(378.62,340.33,o),
(386.62,344.66,o),
(393,353,c),
(310,397,l),
(308.21,393.42,o),
(306.22,389.52,o),
(304.05,385.3,cs),
(241.67,264.65,o),
(167.32,175.22,o),
(81,117,c),
(90,104,l),
(117.92,117.58,o),
(146.25,134.25,o),
(175,154,c),
(194.59,136.97,o),
(215.26,115.97,o),
(237,91,c),
(182.36,25.45,o),
(123.7,-26.21,o),
(61,-64,c),
(70,-76,l),
(142.65,-46.04,o),
(208.65,-3.7,o),
(268,51,c),
(294.69,12.83,o),
(313.69,-24.84,o),
(325,-62,c),
(334.04,-68.34,o),
(344.04,-72.34,o),
(355,-74,cs),
(358.06,-74.07,o),
(361.38,-73.78,o),
(364.95,-73.11,cs),
(382.32,-68.93,o),
(391,-56.22,o),
(391,-35,cs),
(391.37,0.53,o),
(363.37,42.2,o),
(307,90,c),
(335.03,121.12,o),
(360.36,153.79,o),
(383,188,c),
(388.18,186.08,o),
(392.84,185.41,o),
(397,186,c),
(408.09,184.48,o),
(416.43,187.82,o),
(422,196,c),
(340,247,l),
(317.94,204.94,o),
(292.27,163.94,o),
(263,124,c)
);
},
{
closed = 1;
nodes = (
(746,2,ls),
(752.1,2,o),
(759.31,3.2,o),
(767.61,5.59,cs),
(788.96,11.74,o),
(800.09,17.55,o),
(801,23,c),
(801,140,l),
(885,140,ls),
(899.17,140.38,o),
(908.17,145.72,o),
(912,156,c),
(846,214,l),
(814,170,l),
(801,170,l),
(801,231,l),
(818.95,235,o),
(832.61,241.33,o),
(842,250,c),
(761,311,l),
(725,272,l),
(648,272,l),
(572,305,l),
(572,170,l),
(501,170,l),
(510,140,l),
(572,140,l),
(572,7,l),
(582,7,ls),
(588.1,7,o),
(595.31,8.2,o),
(603.61,10.59,cs),
(624.96,16.74,o),
(636.09,22.55,o),
(637,28,c),
(637,140,l),
(736,140,l),
(736,2,l)
);
},
{
closed = 1;
nodes = (
(637,242,l),
(736,242,l),
(736,170,l),
(637,170,l)
);
}
);
vertWidth = 976;
width = 1000;
}
);
note = u1702F;
unicode = 94255;
}
{
glyphname = u17030;
layers = (
{
hints = (
{
horizontal = 1;
place = (358, 30);
type = Stem;
},
{
horizontal = 1;
place = (536, 30);
type = Stem;
},
{
horizontal = 1;
place = (723, 30);
type = Stem;
},
{
place = (91, 65);
type = Stem;
},
{
place = (330, 65);
type = Stem;
},
{
place = (740, 65);
type = Stem;
}
);
layerId = "CB7FBE56-FAF0-4485-826E-02FDEC4040B6";
shapes = (
{
closed = 1;
nodes = (
(101,-74,ls),
(106.93,-73.88,o),
(114.13,-72.69,o),
(122.61,-70.41,cs),
(143.96,-64.26,o),
(155.09,-58.45,o),
(156,-53,c),
(156,785,l),
(175.52,788.65,o),
(187.52,797.98,o),
(192,813,c),
(91,824,l),
(91,-74,l)
);
},
{
closed = 1;
nodes = (
(730,753,l),
(309,753,l),
(318,723,l),
(837,723,ls),
(851.17,723.38,o),
(860.17,728.72,o),
(864,739,c),
(776,814,l)
);
},
{
closed = 1;
nodes = (
(805,566,l),
(226,566,l),
(235,536,l),
(912,536,ls),
(926.17,536.38,o),
(935.17,541.72,o),
(939,552,c),
(852,627,l)
);
},
{
closed = 1;
nodes = (
(340,-70,ls),
(345.93,-69.88,o),
(353.13,-68.69,o),
(361.61,-66.41,cs),
(382.96,-60.26,o),
(394.09,-54.45,o),
(395,-49,c),
(395,358,l),
(740,358,l),
(740,-75,l),
(750,-75,ls),
(755.93,-74.88,o),
(763.13,-73.69,o),
(771.61,-71.41,cs),
(792.96,-65.26,o),
(804.09,-59.45,o),
(805,-54,c),
(805,347,l),
(822.95,351,o),
(836.61,357.33,o),
(846,366,c),
(765,427,l),
(729,388,l),
(406,388,l),
(343,415,l),
(330,421,l),
(330,-70,l)
);
}
);
vertWidth = 976;
width = 1000;
}
);
note = u17030;
unicode = 94256;
}
{
glyphname = u17031;
layers = (
{
hints = (
{
horizontal = 1;
place = (-25,11);
type = Stem;
},
{
horizontal = 1;
place = (539,29);
type = Stem;
},
{
horizontal = 1;
place = (730,30);
type = Stem;
},
{
place = (104,65);
type = Stem;
},
{
place = (302,65);
type = Stem;
},
{
place = (429,25);
type = Stem;
},
{
place = (723,83);
type = Stem;
}
);
layerId = "CB7FBE56-FAF0-4485-826E-02FDEC4040B6";
shapes = (
{
closed = 1;
nodes = (
(884,730,ls),
(898.17,730.38,o),
(907.17,735.72,o),
(911,746,c),
(818,825,l),
(768,760,l),
(267,760,l),
(276,730,l)
);
},
{
closed = 1;
nodes = (
(114,-74,ls),
(119.93,-73.88,o),
(127.13,-72.69,o),
(135.61,-70.41,cs),
(156.96,-64.26,o),
(168.09,-58.45,o),
(169,-53,c),
(169,785,l),
(188.52,788.65,o),
(200.52,797.98,o),
(205,813,c),
(104,824,l),
(104,-74,l)
);
},
{
closed = 1;
nodes = (
(715.18,305.94,o),
(770.51,413.94,o),
(806,532,c),
(824.7,532.92,o),
(838.03,537.26,o),
(846,545,c),
(759,607,l),
(728,568,l),
(367,568,l),
(302,603,l),
(302,59,l),
(312,59,ls),
(317.93,59.12,o),
(325.13,60.31,o),
(333.61,62.59,cs),
(354.96,68.74,o),
(366.09,74.55,o),
(367,80,c),
(367,539,l),
(429,539,l),
(452.36,414.79,o),
(496.7,302.45,o),
(562,202,c),
(484.47,94.56,o),
(387.14,6.23,o),
(270,-63,c),
(279,-77,l),
(282.5,-75.68,o),
(286.34,-74.18,o),
(290.53,-72.51,cs),
(399.16,-28.75,o),
(500.98,46.75,o),
(596,154,c),
(662.85,66.16,o),
(747.85,-10.17,o),
(851,-75,c),
(852.77,-71.95,o),
(854.88,-68.65,o),
(857.33,-65.08,cs),
(877.74,-36.55,o),
(901.96,-23.19,o),
(930,-25,c),
(934,-14,l),
(819.33,44.99,o),
(721.33,118.99,o),
(640,208,c)
);
},
{
closed = 1;
nodes = (
(723,539,l),
(692.95,435.65,o),
(651.62,341.98,o),
(599,258,c),
(532.46,342.92,o),
(484.13,436.58,o),
(454,539,c)
);
}
);
vertWidth = 976;
width = 1000;
}
);
note = u17031;
unicode = 94257;
}
{
glyphname = u17032;
layers = (
{
hints = (
{
horizontal = 1;
place = (324, 20);
type = Stem;
},
{
horizontal = 1;
place = (594, 30);
type = Stem;
},
{
horizontal = 1;
place = (739, 30);
type = Stem;
},
{
horizontal = 1;
place = (834, -20);
target = down;
type = TopGhost;
},
{
place = (104, 65);
type = Stem;
}
);
layerId = "CB7FBE56-FAF0-4485-826E-02FDEC4040B6";
shapes = (
{
closed = 1;
nodes = (
(832,739,ls),
(846.17,739.38,o),
(855.17,744.72,o),
(859,755,c),
(766,834,l),
(716,769,l),
(236,769,l),
(245,739,l)
);
},
{
closed = 1;
nodes = (
(714,301,l),
(667,270,l),
(579,303,l),
(615.45,343.38,o),
(653.45,392.38,o),
(693,450,c),
(713.38,443.9,o),
(727.05,447.57,o),
(734,461,c),
(632,501,l),
(600.2,441.69,o),
(560.53,383.69,o),
(513,327,c),
(375,379,l),
(644,579,l),
(659.42,578.47,o),
(672.09,584.14,o),
(682,596,c),
(594,658,l),
(558,624,l),
(271,624,l),
(280,594,l),
(550,594,l),
(297,396,l),
(280.07,395,o),
(264.73,389.67,o),
(251,380,c),
(336,318,l),
(360,349,l),
(490,300,l),
(398.23,198.62,o),
(291.23,118.62,o),
(169,60,c),
(169,785,l),
(188.52,788.65,o),
(200.52,797.98,o),
(205,813,c),
(104,824,l),
(104,-74,l),
(114,-74,ls),
(119.93,-73.88,o),
(127.13,-72.69,o),
(135.61,-70.41,cs),
(156.96,-64.26,o),
(168.09,-58.45,o),
(169,-53,c),
(169,41,l),
(220.68,59.92,o),
(267.35,79.25,o),
(309,99,c),
(330.77,57.94,o),
(345.77,23.28,o),
(354,-5,cs),
(358.85,-23.78,o),
(359.51,-44.78,o),
(356,-68,c),
(399.97,-74.34,o),
(441.97,-68,o),
(482,-49,cs),
(493.84,-43.33,o),
(508.07,-34.86,o),
(524.69,-23.59,cs),
(612.6,36.48,o),
(682.7,117.01,o),
(735,218,c),
(755.38,217.15,o),
(770.05,219.82,o),
(779,226,c)
);
},
{
closed = 1;
nodes = (
(830,370,l),
(819.53,218.21,o),
(786.19,92.55,o),
(730,-7,c),
(745,-16,l),
(745.49,-15.42,o),
(746.27,-14.51,o),
(747.33,-13.26,cs),
(821.07,73.99,o),
(872.29,186.07,o),
(901,323,c),
(907.57,323.01,o),
(911.9,323.34,o),
(914,324,cs),
(924.59,327.37,o),
(932.59,334.04,o),
(938,344,c)
);
},
{
closed = 1;
nodes = (
(429.28,6.98,o),
(415.61,8.64,o),
(401,18,c),
(381.94,34.43,o),
(357.94,64.76,o),
(329,109,c),
(414.86,153.04,o),
(490.2,208.71,o),
(555,276,c),
(658,237,l),
(644.48,212.81,o),
(629.16,189.26,o),
(612.04,166.34,cs),
(561.56,99.33,o),
(504.88,48.21,o),
(442,13,cs)
);
}
);
vertWidth = 976;
width = 1000;
}
);
note = u17032;
unicode = 94258;
}
{
glyphname = u17033;
layers = (
{
hints = (
{
horizontal = 1;
place = (-15, 11);
type = Stem;
},
{
place = (91, 65);
type = Stem;
},
{
place = (410, 80);
type = Stem;
}
);
layerId = "CB7FBE56-FAF0-4485-826E-02FDEC4040B6";
shapes = (
{
closed = 1;
nodes = (
(101,-74,ls),
(106.93,-73.88,o),
(114.13,-72.69,o),
(122.61,-70.41,cs),
(143.96,-64.26,o),
(155.09,-58.45,o),
(156,-53,c),
(156,785,l),
(175.52,788.65,o),
(187.52,797.98,o),
(192,813,c),
(91,824,l),
(91,-74,l)
);
},
{
closed = 1;
nodes = (
(688.97,242.11,o),
(749.3,324.11,o),
(796,415,c),
(799.07,414.48,o),
(803.4,414.14,o),
(809,414,cs),
(819.45,414.33,o),
(827.78,418.66,o),
(834,427,c),
(735,475,l),
(688.65,376.48,o),
(632.98,289.15,o),
(568,213,c),
(516.4,266.81,o),
(475.07,326.47,o),
(444,392,c),
(577.16,480,o),
(689.16,598.34,o),
(780,747,c),
(786,745,o),
(791,744,o),
(795,744,cs),
(804.22,744.37,o),
(811.89,748.71,o),
(818,757,c),
(723,814,l),
(688.35,740.41,o),
(645.86,670.79,o),
(595.54,605.14,cs),
(493.63,472.77,o),
(376.79,375.39,o),
(245,313,c),
(252,297,l),
(311.49,317.6,o),
(368.16,344.94,o),
(422,379,c),
(450.59,301.67,o),
(487.26,232.67,o),
(532,172,c),
(448.39,82.69,o),
(347.72,5.69,o),
(230,-59,c),
(241,-75,l),
(368.97,-18.13,o),
(477.97,48.87,o),
(568,126,c),
(642.73,41.3,o),
(735.39,-25.7,o),
(846,-75,c),
(847.43,-71.68,o),
(849.19,-68.09,o),
(851.27,-64.23,cs),
(868.24,-34.08,o),
(891.81,-17.67,o),
(922,-15,c),
(925,-4,l),
(803.43,36.67,o),
(700.09,94.34,o),
(615,169,c)
);
},
{
closed = 1;
nodes = (
(388.11,671.7,o),
(404.11,636.37,o),
(410,604,c),
(421.19,591.33,o),
(434.19,584.66,o),
(449,584,cs),
(452.89,583.91,o),
(457,584.31,o),
(461.32,585.19,cs),
(479.6,589.75,o),
(489.16,602.02,o),
(490,622,cs),
(490.75,652.62,o),
(469.42,686.29,o),
(426,723,cs),
(394.34,749.78,o),
(355.34,772.44,o),
(309,791,c),
(298,781,l),
(320.54,760.99,o),
(341.88,737.32,o),
(362,710,cs)
);
}
);
vertWidth = 976;
width = 1000;
}
);
note = u17033;
unicode = 94259;
}
{
glyphname = u17034;
layers = (
{
hints = (
{
horizontal = 1;
place = (-8,11);
type = Stem;
},
{
horizontal = 1;
place = (222,17);
type = Stem;
},
{
horizontal = 1;
place = (467,15);
type = Stem;
},
{
horizontal = 1;
place = (756,29);
type = Stem;
},
{
place = (91,65);
type = Stem;
}
);
layerId = "CB7FBE56-FAF0-4485-826E-02FDEC4040B6";
shapes = (
{
closed = 1;
nodes = (
(101,-74,ls),
(106.93,-73.88,o),
(114.13,-72.69,o),
(122.61,-70.41,cs),
(143.96,-64.26,o),
(155.09,-58.45,o),
(156,-53,c),
(156,785,l),
(175.52,788.65,o),
(187.52,797.98,o),
(192,813,c),
(91,824,l),
(91,-74,l)
);
},
{
closed = 1;
nodes = (
(272,467,l),
(315.5,477.98,o),
(358.86,491.51,o),
(402.07,507.59,cs),
(568.05,569.65,o),
(686.36,650.12,o),
(757,749,c),
(775.7,749.92,o),
(789.03,754.26,o),
(797,762,c),
(710,824,l),
(679,785,l),
(301,785,l),
(310,756,l),
(673,756,l),
(590.58,646.32,o),
(454.58,554.98,o),
(265,482,c)
);
},
{
closed = 1;
nodes = (
(701.46,175.24,o),
(777.13,249.91,o),
(843,336,c),
(844.72,335.39,o),
(847.38,334.69,o),
(851,333.9,cs),
(852.88,333.56,o),
(854.21,333.26,o),
(855,333,cs),
(866.09,332.45,o),
(875.09,336.11,o),
(882,344,c),
(783,404,l),
(716.84,307.42,o),
(642.51,222.76,o),
(560,150,c),
(509.72,188.37,o),
(466.05,232.37,o),
(429,282,c),
(570.31,346.23,o),
(692.64,437.57,o),
(796,556,c),
(802.95,553.49,o),
(808.95,552.49,o),
(814,553,cs),
(822.64,552.38,o),
(829.98,556.38,o),
(836,565,c),
(748,612,l),
(606.6,436.32,o),
(442.27,311.99,o),
(255,239,c),
(263,222,l),
(315.76,237.11,o),
(362.76,253.78,o),
(404,272,c),
(436.68,211.96,o),
(475.02,159.29,o),
(519,114,c),
(436.35,47.41,o),
(346.68,-7.93,o),
(250,-52,c),
(260,-70,l),
(370.07,-32.55,o),
(470.4,15.12,o),
(561,73,c),
(639.49,5.05,o),
(731.16,-44.62,o),
(836,-76,c),
(837.12,-72.67,o),
(838.55,-69.04,o),
(840.3,-65.1,cs),
(854.83,-34.04,o),
(878.73,-15,o),
(912,-8,c),
(913,3,l),
(802.16,22.28,o),
(703.16,58.61,o),
(616,112,c)
);
}
);
vertWidth = 976;
width = 1000;
}
);
note = u17034;
unicode = 94260;
}
{
glyphname = u17035;
layers = (
{
hints = (
{
horizontal = 1;
place = (158, 30);
type = Stem;
},
{
horizontal = 1;
place = (553, 17);
type = Stem;
},
{
place = (104, 65);
type = Stem;
},
{
place = (390, 65);
type = Stem;
},
{
place = (713, 65);
type = Stem;
},
{
horizontal = 1;
place = (359, 30);
type = Stem;
},
{
horizontal = 1;
place = (357, 19);
type = Stem;
}
);
layerId = "CB7FBE56-FAF0-4485-826E-02FDEC4040B6";
shapes = (
{
closed = 1;
nodes = (
(114,-74,ls),
(119.93,-73.88,o),
(127.13,-72.69,o),
(135.61,-70.41,cs),
(156.96,-64.26,o),
(168.09,-58.45,o),
(169,-53,c),
(169,785,l),
(188.52,788.65,o),
(200.52,797.98,o),
(205,813,c),
(104,824,l),
(104,-74,l)
);
},
{
closed = 1;
nodes = (
(664.01,748.8,o),
(669.34,746.47,o),
(675,745,cs),
(683.99,743.32,o),
(691.99,745.99,o),
(699,753,c),
(614,823,l),
(497.54,698.56,o),
(377.21,614.23,o),
(253,570,c),
(259,553,l),
(400.45,579.17,o),
(533.78,645.51,o),
(659,752,c)
);
},
{
closed = 1;
nodes = (
(822,188,l),
(778,188,l),
(778,348,l),
(795.95,352,o),
(809.61,358.33,o),
(819,367,c),
(738,428,l),
(702,389,l),
(466,389,l),
(430,405,l),
(568.39,450.29,o),
(693.72,522.96,o),
(806,623,c),
(810.65,620.12,o),
(816.31,618.45,o),
(823,618,cs),
(832,616,o),
(840,619,o),
(847,627,c),
(758,690,l),
(595.79,530.06,o),
(417.79,425.39,o),
(224,376,c),
(230,357,l),
(289.14,366.71,o),
(342.47,378.37,o),
(390,392,c),
(390,188,l),
(253,188,l),
(262,158,l),
(390,158,l),
(390,-70,l),
(400,-70,ls),
(405.93,-69.88,o),
(413.13,-68.69,o),
(421.61,-66.41,cs),
(442.96,-60.26,o),
(454.09,-54.45,o),
(455,-49,c),
(455,158,l),
(713,158,l),
(713,-75,l),
(723,-75,ls),
(728.93,-74.88,o),
(736.13,-73.69,o),
(744.61,-71.41,cs),
(765.96,-65.26,o),
(777.09,-59.45,o),
(778,-54,c),
(778,158,l),
(913,158,ls),
(927.17,158.38,o),
(936.17,163.72,o),
(940,174,c),
(862,241,l)
);
},
{
closed = 1;
nodes = (
(455,359,l),
(713,359,l),
(713,188,l),
(455,188,l)
);
}
);
vertWidth = 976;
width = 1000;
}
);
note = u17035;
unicode = 94261;
}
{
glyphname = u17036;
layers = (
{
hints = (
{
horizontal = 1;
place = (6,11);
type = Stem;
},
{
horizontal = 1;
place = (312,17);
type = Stem;
},
{
horizontal = 1;
place = (407,11);
type = Stem;
},
{
place = (104,65);
type = Stem;
}
);
layerId = "CB7FBE56-FAF0-4485-826E-02FDEC4040B6";
shapes = (
{
closed = 1;
nodes = (
(114,-74,ls),
(119.93,-73.88,o),
(127.13,-72.69,o),
(135.61,-70.41,cs),
(156.96,-64.26,o),
(168.09,-58.45,o),
(169,-53,c),
(169,785,l),
(188.52,788.65,o),
(200.52,797.98,o),
(205,813,c),
(104,824,l),
(104,-74,l)
);
},
{
closed = 1;
nodes = (
(666.56,533.52,o),
(720.23,581.52,o),
(770,636,c),
(775.69,633.67,o),
(781.36,632.34,o),
(787,632,cs),
(795.51,631.49,o),
(803.51,635.49,o),
(811,644,c),
(723,694,l),
(667.71,628.78,o),
(610.05,571.45,o),
(550,522,c),
(499.11,551.2,o),
(454.11,585.2,o),
(415,624,c),
(472.65,659.27,o),
(531.32,706.6,o),
(591,766,c),
(597.03,763.07,o),
(603.36,761.4,o),
(610,761,cs),
(617.51,760.38,o),
(625.18,764.05,o),
(633,772,c),
(548,824,l),
(545.17,820.44,o),
(542.05,816.56,o),
(538.66,812.37,cs),
(445.46,697.74,o),
(349.57,616.28,o),
(251,568,c),
(259,553,l),
(305.09,566.82,o),
(348.76,585.48,o),
(390,609,c),
(424.89,563.31,o),
(463.56,522.64,o),
(506,487,c),
(414.72,418.93,o),
(317.05,366.26,o),
(213,329,c),
(221,312,l),
(343.88,344.12,o),
(453.88,391.12,o),
(551,453,c),
(637.06,392.45,o),
(737.06,352.12,o),
(851,332,c),
(852.1,335.04,o),
(853.56,338.43,o),
(855.37,342.17,cs),
(870.69,372.06,o),
(897.91,393.67,o),
(937.01,407,c),
(937.01,418,l),
(817.41,422.15,o),
(708.08,446.82,o),
(609.01,492,c)
);
},
{
closed = 1;
nodes = (
(738.95,288.11,o),
(744.28,287.44,o),
(749.01,288,c),
(757.56,286.79,o),
(765.56,290.79,o),
(773.01,300,c),
(680.01,350,l),
(637.51,285.82,o),
(594.17,229.16,o),
(550.01,180,c),
(499.91,221.44,o),
(456.91,270.11,o),
(421.01,326,c),
(403.01,309,l),
(433.26,246.73,o),
(470.26,191.06,o),
(514.01,142,c),
(434.57,60.76,o),
(346.23,-4.57,o),
(249.01,-54,c),
(258.01,-70,l),
(369.76,-26.2,o),
(468.42,30.47,o),
(554.01,100,c),
(630.86,27.53,o),
(721.53,-25.8,o),
(826.01,-60,c),
(826.96,-57.71,o),
(828.13,-55.11,o),
(829.55,-52.18,cs),
(845.53,-20.57,o),
(871.02,-1.18,o),
(906.01,6,c),
(907.01,17,l),
(791.03,40.34,o),
(689.03,81.67,o),
(601.01,141,c),
(650.14,187.16,o),
(694.14,236.83,o),
(733.01,290,c)
);
}
);
vertWidth = 976;
width = 1000;
}
);
note = u17036;
unicode = 94262;
}
{
glyphname = u17037;
layers = (
{
hints = (
{
horizontal = 1;
place = (-8, 11);
type = Stem;
},
{
horizontal = 1;
place = (619, 30);
type = Stem;
},
{
horizontal = 1;
place = (780.27, 26.73);
type = Stem;
},
{
place = (104, 65);
type = Stem;
},
{
place = (535, 65);
type = Stem;
}
);
layerId = "CB7FBE56-FAF0-4485-826E-02FDEC4040B6";
shapes = (
{
closed = 1;
nodes = (
(114,-74,ls),
(119.93,-73.88,o),
(127.13,-72.69,o),
(135.61,-70.41,cs),
(156.96,-64.26,o),
(168.09,-58.45,o),
(169,-53,c),
(169,785,l),
(188.52,788.65,o),
(200.52,797.98,o),
(205,813,c),
(104,824,l),
(104,-74,l)
);
},
{
closed = 1;
nodes = (
(913,619,ls),
(926.47,619.38,o),
(935.14,624.72,o),
(939,635,c),
(846,714,l),
(796,649,l),
(600,649,l),
(600,780,l),
(600.68,780.09,o),
(601.36,780.18,o),
(602.02,780.27,cs),
(622.95,783.33,o),
(633.94,792.24,o),
(635,807,c),
(535,817,l),
(535,649,l),
(237,649,l),
(245,619,l)
);
},
{
closed = 1;
nodes = (
(681.14,219.22,o),
(737.81,289.89,o),
(784,369,c),
(793.13,367.51,o),
(798.8,366.85,o),
(801,367,cs),
(811.08,366.58,o),
(819.41,370.92,o),
(826,380,c),
(733,435,l),
(682.79,342.97,o),
(625.79,262.97,o),
(562,195,c),
(508.56,239.14,o),
(462.89,285.8,o),
(425,335,c),
(491.06,388.6,o),
(550.73,453.6,o),
(604,530,c),
(612.72,527.74,o),
(618.72,526.74,o),
(622,527,cs),
(631.92,527.4,o),
(640.26,532.07,o),
(647,541,c),
(552,597,l),
(462.08,436.99,o),
(354.75,317.66,o),
(230,239,c),
(240,223,l),
(298.74,249.53,o),
(353.08,281.53,o),
(403,319,c),
(437.69,262.32,o),
(478.69,208.65,o),
(526,158,c),
(438.18,72.34,o),
(333.51,0.01,o),
(212,-59,c),
(222,-77,l),
(357.91,-25.41,o),
(473.58,39.26,o),
(569,117,c),
(657.97,34.38,o),
(763.63,-29.28,o),
(886,-74,c),
(887.19,-70.88,o),
(888.69,-67.45,o),
(890.51,-63.72,cs),
(905.95,-33.64,o),
(930.44,-15.06,o),
(964,-8,c),
(964,3,l),
(833.88,35.16,o),
(717.21,86.49,o),
(614,157,c)
);
}
);
vertWidth = 976;
width = 1000;
}
);
note = u17037;
unicode = 94263;
}
{
glyphname = u17038;
layers = (
{
hints = (
{
horizontal = 1;
place = (376,30);
type = Stem;
},
{
horizontal = 1;
place = (561,30);
type = Stem;
},
{
place = (91,65);
type = Stem;
},
{
place = (343,65);
type = Stem;
},
{
place = (737,65);
type = Stem;
}
);
layerId = "CB7FBE56-FAF0-4485-826E-02FDEC4040B6";
shapes = (
{
closed = 1;
nodes = (
(797,591,l),
(624,591,l),
(679.1,640.83,o),
(729.43,696.17,o),
(775,757,c),
(792,755.11,o),
(805,760.44,o),
(814,773,c),
(714,810,l),
(675.09,726.74,o),
(636.42,653.74,o),
(598,591,c),
(255,591,l),
(264,561,l),
(913,561,ls),
(927.17,561.38,o),
(936.17,566.72,o),
(940,577,c),
(847,656,l)
);
},
{
closed = 1;
nodes = (
(356,798,l),
(406.05,747.43,o),
(437.39,698.43,o),
(450,651,c),
(469.25,637.05,o),
(485.59,636.15,o),
(499.02,648.29,cs),
(513.53,661.41,o),
(515.8,680.42,o),
(505.85,705.35,cs),
(488.61,748.52,o),
(442.32,781.74,o),
(367,805,c)
);
},
{
closed = 1;
nodes = (
(101,-74,ls),
(106.93,-73.88,o),
(114.13,-72.69,o),
(122.61,-70.41,cs),
(143.96,-64.26,o),
(155.09,-58.45,o),
(156,-53,c),
(156,759,l),
(175.52,762.65,o),
(187.52,771.98,o),
(192,787,c),
(91,798,l),
(91,-74,l)
);
},
{
closed = 1;
nodes = (
(419,406,l),
(356,433,l),
(343,439,l),
(343,-70,l),
(353,-70,ls),
(358.93,-69.88,o),
(366.13,-68.69,o),
(374.61,-66.41,cs),
(395.96,-60.26,o),
(407.09,-54.45,o),
(408,-49,c),
(408,376,l),
(737,376,l),
(737,-75,l),
(747,-75,ls),
(752.93,-74.88,o),
(760.13,-73.69,o),
(768.61,-71.41,cs),
(789.96,-65.26,o),
(801.09,-59.45,o),
(802,-54,c),
(802,365,l),
(819.95,369,o),
(833.61,375.33,o),
(843,384,c),
(762,445,l),
(726,406,l)
);
}
);
vertWidth = 976;
width = 1000;
}
);
note = u17038;
unicode = 94264;
}
{
glyphname = u17039;
layers = (
{
hints = (
{
place = (91,65);
type = Stem;
},
{
place = (577,65);
type = Stem;
},
{
place = (825,65);
type = Stem;
},
{
horizontal = 1;
place = (412,28);
type = Stem;
},
{
horizontal = 1;
place = (420,18);
type = Stem;
},
{
place = (424,80);
type = Stem;
},
{
place = (339,107);
type = Stem;
}
);
layerId = "CB7FBE56-FAF0-4485-826E-02FDEC4040B6";
shapes = (
{
closed = 1;
nodes = (
(101,-74,ls),
(106.93,-73.88,o),
(114.13,-72.69,o),
(122.61,-70.41,cs),
(143.96,-64.26,o),
(155.09,-58.45,o),
(156,-53,c),
(156,785,l),
(175.52,788.65,o),
(187.52,797.98,o),
(192,813,c),
(91,824,l),
(91,-74,l)
);
},
{
closed = 1;
nodes = (
(815,440,l),
(642,440,l),
(642,541,l),
(731.57,584.89,o),
(810.9,638.22,o),
(880,701,c),
(886,699,o),
(891,698,o),
(895,698,cs),
(904.22,698.37,o),
(911.89,702.71,o),
(918,711,c),
(823,768,l),
(774.51,710.04,o),
(714.18,657.37,o),
(642,610,c),
(642,785,l),
(661.52,788.65,o),
(673.52,797.98,o),
(678,813,c),
(577,824,l),
(577,570,l),
(474.78,512.68,o),
(361.11,468.68,o),
(236,438,c),
(242,420,l),
(363.83,438.98,o),
(475.5,469.65,o),
(577,512,c),
(577,-74,l),
(587,-74,ls),
(592.93,-73.88,o),
(600.13,-72.69,o),
(608.61,-70.41,cs),
(629.96,-64.26,o),
(641.09,-58.45,o),
(642,-53,c),
(642,412,l),
(825,412,l),
(825,-69,l),
(835,-69,ls),
(857.99,-67.14,o),
(876.32,-60.14,o),
(890,-48,c),
(890,399,l),
(909.92,403.21,o),
(924.26,409.87,o),
(933,419,c),
(851,481,l)
);
},
{
closed = 1;
nodes = (
(397.42,635.15,o),
(415.75,600.82,o),
(424,568,c),
(435.81,556.62,o),
(449.48,550.62,o),
(465,550,cs),
(468.53,550.23,o),
(472.26,550.82,o),
(476.2,551.79,cs),
(495.59,557.36,o),
(504.86,570.43,o),
(504,591,cs),
(502.34,622.68,o),
(478.68,655.35,o),
(433,689,cs),
(398.5,713.99,o),
(357.5,734.32,o),
(310,750,c),
(299,739,l),
(326.2,718.43,o),
(349.53,695.76,o),
(369,671,cs)
);
},
{
closed = 1;
nodes = (
(526,297,l),
(517.79,284.68,o),
(508.57,270.63,o),
(498.33,254.85,cs),
(445.43,173.2,o),
(412.98,125.59,o),
(401,112,c),
(394.63,133.67,o),
(372.96,171,o),
(336,224,c),
(377.73,263,o),
(413.39,310.33,o),
(443,366,c),
(454.83,365.13,o),
(465.17,365.46,o),
(474,367,cs),
(480.02,368.44,o),
(485.69,372.1,o),
(491,378,c),
(396,439,l),
(393.8,433.62,o),
(391.43,427.97,o),
(388.89,422.05,cs),
(346.04,322.53,o),
(280.74,227.51,o),
(193,137,c),
(202,120,l),
(244.75,148.53,o),
(279.08,173.53,o),
(305,195,c),
(326.74,137.04,o),
(339.07,88.71,o),
(342,50,cs),
(344.52,12.98,o),
(343.52,-28.69,o),
(339,-75,c),
(349.52,-74.3,o),
(365.04,-67.89,o),
(385.56,-55.79,cs),
(420.46,-34.78,o),
(440.61,-16.18,o),
(446,0,c),
(438.79,28.05,o),
(437.79,51.72,o),
(443,71,cs),
(445.35,78.44,o),
(449.32,88.38,o),
(454.91,100.8,cs),
(459.37,110.58,o),
(491.06,170.98,o),
(550,282,c)
);
}
);
vertWidth = 976;
width = 1000;
}
);
note = u17039;
unicode = 94265;
}
{
glyphname = u1703A;
layers = (
{
hints = (
{
horizontal = 1;
place = (-74,19);
type = Stem;
},
{
horizontal = 1;
place = (-6,12);
type = Stem;
},
{
horizontal = 1;
place = (268,16);
type = Stem;
},
{
horizontal = 1;
place = (574,29);
type = Stem;
},
{
place = (91,65);
type = Stem;
}
);
layerId = "CB7FBE56-FAF0-4485-826E-02FDEC4040B6";
shapes = (
{
closed = 1;
nodes = (
(101,-74,ls),
(106.93,-73.88,o),
(114.13,-72.69,o),
(122.61,-70.41,cs),
(143.96,-64.26,o),
(155.09,-58.45,o),
(156,-53,c),
(156,785,l),
(175.52,788.65,o),
(187.52,797.98,o),
(192,813,c),
(91,824,l),
(91,-74,l)
);
},
{
closed = 1;
nodes = (
(698.19,185.05,o),
(771.19,258.05,o),
(834,342,c),
(847,339,ls),
(857.52,337.61,o),
(866.19,341.28,o),
(873,350,c),
(776,412,l),
(708.22,314.61,o),
(634.89,231.61,o),
(556,163,c),
(496.93,208.77,o),
(447.93,260.1,o),
(409,317,c),
(415.24,319.29,o),
(421.78,321.74,o),
(428.63,324.36,cs),
(593.84,387.87,o),
(712.97,468.75,o),
(786,567,c),
(804.7,567.92,o),
(818.03,572.26,o),
(826,580,c),
(737,643,l),
(706,603,l),
(560,603,l),
(618.95,652.43,o),
(672.95,706.76,o),
(722,766,c),
(739.36,764.02,o),
(752.36,769.02,o),
(761,781,c),
(660,818,l),
(618.11,738.65,o),
(574.78,666.98,o),
(530,603,c),
(278,603,l),
(287,574,l),
(698,574,l),
(602.24,453.68,o),
(447.24,357.01,o),
(233,284,c),
(239,268,l),
(283.94,277.04,o),
(331.94,290.38,o),
(383,308,c),
(420.75,239.84,o),
(464.42,179.84,o),
(514,128,c),
(418.56,52.8,o),
(311.9,-8.2,o),
(194,-55,c),
(203,-74,l),
(341.03,-32.82,o),
(460.03,20.18,o),
(560,85,c),
(643.96,12.53,o),
(743.62,-40.14,o),
(859,-73,c),
(860.27,-69.34,o),
(861.92,-65.37,o),
(863.94,-61.1,cs),
(878.82,-31.25,o),
(902.17,-12.88,o),
(934,-6,c),
(936,6,l),
(816.93,26.15,o),
(709.93,65.15,o),
(615,123,c)
);
},
{
closed = 1;
nodes = (
(325,811,l),
(369.81,761.84,o),
(396.48,714.17,o),
(405,668,c),
(422.87,653.15,o),
(438.91,650.98,o),
(453.12,661.47,cs),
(469.19,673.34,o),
(472.84,691.97,o),
(464.06,717.36,cs),
(449.66,759.03,o),
(406.97,792.25,o),
(335.99,817,c)
);
}
);
vertWidth = 976;
width = 1000;
}
);
note = u1703A;
unicode = 94266;
}
{
glyphname = u1703B;
layers = (
{
hints = (
{
horizontal = 1;
place = (154,30);
type = Stem;
},
{
horizontal = 1;
place = (350,30);
type = Stem;
},
{
horizontal = 1;
place = (555,30);
type = Stem;
},
{
horizontal = 1;
place = (741,30);
type = Stem;
},
{
place = (91,65);
type = Stem;
},
{
place = (542,65);
type = Stem;
},
{
place = (787,68);
type = Stem;
}
);
layerId = "CB7FBE56-FAF0-4485-826E-02FDEC4040B6";
shapes = (
{
closed = 1;
nodes = (
(101,-74,ls),
(106.93,-73.88,o),
(114.13,-72.69,o),
(122.61,-70.41,cs),
(143.96,-64.26,o),
(155.09,-58.45,o),
(156,-53,c),
(156,785,l),
(175.52,788.65,o),
(187.52,797.98,o),
(192,813,c),
(91,824,l),
(91,-74,l)
);
},
{
closed = 1;
nodes = (
(302,555,l),
(787,555,l),
(787,519,l),
(798,519,ls),
(805.53,519,o),
(814.23,520.8,o),
(824.09,524.4,cs),
(843.86,531.61,o),
(854.16,538.14,o),
(855,544,c),
(855,730,l),
(875.43,734.49,o),
(889.1,740.83,o),
(896,749,c),
(816,813,l),
(777,771,l),
(298,771,l),
(307,741,l),
(787,741,l),
(787,585,l),
(293,585,l)
);
},
{
closed = 1;
nodes = (
(799,184,l),
(607,184,l),
(607,350,l),
(834,350,ls),
(848.17,350.38,o),
(857.17,355.72,o),
(861,366,c),
(775,440,l),
(730,380,l),
(607,380,l),
(607,483,l),
(626.52,486.65,o),
(638.52,495.98,o),
(643,511,c),
(542,522,l),
(542,380,l),
(316,380,l),
(325,350,l),
(542,350,l),
(542,184,l),
(252,184,l),
(261,154,l),
(542,154,l),
(542,-76,l),
(552,-76,ls),
(557.93,-75.88,o),
(565.13,-74.69,o),
(573.61,-72.41,cs),
(594.96,-66.26,o),
(606.09,-60.45,o),
(607,-55,c),
(607,154,l),
(903,154,ls),
(917.17,154.38,o),
(926.17,159.72,o),
(930,170,c),
(844,244,l)
);
}
);
vertWidth = 976;
width = 1000;
}
);
note = u1703B;
unicode = 94267;
}
